<svg width="236" height="180" viewBox="0 0 236 180" fill="none" xmlns="http://www.w3.org/2000/svg">
<g clip-path="url(#clip0_3_5553)">
<path fill-rule="evenodd" clip-rule="evenodd" d="M166.267 39.3837V33.439L209.295 9.51709L206.223 20.1062L181.672 26.6511L179.328 49.6584L166.267 39.3837Z" fill="url(#paint0_linear_3_5553)"/>
<path fill-rule="evenodd" clip-rule="evenodd" d="M189.803 108.863L188.631 103.047V85.5129C188.631 85.5129 212.596 69.422 214.168 46.2718C215.626 24.8507 186.231 27.1086 179.328 49.6586L166.267 39.3696C166.267 39.3696 178.014 -2.40076 209.295 5.17307C241.834 13.0613 246.878 64.6491 205.294 87.442L202.979 104.076L201.164 108.863H189.803Z" fill="url(#paint1_linear_3_5553)"/>
<path fill-rule="evenodd" clip-rule="evenodd" d="M232.803 48.2008C229.844 60.5333 221.099 72.8372 205.308 81.4971L202.321 104.304L188.646 103.047V79.5679C188.646 79.5679 206.423 67.6213 212.353 49.5441C213.325 46.6289 213.968 43.5422 214.182 40.3269C214.997 28.1087 205.179 23.3501 195.305 25.6937C187.845 27.4371 182.301 33.9963 179.328 43.7137L166.267 33.4247C166.267 33.4247 172.583 7.88804 192.047 2.78642C196.348 1.65749 201.307 1.51458 206.98 2.90074C227.144 7.8023 237.647 28.0659 232.803 48.1865V48.2008Z" fill="url(#paint2_linear_3_5553)"/>
<path fill-rule="evenodd" clip-rule="evenodd" d="M151.562 173.255C135.628 178.085 123.653 173.169 123.653 173.169C118.752 137.643 118.18 131.77 116.58 109.02L122.481 107.677C124.911 122.953 127.712 151.133 133.113 160.065C136.929 164.366 149.89 166.938 149.89 166.938C152.119 170.182 151.562 173.269 151.562 173.269V173.255Z" fill="url(#paint3_linear_3_5553)"/>
<path fill-rule="evenodd" clip-rule="evenodd" d="M151.562 173.255C135.629 178.085 123.653 173.169 123.653 173.169C123.653 173.169 120.824 155.964 119.509 141.53L127.012 138.129C129.798 154.992 133.128 160.051 133.128 160.051C136.943 164.352 149.905 166.924 149.905 166.924C152.134 170.168 151.577 173.255 151.577 173.255H151.562Z" fill="url(#paint4_linear_3_5553)"/>
<path fill-rule="evenodd" clip-rule="evenodd" d="M123.653 173.169V175.827C123.653 175.827 143.088 177.885 151.634 174.498L151.576 173.255C151.576 173.255 136.314 174.812 123.668 173.169H123.653Z" fill="url(#paint5_linear_3_5553)"/>
<g style="mix-blend-mode:soft-light" opacity="0.7">
<path fill-rule="evenodd" clip-rule="evenodd" d="M134.514 160.05L129.112 163.937C129.112 163.937 140.087 167.881 149.89 166.924C149.89 166.924 140.03 165.666 134.514 160.05Z" fill="white"/>
</g>
<path fill-rule="evenodd" clip-rule="evenodd" d="M2.87225 75.9954V76.0383C7.90241 92.1434 18.9059 110.806 30.6525 117.88C32.5674 119.023 34.4823 119.866 36.4115 120.338C36.4115 120.338 40.2841 121.181 46.6004 121.767C55.6176 122.639 69.6363 123.039 84.4267 119.881C84.4267 119.881 90.2 117.28 92.515 113.807C92.515 113.807 127.783 108.634 143.946 102.675C146.818 101.618 162.752 79.1393 159.136 45.0856C158.264 36.7972 156.221 27.823 152.548 18.2914C152.548 18.2914 127.869 -2.44379 87.6706 0.228485C47.4721 2.91505 34.1536 11.675 30.1095 13.89C20.7779 18.9916 5.25872 38.7407 0.657257 54.7744C-0.771768 59.7617 0.214259 67.5356 2.85796 75.9954H2.87225Z" fill="url(#paint6_linear_3_5553)"/>
<path style="mix-blend-mode:multiply" opacity="0.3" fill-rule="evenodd" clip-rule="evenodd" d="M117.352 27.0084C117.352 27.0084 112.136 40.8128 107.063 43.9138C101.99 47.0148 85.9131 49.2726 78.4965 45.2142C71.0799 41.1558 69.9652 28.6089 69.9652 28.6089C69.9652 28.6089 67.2215 32.7674 66.4927 35.3539C65.7639 37.9262 80.5972 55.5746 88.4139 56.132C101.575 57.0751 119.352 44.6283 119.352 44.6283L121.239 38.1977L117.352 26.9941V27.0084Z" fill="url(#paint7_linear_3_5553)"/>
<path style="mix-blend-mode:multiply" opacity="0.3" fill-rule="evenodd" clip-rule="evenodd" d="M119.523 27.7659C119.523 27.7659 127.898 39.1696 132.656 43.4423C137.415 47.7151 142.931 44.8142 146.146 41.8704C149.376 38.9266 145.132 26.1226 145.132 26.1226C145.132 26.1226 149.49 29.7809 150.105 33.2248C150.719 36.6688 148.861 49.9301 145.589 51.2448C142.316 52.5595 130.913 49.0012 126.397 45.1C121.867 41.2131 119.523 27.7516 119.523 27.7516V27.7659Z" fill="url(#paint8_linear_3_5553)"/>
<path style="mix-blend-mode:multiply" opacity="0.3" fill-rule="evenodd" clip-rule="evenodd" d="M139.316 30.4668C139.316 30.4668 139.587 34.5967 135.858 35.7971C132.128 37.0117 130.799 32.7961 130.799 32.7961C130.799 32.7961 130.813 38.0978 132.228 39.5983C133.643 41.0987 140.087 40.6843 141.059 39.4125C142.031 38.1407 141.517 32.0673 141.517 32.0673L139.316 30.4811V30.4668Z" fill="url(#paint9_linear_3_5553)"/>
<path style="mix-blend-mode:multiply" opacity="0.3" fill-rule="evenodd" clip-rule="evenodd" d="M61.4622 24.0073C61.4622 24.0073 49.3584 38.0118 38.9122 38.4833C28.466 38.9549 24.6505 33.396 24.6505 33.396L26.6655 27.094C26.6655 27.094 20.3063 35.4824 19.9633 37.6545C19.6204 39.8266 32.3673 47.5148 37.3974 46.7431C42.4276 45.9714 58.4899 36.1683 61.4479 24.0216L61.4622 24.0073Z" fill="url(#paint10_linear_3_5553)"/>
<path style="mix-blend-mode:multiply" opacity="0.3" fill-rule="evenodd" clip-rule="evenodd" d="M106.605 4.20118C106.605 4.20118 104.118 7.11639 93.7581 5.73023C83.4119 4.32979 81.5828 0.714355 81.5828 0.714355L74.6377 1.42887C74.6377 1.42887 98.0308 11.9036 112.007 11.2463C112.007 11.2463 120.467 10.4746 124.654 5.75881C124.654 5.75881 117.751 7.58797 114.565 6.55907C111.378 5.53017 110.349 3.55812 110.349 3.55812L106.591 4.20118H106.605Z" fill="url(#paint11_linear_3_5553)"/>
<path style="mix-blend-mode:multiply" opacity="0.3" fill-rule="evenodd" clip-rule="evenodd" d="M101.704 25.3936C101.704 25.3936 98.1882 30.2094 93.8583 30.8667C89.5283 31.5241 87.7992 27.8801 87.7992 27.8801L86.8989 33.1103C86.8989 33.1103 93.7011 37.4974 95.9732 37.1258C98.2311 36.7543 101.704 25.3936 101.704 25.3936Z" fill="url(#paint12_linear_3_5553)"/>
<path fill-rule="evenodd" clip-rule="evenodd" d="M99.8746 0.128418L109.778 6.11603C109.778 6.11603 118.895 26.9083 122.31 47.6149C125.726 68.3215 125.326 91.3717 125.326 91.3717C125.326 91.3717 127.569 67.4498 123.868 44.8283C120.167 22.2069 111.092 4.65843 111.092 4.65843L110.521 1.20019L99.8604 0.128418H99.8746Z" fill="#FF7F85"/>
<path fill-rule="evenodd" clip-rule="evenodd" d="M122.21 44.1712C122.21 44.1712 117.037 48.1867 115.122 49.5872C111.593 52.1737 93.5156 57.704 88.4426 57.604C83.3696 57.504 65.2495 39.5411 64.6065 35.6685C63.9777 31.7958 72.9662 13.3757 79.8113 12.261C82.7551 11.7894 99.4604 20.0778 101.332 23.1788C103.219 26.2798 97.5741 37.8263 96.5166 38.3121C95.4591 38.798 87.628 35.0826 87.628 35.0826L83.5125 37.6691L87.7852 27.8803L88.0996 33.6107C88.0996 33.6107 93.1727 36.5259 95.4162 36.6402C97.6598 36.7545 101.875 26.5227 100.432 23.8218C98.9888 21.121 84.4556 14.2188 79.7827 15.4477C75.1098 16.6767 67.4788 31.5529 68.1076 35.7828C68.722 40.0127 82.7408 56.0606 88.3997 56.1464C96.1165 56.2464 111.693 49.4585 114.151 46.5719C116.623 43.6853 119.881 35.254 119.881 35.254L122.196 44.1569L122.21 44.1712Z" fill="#FF7F85"/>
<path fill-rule="evenodd" clip-rule="evenodd" d="M122.096 43.4849C122.096 43.4849 123.868 44.8139 127.783 47.0146C131.485 49.0867 143.403 53.0451 146.661 52.0019C149.919 50.9444 152.906 35.9539 151.048 30.8952C149.19 25.8364 137.215 15.4331 133.085 16.7336C128.97 18.034 129.527 38.1689 131.47 40.5268C133.414 42.899 140.63 40.3696 141.459 39.7123C142.288 39.0549 142.588 32.9244 142.588 32.9244L145.032 31.9098L139.33 30.4665L141.316 33.1388C141.316 33.1388 141.159 37.9974 140.459 39.2407C139.759 40.4839 133.328 40.2553 131.828 38.3404C130.327 36.4255 130.013 22.0781 133.843 20.0489C137.672 18.0197 148.39 28.2515 149.49 32.0384C150.591 35.811 147.947 49.8869 144.474 50.973C141.002 52.0591 132.256 48.6723 128.812 46.1143C125.368 43.5564 120.781 30.6808 120.781 30.6808L122.11 43.4849H122.096Z" fill="#FF7F85"/>
<path fill-rule="evenodd" clip-rule="evenodd" d="M126.783 5.08731C126.783 5.08731 120.052 10.7462 114.679 12.6468H112.407C112.407 12.6468 82.2261 6.98791 71.0654 1.74339L77.2388 1.12891C77.2388 1.12891 85.127 6.45917 100.275 9.47441C109.949 11.4036 111.793 8.80277 111.793 8.80277L113.279 8.94567C113.279 8.94567 115.265 10.6319 119.424 9.10287C123.582 7.57381 124.254 4.27276 124.254 4.27276L126.812 5.08731H126.783Z" fill="#FF7F85"/>
<path fill-rule="evenodd" clip-rule="evenodd" d="M41.0417 8.71671C41.0417 8.71671 58.3186 8.90248 61.7054 12.3036C65.0922 15.7189 62.077 37.8831 37.1119 45.4855C37.1119 45.4855 25.3939 43.8564 22.3072 36.4255C22.3072 36.4255 25.1224 26.1794 36.3831 19.3772C36.3831 19.3772 42.285 17.6338 47.1294 20.7062C47.1294 20.7062 44.8429 29.1375 39.8556 32.6386L35.0684 33.0101L42.828 35.6538L41.8134 33.2102C41.8134 33.2102 47.0293 27.2226 49.0443 20.6919C49.0443 20.6919 43.3139 17.1908 35.4256 18.1769C35.4256 18.1769 22.8931 27.3512 18.2773 38.2261C18.2773 38.2261 26.2227 48.9009 37.8407 48.0149C37.8407 48.0149 66.4069 37.7688 64.4206 11.8177C64.4206 11.8177 59.7048 8.40232 52.0166 7.38771L51.688 5.40137C51.688 5.40137 44.2713 7.38771 41.0417 8.67383V8.71671Z" fill="#FF7F85"/>
<path fill-rule="evenodd" clip-rule="evenodd" d="M157.322 33.9962C157.322 33.9962 157.936 57.1321 156.336 62.4624C154.735 67.7927 149.891 70.8222 149.891 70.8222C149.891 70.8222 146.132 60.6761 137.072 62.3195C127.941 63.9772 124.911 73.0229 124.911 73.0229C124.911 73.0229 124.025 72.7085 114.579 69.3074C104.776 65.7635 97.2739 60.2617 85.7131 62.7768C74.1523 65.2919 73.2806 72.5799 72.5518 72.2941C71.823 72.0083 63.206 55.6602 57.8614 53.4453C52.5168 51.2303 37.755 51.5304 32.7391 54.4456C27.7233 57.3608 35.4686 82.8403 37.8979 85.8984C40.3273 88.9422 57.2469 85.0553 58.0757 82.5831C58.9046 80.1109 55.4463 66.5637 52.1024 65.0918C48.7585 63.6199 43.7283 63.7199 43.7283 63.7199L41.7849 59.39L43.6569 70.8222L44.5572 65.0204C44.5572 65.0204 50.702 66.0064 52.2025 67.5497C53.6886 69.0931 57.3755 78.3389 56.4324 81.3398C55.4749 84.3408 41.9278 85.8698 39.0125 83.9978C36.0973 82.1115 33.7394 63.8057 34.1824 59.6044C34.6254 55.403 52.7598 52.2592 57.547 54.7885C62.3342 57.3179 69.5937 75.981 70.2082 76.5955C70.8227 77.2099 75.7099 76.3525 75.7099 76.3525C75.7099 76.3525 83.6267 68.1642 94.4016 68.0785C105.176 67.9927 120.153 72.9372 120.153 72.9372L125.954 78.6247C125.954 78.6247 129.356 66.7781 137.044 66.3493C144.732 65.9206 146.961 73.2373 146.961 73.2373L146.89 77.4672C146.89 77.4672 152.034 73.3944 155.821 65.9492C159.608 58.504 159.522 47.4433 159.522 47.4433L157.307 33.9819L157.322 33.9962Z" fill="#FF7F85"/>
<path fill-rule="evenodd" clip-rule="evenodd" d="M88.7424 114.022C88.7424 114.022 75.4953 98.1308 68.9075 97.6592C62.334 97.1877 57.0609 103.79 56.1463 106.719C55.2317 109.649 58.2898 113.836 58.2898 113.836L63.1771 114.307C63.1771 114.307 57.461 110.163 57.2467 107.505C57.0323 104.847 62.6912 100.189 69.0504 100.532C75.4238 100.875 81.3972 112.407 81.3972 112.407L79.4394 114.407C79.4394 114.407 87.2991 114.75 88.7138 113.993L88.7424 114.022Z" fill="#FF7F85"/>
<path fill-rule="evenodd" clip-rule="evenodd" d="M8.78849 90.6571C8.78849 90.6571 18.2486 99.317 22.5929 99.3741C26.9371 99.4313 33.2248 97.1877 33.6535 96.0445C34.0822 94.9013 33.3106 77.2814 27.7231 62.0909C22.1356 46.9003 12.8612 42.2846 10.4747 41.5986C8.08827 40.9127 2.67227 55.4173 3.88694 66.5208C5.10161 77.6244 17.6627 86.6558 19.9492 87.3132C22.2213 87.9705 24.7793 76.4954 22.55 68.6072C20.3207 60.719 15.0905 54.5599 12.5325 54.7743C9.98888 54.9886 10.2032 65.0632 12.061 69.5075C12.061 69.5075 10.7891 57.0464 13.2756 56.7892C15.7621 56.532 21.0495 65.3776 22.1213 72.3084C23.1931 79.2392 20.0921 84.0407 18.02 84.4408C15.9479 84.8409 5.14448 75.0664 4.98729 65.4205C4.83009 55.7746 8.40266 48.1864 11.0464 47.0289C13.6901 45.8714 23.2788 52.202 27.4516 65.8635C31.6243 79.525 30.5954 95.1013 29.2236 96.7733C27.8517 98.4453 23.1502 98.5167 17.3626 94.9727C11.5894 91.4287 2.84375 75.981 2.84375 75.981C2.84375 75.981 5.54461 84.6552 8.7742 90.6571H8.78849Z" fill="#FF7F85"/>
<path style="mix-blend-mode:multiply" opacity="0.5" fill-rule="evenodd" clip-rule="evenodd" d="M2.87207 75.9956V76.0385C7.90224 92.1436 18.9057 110.807 30.6523 117.88L46.6002 121.782C55.6174 122.653 69.6361 123.053 84.4266 119.895C84.4266 119.895 90.1998 117.294 92.5148 113.822C92.5148 113.822 127.783 108.649 143.945 102.69C146.818 101.632 162.751 79.1538 159.136 45.1001C159.136 45.1001 157.921 57.0182 152.663 61.8054C152.663 61.8054 156.75 101.975 122.21 105.434C76.967 109.964 74.9664 74.881 74.9664 74.881L64.5345 63.5631C64.5345 63.5631 64.8346 67.3357 60.5332 69.7222C56.2176 72.1087 54.2598 69.7651 54.2598 69.7651C54.3027 70.0223 55.0601 75.0096 50.9302 77.5247C46.6717 80.1112 33.639 75.5098 32.6815 70.7654C32.6815 70.7654 33.1245 74.338 31.3954 75.1382C29.652 75.9385 21.7638 70.5367 21.7638 70.5367C21.7638 70.5367 14.8902 77.0102 8.67391 75.8241L2.88636 76.0099L2.87207 75.9956Z" fill="url(#paint13_linear_3_5553)"/>
<path fill-rule="evenodd" clip-rule="evenodd" d="M146.461 80.4252C146.461 80.4252 145.417 89.0279 138.901 89.5281C132.385 90.0282 129.498 79.0962 129.498 79.0962L146.461 80.4252Z" fill="#E16070"/>
<path fill-rule="evenodd" clip-rule="evenodd" d="M110.692 80.0967C110.692 80.0967 111.364 96.2732 95.9304 97.9595C80.497 99.6457 76.9673 84.3552 76.9673 84.3552L110.692 80.111V80.0967Z" fill="#E16070"/>
<path fill-rule="evenodd" clip-rule="evenodd" d="M110.306 72.1086C110.306 72.1086 113.407 85.5414 104.376 92.5579C95.7873 99.2315 83.7263 96.1448 79.6965 90.4144C75.6524 84.684 75.7095 76.3528 75.7095 76.3528C76.9671 72.3658 91.5431 53.9457 110.306 72.1086Z" fill="url(#paint14_linear_3_5553)"/>
<path d="M98.7884 85.3126C103.397 85.3126 107.134 81.5762 107.134 76.9671C107.134 72.358 103.397 68.6216 98.7884 68.6216C94.1793 68.6216 90.4429 72.358 90.4429 76.9671C90.4429 81.5762 94.1793 85.3126 98.7884 85.3126Z" fill="#37093A"/>
<g style="mix-blend-mode:multiply">
<path fill-rule="evenodd" clip-rule="evenodd" d="M110.692 75.2664C110.692 75.2664 102.633 67.6211 88.1423 71.3937C77.639 74.1231 76.4386 80.7252 76.4386 80.7252C76.4386 80.7252 75.7813 79.5249 75.7241 76.3524C75.7241 76.3524 78.2821 66.5922 90.4574 64.6058C102.633 62.6052 110.321 72.1082 110.321 72.1082C110.321 72.1082 110.535 72.5083 110.707 75.2664H110.692Z" fill="#D8CBD9"/>
</g>
<path fill-rule="evenodd" clip-rule="evenodd" d="M146.961 73.2373C146.961 73.2373 148.104 87.5847 139.444 88.2707C130.784 88.9709 127.969 76.3526 128.241 71.4082C128.241 71.4082 131.156 64.7918 137.587 64.3202C145.746 63.72 146.975 73.2373 146.975 73.2373H146.961Z" fill="url(#paint15_linear_3_5553)"/>
<g style="mix-blend-mode:multiply">
<path fill-rule="evenodd" clip-rule="evenodd" d="M146.975 71.6082L146.932 74.3234C146.932 74.3234 145.632 69.0789 138.401 69.0789C130.555 69.0789 128.512 73.8661 128.512 73.8661C128.512 73.8661 128.169 73.0801 128.226 71.4082C128.226 71.4082 130.984 64.9204 137.572 64.3202C144.317 63.7057 146.975 71.6082 146.975 71.6082Z" fill="#D8CBD9"/>
</g>
<path fill-rule="evenodd" clip-rule="evenodd" d="M145.732 72.5086C145.732 76.2955 143.417 79.3536 140.573 79.3536C137.73 79.3536 135.415 76.2955 135.415 72.5086C135.415 68.7217 137.73 65.6636 140.573 65.6636C143.417 65.6636 145.732 68.7217 145.732 72.5086Z" fill="#37093A"/>
<path fill-rule="evenodd" clip-rule="evenodd" d="M92.5151 113.807C92.5151 113.807 73.4662 115.022 61.4053 114.222C49.3443 113.407 33.5964 104.233 33.5964 104.233C33.5964 104.233 21.2068 101.132 17.1055 104.533C17.1055 104.533 25.451 117.18 35.2398 121.467C45.0286 125.74 79.1537 121.924 85.2414 119.881C90.1715 118.223 92.5008 113.822 92.5008 113.822L92.5151 113.807Z" fill="url(#paint16_linear_3_5553)"/>
<path fill-rule="evenodd" clip-rule="evenodd" d="M128.798 46.1002C128.798 46.1002 123.367 45.2142 122.21 44.1568L116.58 48.4867C116.58 48.4867 117.823 40.1841 120.81 35.8398C120.81 35.8398 126.797 45.3572 128.798 46.086V46.1002Z" fill="#E16070"/>
<path fill-rule="evenodd" clip-rule="evenodd" d="M142.588 32.9247L145.017 31.9101L139.315 30.4668L141.302 33.1391L141.23 34.5824L142.588 32.9247Z" fill="#E16070"/>
<path fill-rule="evenodd" clip-rule="evenodd" d="M147.447 46.686C147.447 46.686 146.161 50.4158 144.26 51.016C142.359 51.6162 138.43 50.4587 138.43 50.4587C138.43 50.4587 143.331 52.8023 145.675 52.1592C148.018 51.5161 147.433 46.686 147.433 46.686H147.447Z" fill="#E16070"/>
<path fill-rule="evenodd" clip-rule="evenodd" d="M96.7592 54.7028C96.7592 54.7028 90.6858 56.9035 87.442 55.9889C85.3413 55.3887 79.4966 51.416 79.4966 51.416C79.4966 51.416 84.7983 57.1607 88.4423 57.6037C92.072 58.0467 96.7592 54.7028 96.7592 54.7028Z" fill="#E16070"/>
<path fill-rule="evenodd" clip-rule="evenodd" d="M129.77 66.1494L124.84 71.6226L116.494 70.0078L120.152 72.9516L125.111 77.4959C125.111 77.4959 129.37 69.8649 129.77 66.1637V66.1494Z" fill="#E16070"/>
<path fill-rule="evenodd" clip-rule="evenodd" d="M149.076 72.5085C149.076 72.5085 147.875 61.4336 140.559 60.5047C131.541 59.3615 127.74 68.4072 127.74 68.4072L128.24 71.4224C128.24 71.4224 131.284 64.2487 138.415 64.2487C144.331 64.2487 149.09 72.5085 149.09 72.5085H149.076Z" fill="#E16070"/>
<path fill-rule="evenodd" clip-rule="evenodd" d="M111.978 70.0077C111.978 70.0077 108.12 61.5622 93.8439 60.5047C85.7413 59.9045 75.8524 65.492 72.5371 72.2942L73.223 76.4955C73.223 76.4955 78.7248 65.0633 92.5435 64.3059C106.348 63.5485 111.964 70.0077 111.964 70.0077H111.978Z" fill="#E16070"/>
<path fill-rule="evenodd" clip-rule="evenodd" d="M56.0605 76.667C56.0605 76.667 57.0751 80.8969 55.8461 82.183C54.6171 83.4691 47.9722 84.7124 47.9722 84.7124C47.9722 84.7124 55.1887 85.1983 57.2037 83.4549C59.2186 81.7115 56.0605 76.667 56.0605 76.667Z" fill="#E16070"/>
<path fill-rule="evenodd" clip-rule="evenodd" d="M47.0434 41.1128C47.0434 41.1128 39.3124 45.1712 37.1117 45.4856C34.911 45.8 27.7944 42.2274 27.7944 42.2274C27.7944 42.2274 30.5525 47.9435 37.8405 48.0436C37.8405 48.0436 42.6992 46.4859 47.0434 41.1128Z" fill="#E16070"/>
<path fill-rule="evenodd" clip-rule="evenodd" d="M42.8421 35.6685L41.8132 33.2392L40.8701 31.853L39.8698 32.6533L35.0825 33.0248L42.8421 35.6685Z" fill="#E16070"/>
<path fill-rule="evenodd" clip-rule="evenodd" d="M68.8932 31.3955C68.8932 31.3955 67.4784 34.0392 68.1215 35.7826C68.7646 37.526 71.0939 41.1986 71.0939 41.1986C71.0939 41.1986 65.9923 38.3692 65.3778 36.0684C64.7633 33.7677 68.8932 31.3955 68.8932 31.3955Z" fill="#E16070"/>
<path fill-rule="evenodd" clip-rule="evenodd" d="M119.395 9.10279C119.395 9.10279 114.979 12.0609 113.065 12.2324C111.135 12.4038 105.705 10.1746 105.705 10.1746C105.705 10.1746 110.049 10.1317 110.85 9.84589C111.65 9.56008 112.021 8.2168 112.021 8.2168C112.021 8.2168 113.479 9.57437 115.037 9.8173C116.58 10.0602 119.409 9.10279 119.409 9.10279H119.395Z" fill="#E16070"/>
<path fill-rule="evenodd" clip-rule="evenodd" d="M30.4237 85.5986C30.4237 85.5986 30.9954 95.1159 29.2234 96.7736C27.4514 98.417 23.8359 97.6596 23.8359 97.6596C23.8359 97.6596 26.0081 99.403 32.8245 96.7879C32.8245 96.7879 33.6676 96.9737 33.6248 93.3439C33.5819 89.7142 30.4095 85.5986 30.4095 85.5986H30.4237Z" fill="#E16070"/>
<path fill-rule="evenodd" clip-rule="evenodd" d="M22.3069 74.7521C22.3069 74.7521 23.6359 82.9976 18.0198 84.4409C18.0198 84.4409 16.4479 84.3694 14.29 82.3116C14.29 82.3116 15.6619 86.2843 19.9347 87.3132C19.9347 87.3132 24.2646 83.2834 22.3069 74.7378V74.7521Z" fill="#E16070"/>
<path fill-rule="evenodd" clip-rule="evenodd" d="M73.8947 99.8032C73.8947 99.8032 71.1938 98.7314 65.6349 100.832C60.076 102.933 58.2183 105.148 58.2183 105.148C58.2183 105.148 60.1474 99.6746 64.7489 98.0884C69.3361 96.5164 73.909 99.8032 73.909 99.8032H73.8947Z" fill="#E16070"/>
<path fill-rule="evenodd" clip-rule="evenodd" d="M26.0222 29.1089C26.0222 29.1089 21.7923 35.3823 22.3211 36.4398C22.8498 37.4973 23.0927 38.9263 25.4506 40.584C25.4506 40.584 21.2779 39.9838 19.9632 37.6545C18.6485 35.3109 26.0222 29.1089 26.0222 29.1089Z" fill="#E16070"/>
<path fill-rule="evenodd" clip-rule="evenodd" d="M12.1036 58.5615C12.1036 58.5615 10.889 64.6063 12.0608 69.5221C12.0608 69.5221 10.7175 65.3065 10.6889 62.5056C10.6603 59.719 12.1036 58.5615 12.1036 58.5615Z" fill="#E16070"/>
<path fill-rule="evenodd" clip-rule="evenodd" d="M45.8574 177.756C60.3191 179.385 74.0664 175.784 74.0664 175.784C72.6945 162.308 72.7659 150.276 73.409 140.487C73.7805 134.828 74.3236 129.927 74.8809 125.925C75.9527 118.323 77.0101 114.422 77.0101 114.422L69.5792 114.393C69.5792 114.393 67.7644 119.152 66.5926 128.026C66.4354 129.255 66.2925 130.57 66.1781 131.913C66.0352 133.699 65.8923 135.6 65.7637 137.586C65.2207 145.574 64.6348 154.534 63.1772 159.379C61.4766 164.981 47.3436 171.325 47.3436 171.325C45.3001 174.169 45.8145 177.742 45.8145 177.742L45.8574 177.756Z" fill="url(#paint17_linear_3_5553)"/>
<path fill-rule="evenodd" clip-rule="evenodd" d="M45.8575 177.756C60.3192 179.385 74.0665 175.784 74.0665 175.784C72.6946 162.308 72.766 150.276 73.4091 140.487L65.8067 137.586C65.2637 145.574 64.6778 154.534 63.2202 159.379C61.5196 164.98 47.3866 171.325 47.3866 171.325C45.343 174.169 45.8575 177.742 45.8575 177.742V177.756Z" fill="url(#paint18_linear_3_5553)"/>
<path fill-rule="evenodd" clip-rule="evenodd" d="M74.0664 175.784V178.171C74.0664 178.171 60.5478 181.515 45.8003 179.128L45.8575 177.756C45.8575 177.756 55.8892 178.399 74.0664 175.784Z" fill="url(#paint19_linear_3_5553)"/>
<g style="mix-blend-mode:multiply">
<path fill-rule="evenodd" clip-rule="evenodd" d="M66.6355 128.04C70.5225 124.582 74.6095 125.839 74.8953 125.939C75.967 118.337 77.0245 114.436 77.0245 114.436L69.5936 114.407C69.5936 114.407 67.7787 119.166 66.6069 128.04H66.6355Z" fill="#5E364C"/>
</g>
<g style="mix-blend-mode:soft-light" opacity="0.7">
<path fill-rule="evenodd" clip-rule="evenodd" d="M47.3862 171.34C47.3862 171.34 60.3189 171.34 67.5498 165.323L61.4193 162.137C61.4193 162.137 57.0607 167.767 47.3862 171.325V171.34Z" fill="white"/>
</g>
<g style="mix-blend-mode:soft-light" opacity="0.7">
<path fill-rule="evenodd" clip-rule="evenodd" d="M97.8311 15.4046C97.8311 15.4046 102.061 21.8209 105.691 22.7498C105.691 22.7498 108.606 25.8937 109.078 26.8511C109.549 27.8228 106.791 34.5964 102.833 37.383C98.8743 40.1696 94.4443 40.584 94.4443 40.584C94.4443 40.584 85.613 39.0693 80.0684 39.7123C80.0684 39.7123 83.2408 43.042 88.1281 43.3135C93.0153 43.5993 93.8442 41.2128 94.5158 40.9842C95.1874 40.7555 100.904 41.1985 106.648 38.0261C112.393 34.8393 112.379 29.109 111.621 27.2655C110.85 25.4221 107.334 24.4646 106.105 22.6641C104.876 20.8635 105.848 20.1633 104.49 17.7482C103.133 15.3332 97.8311 15.376 97.8311 15.376V15.4046Z" fill="white"/>
</g>
<g style="mix-blend-mode:soft-light" opacity="0.7">
<path fill-rule="evenodd" clip-rule="evenodd" d="M91.3003 21.4208C91.3003 21.4208 85.5128 17.1195 81.0399 18.1626C76.5671 19.1915 71.7227 28.5374 72.3371 31.3954C72.3371 31.3954 74.3235 29.0804 76.3527 26.0223C78.3819 22.9785 77.5817 21.2922 78.8106 19.9203C80.0396 18.5485 81.4115 18.4627 82.0688 18.6628C82.7262 18.8629 84.7268 21.9496 87.2133 21.7352C89.7141 21.5351 91.3146 21.4208 91.3146 21.4208H91.3003Z" fill="white"/>
</g>
<g style="mix-blend-mode:soft-light" opacity="0.7">
<path fill-rule="evenodd" clip-rule="evenodd" d="M38.9409 12.4751C38.9409 12.4751 54.0743 12.2608 56.6751 14.3186C59.2759 16.3621 55.732 24.8934 52.8168 26.6225C52.8168 26.6225 51.6021 24.2932 52.1165 22.0353C52.631 19.7774 57.0467 17.7625 56.8609 16.0477C56.6751 14.3186 54.16 12.8038 49.6872 13.5326C45.2143 14.2471 39.8412 15.0474 38.9409 12.4894V12.4751Z" fill="white"/>
</g>
<g style="mix-blend-mode:soft-light" opacity="0.7">
<path fill-rule="evenodd" clip-rule="evenodd" d="M78.7391 56.6179C78.7391 56.6179 71.4511 56.3606 68.15 53.031C64.849 49.7014 64.9919 46.6861 62.1338 44.0567C59.2758 41.4273 50.3301 44.0281 47.915 46.386C47.915 46.386 48.0151 48.158 50.5873 47.3721C53.1739 46.5861 53.9598 44.1282 56.6178 43.5709C59.2758 42.9992 61.5194 43.3994 62.2053 44.5569C62.8912 45.7287 61.5337 49.4727 62.8626 52.8881C64.1916 56.3035 67.5641 54.6172 71.7655 56.6321C75.9668 58.6328 76.7956 58.5899 76.7956 58.5899C76.7956 58.5899 78.7391 58.5185 78.7248 56.6036L78.7391 56.6179Z" fill="white"/>
</g>
<g style="mix-blend-mode:soft-light" opacity="0.7">
<path fill-rule="evenodd" clip-rule="evenodd" d="M135.243 11.9036C135.243 11.9036 129.255 10.8604 127.098 12.0465C124.94 13.2326 123.439 21.1066 123.439 21.1066C123.439 21.1066 121.753 14.9332 123.654 10.5032C125.569 6.05892 135.243 11.9036 135.243 11.9036Z" fill="white"/>
</g>
<g style="mix-blend-mode:soft-light" opacity="0.7">
<path fill-rule="evenodd" clip-rule="evenodd" d="M26.1369 86.0986C26.1369 86.0986 27.4373 76.8242 26.6799 69.2504C25.9225 61.6766 21.8498 58.3898 21.021 57.0894C20.1922 55.789 15.062 50.0157 11.9181 50.3873C8.77424 50.7588 7.77393 56.9036 7.77393 56.9036C7.77393 56.9036 9.21724 50.9732 11.7037 50.9446C14.176 50.916 15.262 53.4597 16.5338 54.5886C17.8057 55.7175 20.6209 56.2463 22.6787 60.2333C24.7222 64.2345 23.7076 72.4943 24.0219 76.3241C24.3363 80.1396 26.1369 86.0986 26.1369 86.0986Z" fill="white"/>
</g>
<g style="mix-blend-mode:soft-light" opacity="0.7">
<path fill-rule="evenodd" clip-rule="evenodd" d="M64.1775 71.3938C64.1775 71.3938 60.2333 62.3052 57.5754 58.1896C54.9174 54.074 46.4861 54.4313 40.77 56.9178C40.77 56.9178 41.8847 58.5469 44.6284 58.704C47.3578 58.8612 51.6306 56.5319 53.7884 56.5605C55.9463 56.5891 55.0174 60.919 56.6322 65.4633C58.247 69.9933 64.1775 71.3938 64.1775 71.3938Z" fill="white"/>
</g>
<g style="mix-blend-mode:soft-light" opacity="0.7">
<path fill-rule="evenodd" clip-rule="evenodd" d="M144.26 56.6037C144.26 56.6037 141.473 52.4024 130.999 54.6031C130.999 54.6031 139.001 57.6755 144.26 56.6037Z" fill="white"/>
</g>
<g style="mix-blend-mode:soft-light" opacity="0.7">
<path fill-rule="evenodd" clip-rule="evenodd" d="M86.7419 101.861C86.7419 101.861 81.0687 91.6717 72.666 92.3433C72.666 92.3433 76.0242 100.989 86.7419 101.861Z" fill="white"/>
</g>
<path fill-rule="evenodd" clip-rule="evenodd" d="M141.659 27.2797C141.659 27.2797 138.858 23.2213 136.172 23.9215C133.5 24.6218 132.856 26.5938 132.856 26.5938C132.856 26.5938 140.473 26.5367 141.645 27.294L141.659 27.2797Z" fill="white"/>
<path fill-rule="evenodd" clip-rule="evenodd" d="M98.7885 2.64372C98.7885 2.64372 94.0584 5.70184 87.2134 2.20073C87.2134 2.20073 93.6583 -0.228616 98.7885 2.64372Z" fill="white"/>
<g style="mix-blend-mode:multiply">
<path fill-rule="evenodd" clip-rule="evenodd" d="M187.888 94.6297C187.888 94.6297 195.948 88.5278 195.376 82.3687L187.888 84.3264V94.6297Z" fill="#BE364C"/>
</g>
<path fill-rule="evenodd" clip-rule="evenodd" d="M91.3005 21.4209C91.3005 21.4209 88.0281 23.2929 85.5416 21.4209C83.0551 19.5346 82.3691 17.9341 82.3691 17.9341C82.3691 17.9341 89.1427 18.277 91.3005 21.4209Z" fill="white"/>
<path fill-rule="evenodd" clip-rule="evenodd" d="M94.4443 40.5983C94.4443 40.5983 84.3126 38.2118 80.0684 39.7266C80.0684 39.7266 81.7832 43.1277 88.1281 43.3277C94.4729 43.5278 94.4443 40.584 94.4443 40.584V40.5983Z" fill="white"/>
<path fill-rule="evenodd" clip-rule="evenodd" d="M53.9886 13.5756C53.9886 13.5756 49.5872 11.2462 38.9409 12.4752C38.9409 12.4752 39.3268 15.2046 43.1137 15.0475C46.9006 14.8903 53.9886 13.5756 53.9886 13.5756Z" fill="white"/>
<path fill-rule="evenodd" clip-rule="evenodd" d="M53.4311 55.5032C53.4311 55.5032 49.344 58.1612 45.7858 58.6328C42.2275 59.1043 40.7842 56.9036 40.7842 56.9036C40.7842 56.9036 46.9861 54.0313 53.4453 55.5032H53.4311Z" fill="white"/>
<path fill-rule="evenodd" clip-rule="evenodd" d="M17.7772 53.5313C17.7772 53.5313 15.7623 49.6444 12.9328 49.7158C10.1033 49.7873 9.37451 52.3738 9.37451 52.3738C9.37451 52.3738 11.3751 51.4021 14.5762 52.4738L17.7772 53.5313Z" fill="white"/>
<g style="mix-blend-mode:multiply">
<path fill-rule="evenodd" clip-rule="evenodd" d="M124.94 124.768C124.94 124.768 124.039 128.041 118.452 131.099C118.452 131.099 116.837 111.407 116.723 109.563L122.61 108.406C122.61 108.406 124.225 120.21 124.94 124.768Z" fill="#5E364C"/>
</g>
<path fill-rule="evenodd" clip-rule="evenodd" d="M194.662 84.7412C193.004 87.5564 188.431 88.2995 188.431 88.2995L188.645 104.176C188.645 104.176 187.588 104.09 185.516 103.904C185.516 103.904 177.07 110.578 166.581 109.921C166.081 109.892 165.581 109.849 165.066 109.778C153.891 108.349 150.047 94.1442 150.047 94.1442L153.691 86.9991C153.691 86.9991 156.592 100.903 166.667 101.847C167.081 101.89 167.467 101.904 167.867 101.904C177.127 102.132 181.915 94.7015 182.215 93.987C182.529 93.2439 182.529 86.7562 183.372 85.1556C184.23 83.5551 190.932 79.4395 194.662 79.2681C194.662 79.2681 196.305 81.9118 194.662 84.7412Z" fill="url(#paint20_linear_3_5553)"/>
<path fill-rule="evenodd" clip-rule="evenodd" d="M204.236 85.4125C204.236 85.4125 203.765 87.4132 203.793 89.228L202.75 89.6996C202.75 89.6996 201.65 91.4573 202.007 94.0153L202.364 94.3582C202.364 94.3582 201.364 95.7587 201.149 98.7596L202.578 99.7314C202.578 99.7314 201.964 101.503 201.792 103.447C201.792 103.447 202.721 104.59 205.551 104.218C205.551 104.218 206.308 103.29 206.823 100.903L206.308 100.646C206.308 100.646 208.009 98.0165 208.395 95.9301L209.109 95.7158C209.109 95.7158 210.267 93.3007 210.681 90.014L210.109 89.7282C210.109 89.7282 211.053 87.4417 211.095 85.3697C211.095 85.3697 208.423 84.4551 204.222 85.4125H204.236Z" fill="url(#paint21_linear_3_5553)"/>
<path fill-rule="evenodd" clip-rule="evenodd" d="M194.662 84.7412C193.004 87.5564 188.631 88.2709 188.631 88.2709V104.176L185.502 103.904C185.502 103.904 177.056 110.578 166.567 109.921C165.438 104.505 167.853 101.904 167.853 101.904C177.113 102.132 181.901 94.7015 182.201 93.987C182.515 93.2439 182.515 86.7562 183.358 85.1556C184.216 83.5551 190.918 79.4395 194.648 79.2681C194.648 79.2681 196.291 81.9118 194.648 84.7412H194.662Z" fill="url(#paint22_linear_3_5553)"/>
<g style="mix-blend-mode:multiply">
<path fill-rule="evenodd" clip-rule="evenodd" d="M155.506 92.3006C155.506 92.3006 153.077 94.0297 153.634 101.861C153.634 101.861 150.79 97.5451 150.047 94.1583L153.691 87.0132C153.691 87.0132 155.049 91.3288 155.506 92.3006Z" fill="#5E364C"/>
</g>
<path fill-rule="evenodd" clip-rule="evenodd" d="M188.631 88.2705L187.888 94.6297L188.631 104.176V88.2705Z" fill="#FF7F85"/>
<path fill-rule="evenodd" clip-rule="evenodd" d="M203.808 89.2281C203.808 89.2281 207.952 89.128 210.138 89.7282L203.822 88.5278V89.2281H203.808Z" fill="#FF7F85"/>
<path fill-rule="evenodd" clip-rule="evenodd" d="M202.021 94.001C202.021 94.001 204.622 95.5157 208.409 95.9159C208.409 95.9159 204.85 95.4729 202.378 94.3439L202.021 94.001Z" fill="#FF7F85"/>
<path fill-rule="evenodd" clip-rule="evenodd" d="M201.164 98.7456C201.164 98.7456 203.136 100.06 206.322 100.632C206.322 100.632 204.693 100.475 202.593 99.7173L201.164 98.7456Z" fill="#FF7F85"/>
<path fill-rule="evenodd" clip-rule="evenodd" d="M144.203 79.0965C144.203 79.7681 143.66 80.3112 142.988 80.3112C142.316 80.3112 141.773 79.7681 141.773 79.0965C141.773 78.4249 142.316 77.8818 142.988 77.8818C143.66 77.8818 144.203 78.4249 144.203 79.0965Z" fill="white"/>
<path fill-rule="evenodd" clip-rule="evenodd" d="M117.537 129.341L115.908 130.984L115.98 133.885C115.98 133.885 105.49 138.215 101.746 137.658C98.0167 137.1 94.3012 134.585 94.3012 134.585C94.3012 134.585 82.0545 136.915 68.9932 128.155C68.3358 127.712 67.6785 127.254 67.064 126.811C55.3317 118.394 49.4298 109.349 45.3571 103.19C43.185 99.9171 42.0846 97.0019 41.9274 94.7583C41.8274 93.658 41.9846 92.7148 42.3562 91.9718C42.7134 91.243 43.3136 90.7142 44.071 90.3998C47.2148 89.1994 52.9452 93.5437 56.2749 98.8882C59.6045 104.233 54.8887 104.533 54.8887 104.533C54.8887 104.533 61.7623 115.565 70.9652 121.281C78.882 126.183 92.2006 125.125 92.2006 125.125C91.3288 123.868 90.5572 121.252 90.5572 121.252C90.5572 121.252 92.2434 117.194 91.9005 116.294C91.5146 115.393 85.084 112.607 85.084 112.607C84.8268 110.506 88.3993 108.577 88.3993 108.577C91.0145 107.791 96.0589 110.863 96.4448 111.664C96.8592 112.45 96.5877 114.422 96.6305 116.351C96.702 118.28 97.4308 120.009 97.4308 120.009C97.4308 120.009 99.8887 120.166 105.405 116.508C112.078 112.078 115.865 105.633 115.865 105.633C119.009 105.447 121.71 109.777 121.71 109.777C116.18 112.507 113.136 117.394 113.136 117.394L115.837 121.724L115.379 123.782L117.566 129.312L117.537 129.341Z" fill="url(#paint23_linear_3_5553)"/>
<path fill-rule="evenodd" clip-rule="evenodd" d="M67.064 126.825C67.6927 127.268 68.3358 127.711 68.9931 128.154C82.0544 136.929 94.3012 134.599 94.3012 134.599C94.3012 134.599 98.0024 137.1 101.746 137.672C105.49 138.229 116.022 135.8 116.022 135.8L115.908 130.984L117.523 129.341L115.336 123.796L115.808 121.738L113.107 117.394C113.107 117.394 116.151 112.507 121.696 109.792C121.696 109.792 118.995 105.447 115.837 105.647C115.837 105.647 110.892 112.378 105.305 115.979C100.189 119.28 99.4171 119.466 99.4171 119.466C99.4171 119.466 97.1021 118.494 97.0449 116.565C96.9878 114.622 96.8163 112.492 96.4161 111.692C96.0303 110.906 90.9858 107.819 88.3707 108.605C88.3707 108.605 84.7839 110.549 85.0554 112.65C85.0554 112.65 91.486 115.422 91.8718 116.322C92.2434 117.222 90.5428 121.295 90.5428 121.295C90.5428 121.295 91.3288 123.91 92.2005 125.168C92.2005 125.168 78.882 126.211 70.9652 121.324C70.9652 121.324 66.9782 122.696 67.0783 126.825C67.0783 126.825 67.0783 126.825 67.0783 126.84L67.064 126.825Z" fill="url(#paint24_linear_3_5553)"/>
<path fill-rule="evenodd" clip-rule="evenodd" d="M92.1862 125.154L92.7292 130.127L89.1138 125.254L92.1862 125.154Z" fill="#FF7F85"/>
<path fill-rule="evenodd" clip-rule="evenodd" d="M113.107 117.408L111.45 119.852L113.922 123.353C113.922 123.353 114.379 126.225 114.536 128.455L114.479 129.369L115.251 135.986L116.037 135.814L115.923 130.998L117.537 129.355L115.437 123.453L115.823 121.767L113.122 117.422L113.107 117.408Z" fill="#FF7F85"/>
<path fill-rule="evenodd" clip-rule="evenodd" d="M75.7095 76.3527C75.7095 76.3527 76.7527 66.8211 90.4427 63.2486C104.919 59.476 113.693 71.8227 113.693 71.8227L110.592 74.2092L110.306 72.1085C110.306 72.1085 104.776 65.5064 92.5148 65.6208C81.3541 65.7208 75.7095 76.3527 75.7095 76.3527Z" fill="#4B3052"/>
<path fill-rule="evenodd" clip-rule="evenodd" d="M128.227 71.408C128.227 71.408 129.77 63.2197 137.973 62.1908C146.118 61.1762 149.076 71.8082 149.076 71.8082L147.004 73.8659L146.961 73.2372C146.961 73.2372 144.803 64.12 137.572 64.3201C131.456 64.4915 128.227 71.408 128.227 71.408Z" fill="#4B3052"/>
<path fill-rule="evenodd" clip-rule="evenodd" d="M103.676 84.3264C103.676 85.4125 102.804 86.2842 101.718 86.2842C100.632 86.2842 99.7603 85.4125 99.7603 84.3264C99.7603 83.2404 100.632 82.3687 101.718 82.3687C102.804 82.3687 103.676 83.2404 103.676 84.3264Z" fill="white"/>
<g style="mix-blend-mode:multiply">
<path fill-rule="evenodd" clip-rule="evenodd" d="M54.8744 104.562C54.8744 104.562 50.6588 95.116 41.9274 94.773C41.8274 93.6726 41.9846 92.7295 42.3562 91.9864C42.7134 91.2576 43.3136 90.7289 44.071 90.4145C47.2148 89.2141 52.9452 93.5583 56.2749 98.9029C59.6045 104.247 54.8887 104.548 54.8887 104.548L54.8744 104.562Z" fill="#5E364C"/>
</g>
<path fill-rule="evenodd" clip-rule="evenodd" d="M179.328 49.6584V43.7137L166.267 33.439V39.3837L179.328 49.6584Z" fill="url(#paint25_linear_3_5553)"/>
<g style="mix-blend-mode:soft-light" opacity="0.7">
<path fill-rule="evenodd" clip-rule="evenodd" d="M232.803 48.2008C226.501 50.13 219.012 51.3447 212.353 49.5441C213.325 46.6289 213.968 43.5422 214.182 40.3269C214.997 28.1087 205.179 23.3501 195.305 25.6937C193.376 17.6769 192.49 9.13129 192.061 2.78642C196.362 1.65749 201.321 1.51458 206.994 2.90074C227.158 7.80229 237.661 28.0659 232.817 48.1865L232.803 48.2008Z" fill="white"/>
</g>
<path fill-rule="evenodd" clip-rule="evenodd" d="M202.335 2.10072C202.335 2.10072 202.307 6.10199 205.208 7.85969C208.109 9.61739 212.996 4.94448 212.996 4.94448C212.996 4.94448 207.666 2.54371 202.335 2.08643V2.10072Z" fill="white"/>
<path style="mix-blend-mode:multiply" opacity="0.5" fill-rule="evenodd" clip-rule="evenodd" d="M124.482 92.6579C124.482 92.6579 125.083 100.718 128.769 100.946C132.456 101.189 131.942 90.4429 131.942 90.4429L124.482 92.6579Z" fill="url(#paint26_linear_3_5553)"/>
<path fill-rule="evenodd" clip-rule="evenodd" d="M131.942 92.658C131.942 95.7875 130.27 98.3169 128.212 98.3169C126.154 98.3169 124.482 95.7875 124.482 92.658C124.482 89.5284 126.154 86.999 128.212 86.999C130.27 86.999 131.942 89.5284 131.942 92.658Z" fill="url(#paint27_linear_3_5553)"/>
<g style="mix-blend-mode:soft-light" opacity="0.7">
<path fill-rule="evenodd" clip-rule="evenodd" d="M129.413 99.06C129.413 99.06 130.413 97.0308 131.185 97.0594C131.185 97.0594 131.399 98.8028 129.413 99.06Z" fill="white"/>
</g>
<path fill-rule="evenodd" clip-rule="evenodd" d="M185.273 112.564L184.63 124.068H206.194L205.594 112.564H185.273Z" fill="url(#paint28_linear_3_5553)"/>
<path fill-rule="evenodd" clip-rule="evenodd" d="M184.63 124.068L186.745 128.226H204.736L206.194 124.068H184.63Z" fill="url(#paint29_linear_3_5553)"/>
<g style="mix-blend-mode:multiply">
<path fill-rule="evenodd" clip-rule="evenodd" d="M216.44 73.8664L220.213 76.2957C220.213 76.2957 226.629 69.7079 229.015 64.2347L227.372 61.1909C227.372 61.1909 223.657 68.5504 216.426 73.8664H216.44Z" fill="#BE368C"/>
</g>
<g style="mix-blend-mode:soft-light" opacity="0.7">
<path fill-rule="evenodd" clip-rule="evenodd" d="M187.888 112.564C187.888 112.564 195.233 121.295 206.023 121.024L205.58 112.564H187.888Z" fill="white"/>
</g>
</g>
<defs>
<linearGradient id="paint0_linear_3_5553" x1="191.589" y1="47.6578" x2="185.959" y2="13.3469" gradientUnits="userSpaceOnUse">
<stop stop-color="#800043"/>
<stop offset="1" stop-color="#731653"/>
</linearGradient>
<linearGradient id="paint1_linear_3_5553" x1="211.953" y1="107.091" x2="195.191" y2="4.9873" gradientUnits="userSpaceOnUse">
<stop stop-color="#800043"/>
<stop offset="1" stop-color="#C41653"/>
</linearGradient>
<linearGradient id="paint2_linear_3_5553" x1="211.353" y1="102.818" x2="194.848" y2="2.2291" gradientUnits="userSpaceOnUse">
<stop stop-color="#D01A43"/>
<stop offset="1" stop-color="#FF2E56"/>
</linearGradient>
<linearGradient id="paint3_linear_3_5553" x1="134.099" y1="175.384" x2="134.099" y2="107.677" gradientUnits="userSpaceOnUse">
<stop stop-color="#684A72"/>
<stop offset="0.99" stop-color="#46255E"/>
</linearGradient>
<linearGradient id="paint4_linear_3_5553" x1="135.557" y1="175.384" x2="135.557" y2="138.129" gradientUnits="userSpaceOnUse">
<stop offset="0.02" stop-color="#FFA892"/>
<stop offset="1" stop-color="#FFCEA8"/>
</linearGradient>
<linearGradient id="paint5_linear_3_5553" x1="123.653" y1="174.812" x2="151.619" y2="174.812" gradientUnits="userSpaceOnUse">
<stop stop-color="#9A1A43"/>
<stop offset="1" stop-color="#731653"/>
</linearGradient>
<linearGradient id="paint6_linear_3_5553" x1="83.2037" y1="121.399" x2="76.9157" y2="0.844955" gradientUnits="userSpaceOnUse">
<stop offset="0.02" stop-color="#FF9F9A"/>
<stop offset="1" stop-color="#FFB2B8"/>
</linearGradient>
<linearGradient id="paint7_linear_3_5553" x1="96.8646" y1="55.4244" x2="91.8843" y2="25.0777" gradientUnits="userSpaceOnUse">
<stop offset="0.02" stop-color="#DF8792"/>
<stop offset="0.34" stop-color="#ECB9BF"/>
<stop offset="0.62" stop-color="#F6DFE2"/>
<stop offset="0.86" stop-color="#FCF6F7"/>
<stop offset="1" stop-color="white"/>
</linearGradient>
<linearGradient id="paint8_linear_3_5553" x1="138.419" y1="52.5582" x2="133.969" y2="25.4408" gradientUnits="userSpaceOnUse">
<stop offset="0.02" stop-color="#DF8792"/>
<stop offset="0.34" stop-color="#ECB9BF"/>
<stop offset="0.62" stop-color="#F6DFE2"/>
<stop offset="0.86" stop-color="#FCF6F7"/>
<stop offset="1" stop-color="white"/>
</linearGradient>
<linearGradient id="paint9_linear_3_5553" x1="137.331" y1="40.6304" x2="135.769" y2="31.1118" gradientUnits="userSpaceOnUse">
<stop offset="0.02" stop-color="#DF8792"/>
<stop offset="0.34" stop-color="#ECB9BF"/>
<stop offset="0.62" stop-color="#F6DFE2"/>
<stop offset="0.86" stop-color="#FCF6F7"/>
<stop offset="1" stop-color="white"/>
</linearGradient>
<linearGradient id="paint10_linear_3_5553" x1="43.1453" y1="45.8489" x2="39.7248" y2="25.0067" gradientUnits="userSpaceOnUse">
<stop offset="0.02" stop-color="#DF8792"/>
<stop offset="0.34" stop-color="#ECB9BF"/>
<stop offset="0.62" stop-color="#F6DFE2"/>
<stop offset="0.86" stop-color="#FCF6F7"/>
<stop offset="1" stop-color="white"/>
</linearGradient>
<linearGradient id="paint11_linear_3_5553" x1="101.186" y1="13.1099" x2="98.6313" y2="-2.45826" gradientUnits="userSpaceOnUse">
<stop offset="0.02" stop-color="#DF8792"/>
<stop offset="0.34" stop-color="#ECB9BF"/>
<stop offset="0.62" stop-color="#F6DFE2"/>
<stop offset="0.86" stop-color="#FCF6F7"/>
<stop offset="1" stop-color="white"/>
</linearGradient>
<linearGradient id="paint12_linear_3_5553" x1="95.6033" y1="37.2398" x2="93.8792" y2="26.7341" gradientUnits="userSpaceOnUse">
<stop offset="0.02" stop-color="#DF8792"/>
<stop offset="0.34" stop-color="#ECB9BF"/>
<stop offset="0.62" stop-color="#F6DFE2"/>
<stop offset="0.86" stop-color="#FCF6F7"/>
<stop offset="1" stop-color="white"/>
</linearGradient>
<linearGradient id="paint13_linear_3_5553" x1="90.5956" y1="119.057" x2="80.5817" y2="58.0389" gradientUnits="userSpaceOnUse">
<stop offset="0.02" stop-color="#DF8792"/>
<stop offset="1" stop-color="#FFD0C6"/>
</linearGradient>
<linearGradient id="paint14_linear_3_5553" x1="96.4319" y1="96.1158" x2="91.2433" y2="64.5" gradientUnits="userSpaceOnUse">
<stop stop-color="white"/>
<stop offset="0.98" stop-color="#FAC8CD"/>
</linearGradient>
<linearGradient id="paint15_linear_3_5553" x1="140.008" y1="88.2691" x2="136.12" y2="64.5784" gradientUnits="userSpaceOnUse">
<stop stop-color="white"/>
<stop offset="0.98" stop-color="#FAC8CD"/>
</linearGradient>
<linearGradient id="paint16_linear_3_5553" x1="91.1278" y1="105.443" x2="19.1814" y2="117.251" gradientUnits="userSpaceOnUse">
<stop stop-color="#B44263"/>
<stop offset="0.98" stop-color="#EF5666"/>
</linearGradient>
<linearGradient id="paint17_linear_3_5553" x1="61.4195" y1="178.185" x2="61.4195" y2="114.407" gradientUnits="userSpaceOnUse">
<stop stop-color="#684A72"/>
<stop offset="0.99" stop-color="#46255E"/>
</linearGradient>
<linearGradient id="paint18_linear_3_5553" x1="59.9334" y1="178.185" x2="59.9334" y2="137.6" gradientUnits="userSpaceOnUse">
<stop offset="0.02" stop-color="#FFA892"/>
<stop offset="1" stop-color="#FFCEA8"/>
</linearGradient>
<linearGradient id="paint19_linear_3_5553" x1="74.0664" y1="177.899" x2="45.8003" y2="177.899" gradientUnits="userSpaceOnUse">
<stop stop-color="#9A1A43"/>
<stop offset="1" stop-color="#731653"/>
</linearGradient>
<linearGradient id="paint20_linear_3_5553" x1="172.712" y1="109.978" x2="172.712" y2="79.2824" gradientUnits="userSpaceOnUse">
<stop stop-color="#684A72"/>
<stop offset="0.99" stop-color="#46255E"/>
</linearGradient>
<linearGradient id="paint21_linear_3_5553" x1="203.283" y1="104.18" x2="208.68" y2="84.6931" gradientUnits="userSpaceOnUse">
<stop offset="0.02" stop-color="#FFA892"/>
<stop offset="1" stop-color="#FFCEA8"/>
</linearGradient>
<linearGradient id="paint22_linear_3_5553" x1="180.829" y1="109.978" x2="180.829" y2="79.2824" gradientUnits="userSpaceOnUse">
<stop offset="0.02" stop-color="#FFA892"/>
<stop offset="1" stop-color="#FFCEA8"/>
</linearGradient>
<linearGradient id="paint23_linear_3_5553" x1="81.7973" y1="137.715" x2="81.7973" y2="90.2283" gradientUnits="userSpaceOnUse">
<stop stop-color="#684A72"/>
<stop offset="0.99" stop-color="#46255E"/>
</linearGradient>
<linearGradient id="paint24_linear_3_5553" x1="120.999" y1="122.39" x2="67.5329" y2="119.263" gradientUnits="userSpaceOnUse">
<stop offset="0.02" stop-color="#FFA892"/>
<stop offset="1" stop-color="#FFCEA8"/>
</linearGradient>
<linearGradient id="paint25_linear_3_5553" x1="174.255" y1="50.5015" x2="171.326" y2="32.5958" gradientUnits="userSpaceOnUse">
<stop stop-color="#800043"/>
<stop offset="1" stop-color="#A71653"/>
</linearGradient>
<linearGradient id="paint26_linear_3_5553" x1="126.483" y1="100.375" x2="129.47" y2="89.7569" gradientUnits="userSpaceOnUse">
<stop offset="0.02" stop-color="#DF8792"/>
<stop offset="1" stop-color="#FFD0C6"/>
</linearGradient>
<linearGradient id="paint27_linear_3_5553" x1="128.212" y1="98.3169" x2="128.212" y2="86.999" gradientUnits="userSpaceOnUse">
<stop stop-color="#9A1A43"/>
<stop offset="1" stop-color="#731653"/>
</linearGradient>
<linearGradient id="paint28_linear_3_5553" x1="196.319" y1="125.697" x2="193.933" y2="111.135" gradientUnits="userSpaceOnUse">
<stop stop-color="#D01A43"/>
<stop offset="1" stop-color="#FF2E56"/>
</linearGradient>
<linearGradient id="paint29_linear_3_5553" x1="196.319" y1="129.612" x2="195.119" y2="122.353" gradientUnits="userSpaceOnUse">
<stop stop-color="#800043"/>
<stop offset="1" stop-color="#A71653"/>
</linearGradient>
<clipPath id="clip0_3_5553">
<rect width="235.089" height="180" fill="white"/>
</clipPath>
</defs>
</svg>
