<svg width="30" height="30" viewBox="0 0 30 30" fill="none" xmlns="http://www.w3.org/2000/svg">
<g clip-path="url(#clip0_3_28560)">
<path style="mix-blend-mode:screen" opacity="0.75" d="M11.2039 26.5067C19.2327 26.5067 25.7413 20.0133 25.7413 12.0033C25.7413 3.99319 19.2327 -2.50024 11.2039 -2.50024C3.17511 -2.50024 -3.3335 3.99319 -3.3335 12.0033C-3.3335 20.0133 3.17511 26.5067 11.2039 26.5067Z" fill="url(#paint0_radial_3_28560)"/>
<path fill-rule="evenodd" clip-rule="evenodd" d="M2.37232 13.2618C1.81158 10.059 3.1784 6.42965 6.4798 5.38769C9.91438 4.30377 13.0476 6.17091 14.4564 7.96811C15.8653 6.16391 18.9985 4.30377 22.4331 5.38769C25.7345 6.42965 27.1013 10.059 26.5406 13.2618C25.6504 18.3527 20.127 23.3807 15.2695 25.3038C14.7228 25.5206 14.1971 25.5136 13.6504 25.3038C8.83494 23.4296 3.26952 18.3527 2.37933 13.2618H2.37232Z" fill="url(#paint1_radial_3_28560)"/>
<path style="mix-blend-mode:multiply" opacity="0.75" fill-rule="evenodd" clip-rule="evenodd" d="M15.3746 7.01023C18.2134 4.89835 21.8723 6.40184 23.5265 8.80744C24.7531 10.5976 25.1877 13.1221 24.3676 15.8004C23.141 19.7795 17.7718 23.6886 14.4564 23.8844C11.919 24.0312 9.01712 22.3529 6.21338 20.1501C8.37226 22.4438 11.1129 24.3109 13.6433 25.2969C14.19 25.5067 14.7157 25.5137 15.2624 25.2969C20.1269 23.3739 25.6433 18.3459 26.5335 13.255C27.0942 10.0522 25.7274 6.42282 22.426 5.38086C19.6152 4.49275 16.9938 5.58366 15.3676 7.00324L15.3746 7.01023Z" fill="url(#paint2_radial_3_28560)"/>
<path style="mix-blend-mode:multiply" opacity="0.75" fill-rule="evenodd" clip-rule="evenodd" d="M12.641 10.4998C12.7952 10.2411 13.8466 8.6187 14.4564 7.96835C13.0475 6.16416 9.91434 4.30402 6.47976 5.38793C4.74845 5.93339 3.54985 7.19213 2.87695 8.73059C5.30219 4.318 12.5358 5.8215 12.3185 9.60472C12.3045 9.83549 12.2975 10.0732 12.2484 10.297C12.1994 10.5558 12.1854 10.7026 12.2835 10.7376C12.3816 10.7795 12.5218 10.6956 12.634 10.4998H12.641Z" fill="url(#paint3_radial_3_28560)"/>
<path style="mix-blend-mode:screen" fill-rule="evenodd" clip-rule="evenodd" d="M16.5454 22.7514C18.7604 21.9402 21.0174 20.4437 22.5244 18.3948C23.6179 16.9122 23.9052 16.0661 21.9076 17.6745C19.945 19.2479 18.1436 20.3318 16.209 21.4997C13.6996 23.0101 13.5244 23.8563 16.5524 22.7514H16.5454Z" fill="url(#paint4_radial_3_28560)"/>
<path style="mix-blend-mode:screen" fill-rule="evenodd" clip-rule="evenodd" d="M18.2696 6.13614C17.2602 6.12216 16.4121 6.39488 15.7252 6.89838C13.5102 8.50677 12.2766 11.0662 12.0032 13.7445C11.849 15.2201 11.9261 16.8564 12.7532 17.0592C13.0757 17.1361 13.4822 16.7865 14.0149 16.1431C15.2485 14.6606 16.0757 13.3529 17.4004 12.1781C19.5313 10.297 20.5336 10.1292 22.0686 10.2271C23.0359 10.29 23.3584 10.3739 23.5476 10.1222C23.7509 9.86342 23.7299 9.33894 23.12 8.51377C22.1037 7.12915 20.071 6.15712 18.2696 6.12915V6.13614Z" fill="url(#paint5_radial_3_28560)"/>
<path style="mix-blend-mode:screen" fill-rule="evenodd" clip-rule="evenodd" d="M16.6505 6.51372C14.5267 7.3319 12.6061 10.6046 12.3959 12.5836C12.3398 13.1431 12.466 13.5277 12.6272 13.5487C12.8935 13.5836 13.23 13.185 13.6085 12.6326C13.9519 12.1221 14.5547 11.3039 15.0454 10.7795C16.6295 9.08715 17.6388 8.60463 19.8678 8.19204C20.73 8.0312 21.1435 7.87036 21.1716 7.55568C21.1996 7.22001 20.7931 6.7305 20.015 6.47176C19.0617 6.15008 17.6949 6.12211 16.6505 6.52071V6.51372Z" fill="url(#paint6_radial_3_28560)"/>
<path style="mix-blend-mode:screen" fill-rule="evenodd" clip-rule="evenodd" d="M17.6738 6.73056C16.3841 6.9893 15.2345 7.76552 14.5266 8.93335C14.3584 9.20608 14.3163 9.47881 14.4144 9.5907C14.5056 9.69559 14.7158 9.65363 15.0313 9.4858C15.4869 9.24804 16.1948 8.82147 16.8537 8.49279C17.4215 8.20608 17.9472 8.01028 18.2275 7.93335C19.4962 7.5907 19.5663 6.35293 17.6808 6.73056H17.6738Z" fill="url(#paint7_radial_3_28560)"/>
<path style="mix-blend-mode:screen" fill-rule="evenodd" clip-rule="evenodd" d="M3.55706 7.87032C1.45425 10.2409 2.56874 14.157 3.12248 15.3109C3.38182 15.8493 3.63416 16.4018 3.89351 16.8633C4.25098 17.4997 5.28136 18.6745 5.26033 17.2969C5.26033 17.0032 5.23229 16.6256 5.24631 16.227C5.40051 12.8773 6.24164 10.199 10.6856 10.5207C11.5968 10.5836 12.0944 10.8284 12.2136 9.68151C12.2627 9.21997 12.1996 8.63256 11.8631 8.12906C10.0477 5.41577 5.63182 5.52067 3.55005 7.87731L3.55706 7.87032Z" fill="url(#paint8_radial_3_28560)"/>
<path style="mix-blend-mode:screen" fill-rule="evenodd" clip-rule="evenodd" d="M5.51971 6.68862C3.35382 7.59771 2.24635 10.0453 2.57579 12.3949C2.65289 12.9613 2.85616 13.353 3.02438 13.3669C3.30476 13.4019 3.55709 12.9963 3.80943 12.4369C4.04775 11.9194 4.34915 11.269 4.73466 10.7376C5.9613 9.01729 6.8585 8.61869 8.72999 8.1152C9.76036 7.83547 10.0057 7.72359 10.0197 7.47184C10.0898 6.32499 7.32111 5.93338 5.51971 6.68862Z" fill="url(#paint9_radial_3_28560)"/>
<path style="mix-blend-mode:screen" fill-rule="evenodd" clip-rule="evenodd" d="M6.68326 6.59068C5.32345 6.87739 4.237 7.73053 3.72532 9.01025C3.60616 9.31095 3.62018 9.61165 3.75335 9.73753C3.87952 9.85641 4.10382 9.80047 4.40522 9.62564C4.84681 9.35991 5.53373 8.89137 6.17859 8.52774C6.73934 8.21305 7.27205 7.99627 7.55943 7.91235C8.87719 7.53473 8.66691 6.17809 6.68326 6.59068ZM2.77906 11.0662C2.68093 11.6047 2.97532 12.6886 3.46597 11.9963C3.64821 11.7375 3.7884 11.4368 3.90756 11.1361C3.99868 10.8914 3.94261 10.4648 3.68326 10.297C3.12251 9.93333 2.84915 10.6886 2.78606 11.0662H2.77906Z" fill="url(#paint10_radial_3_28560)"/>
<path style="mix-blend-mode:screen" opacity="0.75" d="M6.73873 15.9822C10.6292 15.9822 13.7831 12.8357 13.7831 8.95424C13.7831 5.0728 10.6292 1.92627 6.73873 1.92627C2.84822 1.92627 -0.305664 5.0728 -0.305664 8.95424C-0.305664 12.8357 2.84822 15.9822 6.73873 15.9822Z" fill="url(#paint11_radial_3_28560)"/>
</g>
<defs>
<radialGradient id="paint0_radial_3_28560" cx="0" cy="0" r="1" gradientUnits="userSpaceOnUse" gradientTransform="translate(11.2039 12.0033) scale(14.5374 14.5035)">
<stop stop-color="#FF3F36"/>
<stop offset="0.13" stop-color="#CD322B"/>
<stop offset="0.31" stop-color="#8F231E"/>
<stop offset="0.48" stop-color="#5C1613"/>
<stop offset="0.64" stop-color="#340C0B"/>
<stop offset="0.78" stop-color="#170505"/>
<stop offset="0.91" stop-color="#060101"/>
<stop offset="1"/>
</radialGradient>
<radialGradient id="paint1_radial_3_28560" cx="0" cy="0" r="1" gradientUnits="userSpaceOnUse" gradientTransform="translate(8.22513 9.56252) scale(21.7009 21.6503)">
<stop stop-color="#FF2B2F"/>
<stop offset="0.08" stop-color="#F02629"/>
<stop offset="0.38" stop-color="#BD1517"/>
<stop offset="0.65" stop-color="#98090A"/>
<stop offset="0.86" stop-color="#820202"/>
<stop offset="1" stop-color="#7A0000"/>
</radialGradient>
<radialGradient id="paint2_radial_3_28560" cx="0" cy="0" r="1" gradientUnits="userSpaceOnUse" gradientTransform="translate(9.87226 12.5697) scale(19.0304 18.986)">
<stop offset="0.59" stop-color="white"/>
<stop offset="0.67" stop-color="#EDCECE"/>
<stop offset="0.86" stop-color="#C25757"/>
<stop offset="1" stop-color="#A30000"/>
</radialGradient>
<radialGradient id="paint3_radial_3_28560" cx="0" cy="0" r="1" gradientUnits="userSpaceOnUse" gradientTransform="translate(5.55452 10.7865) scale(9.46963 9.44755)">
<stop offset="0.41" stop-color="white"/>
<stop offset="0.5" stop-color="#EDCECE"/>
<stop offset="0.64" stop-color="#D38686"/>
<stop offset="0.76" stop-color="#BE4C4C"/>
<stop offset="0.87" stop-color="#AF2222"/>
<stop offset="0.95" stop-color="#A60909"/>
<stop offset="1" stop-color="#A30000"/>
</radialGradient>
<radialGradient id="paint4_radial_3_28560" cx="0" cy="0" r="1" gradientUnits="userSpaceOnUse" gradientTransform="translate(11.4637 9.84931) scale(18.5397 18.4965)">
<stop stop-color="#FF6969"/>
<stop offset="1"/>
</radialGradient>
<radialGradient id="paint5_radial_3_28560" cx="0" cy="0" r="1" gradientUnits="userSpaceOnUse" gradientTransform="translate(16.6154 16.6956) scale(19.3808 19.3357)">
<stop/>
<stop offset="0.1" stop-color="#120707"/>
<stop offset="0.31" stop-color="#411A1A"/>
<stop offset="0.6" stop-color="#8D3838"/>
<stop offset="0.96" stop-color="#F46161"/>
<stop offset="1" stop-color="#FF6666"/>
</radialGradient>
<radialGradient id="paint6_radial_3_28560" cx="0" cy="0" r="1" gradientUnits="userSpaceOnUse" gradientTransform="translate(16.6435 12.1151) scale(13.7173 13.6853)">
<stop/>
<stop offset="1" stop-color="#FF6666"/>
</radialGradient>
<radialGradient id="paint7_radial_3_28560" cx="0" cy="0" r="1" gradientUnits="userSpaceOnUse" gradientTransform="translate(18.8093 12.3389) scale(7.28271 7.26574)">
<stop/>
<stop offset="1" stop-color="#FFADAD"/>
</radialGradient>
<radialGradient id="paint8_radial_3_28560" cx="0" cy="0" r="1" gradientUnits="userSpaceOnUse" gradientTransform="translate(6.75332 16.3458) scale(14.8949 14.8601)">
<stop/>
<stop offset="0.1" stop-color="#120707"/>
<stop offset="0.31" stop-color="#411A1A"/>
<stop offset="0.6" stop-color="#8D3838"/>
<stop offset="0.96" stop-color="#F46161"/>
<stop offset="1" stop-color="#FF6666"/>
</radialGradient>
<radialGradient id="paint9_radial_3_28560" cx="0" cy="0" r="1" gradientUnits="userSpaceOnUse" gradientTransform="translate(7.05476 11.4509) scale(10.4299 10.4056)">
<stop/>
<stop offset="1" stop-color="#FF6666"/>
</radialGradient>
<radialGradient id="paint10_radial_3_28560" cx="0" cy="0" r="1" gradientUnits="userSpaceOnUse" gradientTransform="translate(9.16457 13.9333) scale(9.63084 9.60839)">
<stop/>
<stop offset="1" stop-color="#FFADAD"/>
</radialGradient>
<radialGradient id="paint11_radial_3_28560" cx="0" cy="0" r="1" gradientUnits="userSpaceOnUse" gradientTransform="translate(6.73873 8.95424) scale(7.04439 7.02797)">
<stop stop-color="#FF3F36"/>
<stop offset="0.13" stop-color="#CD322B"/>
<stop offset="0.31" stop-color="#8F231E"/>
<stop offset="0.48" stop-color="#5C1613"/>
<stop offset="0.64" stop-color="#340C0B"/>
<stop offset="0.78" stop-color="#170505"/>
<stop offset="0.91" stop-color="#060101"/>
<stop offset="1"/>
</radialGradient>
<clipPath id="clip0_3_28560">
<rect width="30" height="29" fill="white" transform="translate(0 0.499756)"/>
</clipPath>
</defs>
</svg>
