<svg width="236" height="180" viewBox="0 0 236 180" fill="none" xmlns="http://www.w3.org/2000/svg">
<g clip-path="url(#clip0_3_5400)">
<path fill-rule="evenodd" clip-rule="evenodd" d="M69.4354 163.598C71.136 168.801 72.7484 175.981 72.7484 175.981C60.3655 179.13 47.8062 178.148 47.8062 178.148C48.1715 174.91 50.5019 173.109 50.5019 173.109C54.8101 171.673 61.537 165.752 61.7134 163.686C61.9653 160.676 49.4816 141.541 65.3287 131.602C66.4751 130.884 70.2794 129.838 71.728 129.221L76.3386 130.745C74.1971 131.942 72.4209 133.214 70.9596 134.524C59.0806 145.169 67.8859 158.799 69.4354 163.611V163.598Z" fill="url(#paint0_linear_3_5400)"/>
<path fill-rule="evenodd" clip-rule="evenodd" d="M72.7611 175.981C60.3782 179.13 47.8188 178.135 47.8188 178.135C48.1716 174.91 50.5146 173.109 50.5146 173.109C54.8228 171.673 61.5497 165.752 61.7261 163.686C61.8898 161.835 58.4634 157.337 57.4304 148.381C57.4304 148.381 62.3055 149.25 64.9131 149.074C65.8579 155.586 68.7174 161.343 69.4481 163.598C71.1487 168.801 72.7611 175.981 72.7611 175.981Z" fill="url(#paint1_linear_3_5400)"/>
<path fill-rule="evenodd" clip-rule="evenodd" d="M72.7611 175.981V178.286C72.7611 178.286 61.8646 181.436 47.8188 179.218V178.148C47.8188 178.148 60.9954 178.954 72.7611 175.994V175.981Z" fill="url(#paint2_linear_3_5400)"/>
<g style="mix-blend-mode:soft-light" opacity="0.7">
<path fill-rule="evenodd" clip-rule="evenodd" d="M50.502 173.096C50.502 173.096 59.4081 172.945 65.3287 168.499L61.7134 163.674C61.7134 163.674 59.131 169.443 50.502 173.096Z" fill="white"/>
</g>
<g style="mix-blend-mode:multiply">
<path fill-rule="evenodd" clip-rule="evenodd" d="M76.3513 130.732C74.2098 131.929 72.4336 133.201 70.9724 134.511C70.2417 132.307 66.8027 130.934 66.8027 130.934C67.9491 130.216 69.3851 129.208 71.7408 129.208L76.3513 130.732Z" fill="#5E364C"/>
</g>
<path fill-rule="evenodd" clip-rule="evenodd" d="M35.0453 59.7859C34.3903 61.9778 33.181 63.7539 31.4552 64.9381C30.6238 65.5049 29.7042 65.9081 28.709 66.1348C28.4949 66.1978 28.2807 66.2482 28.054 66.2734C21.5665 67.4197 12.5973 62.1415 6.28616 52.8826C-1.22171 41.9106 -2.1287 29.452 4.24543 25.0934C4.57296 24.8793 4.90048 24.6903 5.2532 24.514C8.18832 23.0653 11.9297 23.355 15.8222 25.0934C20.5587 27.1846 25.4967 31.392 29.4018 37.1363C30.271 38.396 31.0395 39.6809 31.7197 40.9658C35.3981 47.8438 36.557 54.8478 35.0453 59.7859Z" fill="url(#paint3_linear_3_5400)"/>
<path fill-rule="evenodd" clip-rule="evenodd" d="M4.47217 24.9926C4.47217 24.9926 10.607 21.1253 15.1293 20.7852L39.9708 57.2538C39.9708 57.2538 35.7004 62.9099 30.8253 65.3789L4.47217 24.9926Z" fill="url(#paint4_linear_3_5400)"/>
<path d="M38.3733 58.7447C44.1824 54.7789 43.2379 43.2822 36.2636 33.0659C29.2893 22.8496 18.9262 17.7824 13.117 21.7482C7.30789 25.7139 8.25243 37.2107 15.2268 47.427C22.2011 57.6433 32.5641 62.7104 38.3733 58.7447Z" fill="url(#paint5_linear_3_5400)"/>
<g style="mix-blend-mode:soft-light" opacity="0.7">
<path fill-rule="evenodd" clip-rule="evenodd" d="M0.302657 38.3078L9.39777 32.3872C9.39777 32.3872 8.51597 27.4239 11.5645 23.1787L1.67574 27.9026C1.67574 27.9026 -0.831083 32.0219 0.302657 38.3078Z" fill="white"/>
</g>
<path fill-rule="evenodd" clip-rule="evenodd" d="M9.32193 29.5148C9.32193 29.5148 10.821 25.7483 10.7706 24.4634C10.7706 24.4634 8.22598 26.5671 9.32193 29.5148Z" fill="white"/>
<g style="mix-blend-mode:soft-light" opacity="0.7">
<path fill-rule="evenodd" clip-rule="evenodd" d="M22.6371 65.9459L30.0442 59.5088C30.0442 59.5088 32.3873 60.3906 35.2216 59.9623L28.6963 66.1601C28.6963 66.1601 25.2573 66.8151 22.6245 65.9459H22.6371Z" fill="white"/>
</g>
<path fill-rule="evenodd" clip-rule="evenodd" d="M43.9009 62.9983C42.7042 64.5477 41.2177 65.7445 39.4793 66.5255C36.2293 67.9616 32.5131 67.7348 28.7214 66.1476C28.0412 65.8578 27.3357 65.5303 26.6429 65.1524C20.2184 61.6378 13.8442 54.3819 9.62421 44.8963C6.47493 37.8041 5.05146 30.6489 5.26561 24.5142C5.50495 16.7292 8.3519 10.5692 13.5671 8.2513C15.6834 7.31912 18.0013 7.07977 20.4073 7.47028C28.4191 8.78038 37.4134 16.9811 42.9813 28.9106C43.1325 29.2255 43.2837 29.553 43.4222 29.8679C49.2421 42.9563 49.1539 56.2589 43.9009 62.9857V62.9983Z" fill="url(#paint6_linear_3_5400)"/>
<path fill-rule="evenodd" clip-rule="evenodd" d="M13.8818 8.17532C13.8818 8.17532 21.6417 4.10646 26.4789 4.45918L48.8388 62.1035C48.8388 62.1035 45.4754 64.8749 38.547 66.9282L13.8818 8.17532Z" fill="url(#paint7_linear_3_5400)"/>
<path fill-rule="evenodd" clip-rule="evenodd" d="M48.839 62.1037C47.2895 62.7839 45.6267 63.0737 43.9009 62.9981C41.0666 62.8721 38.0307 61.7384 35.0578 59.7858C32.9666 58.4379 30.9133 56.6743 28.9356 54.5706C25.5343 50.9301 22.4481 46.2691 20.042 40.8776C17.636 35.4734 16.2503 30.0441 15.822 25.0808C15.1795 17.5477 16.7668 11.0728 20.4073 7.45745C21.3269 6.52526 22.3851 5.78203 23.5818 5.25296C32.5005 1.28487 45.4 10.7957 52.3788 26.4917C52.4544 26.6428 52.5173 26.8192 52.5803 26.9704C59.3072 42.5152 57.6822 58.1608 48.839 62.0911V62.1037Z" fill="url(#paint8_linear_3_5400)"/>
<g style="mix-blend-mode:soft-light" opacity="0.7">
<path fill-rule="evenodd" clip-rule="evenodd" d="M5.30322 23.3047L15.8218 18.8706C15.8218 18.8706 15.8596 11.8792 21.0874 6.84033L9.27131 11.6146C9.27131 11.6146 5.78191 14.8899 5.30322 23.3047Z" fill="white"/>
</g>
<path fill-rule="evenodd" clip-rule="evenodd" d="M16.4519 14.9275C16.4519 14.9275 19.45 10.1532 19.6894 8.38965C19.6894 8.38965 15.6835 10.6319 16.4519 14.9275Z" fill="white"/>
<g style="mix-blend-mode:soft-light" opacity="0.7">
<path fill-rule="evenodd" clip-rule="evenodd" d="M28.2427 65.9456L37.2874 61.0957C37.2874 61.0957 40.2729 62.8845 44.2536 63.0105L34.1129 67.4572C34.1129 67.4572 31.6187 67.7848 28.2553 65.933L28.2427 65.9456Z" fill="white"/>
</g>
<g style="mix-blend-mode:multiply" opacity="0.5">
<path fill-rule="evenodd" clip-rule="evenodd" d="M48.839 62.1036C47.2895 62.7839 45.6267 63.0736 43.9009 62.998C42.7042 64.5475 41.2177 65.7442 39.4793 66.5252C36.2293 67.9613 32.5131 67.7345 28.7214 66.1473C28.5072 66.2103 28.2931 66.2607 28.0663 66.2859L26.6429 65.1395L22.2339 61.5872L28.9355 54.5706L31.7195 40.9657L33.8232 30.7368L42.9687 28.9103L52.5677 26.9829C59.2946 42.5277 57.6695 58.1733 48.8264 62.1036H48.839Z" fill="#92364C"/>
</g>
<path fill-rule="evenodd" clip-rule="evenodd" d="M196.78 31.3537L195.079 38.2317C195.079 38.2317 186.236 35.0573 172.719 31.3285C172.719 31.3285 172.681 31.3285 172.669 31.3285C152.929 25.874 123.288 19.2479 96.8217 19.6384C60.3153 20.1675 36.0407 36.1154 36.0407 36.1154C36.0407 36.1154 30.3468 32.0844 35.7132 29.0485C35.7132 29.0485 44.7453 22.4476 61.512 17.8118C61.5372 17.8118 61.575 17.8118 61.6002 17.7866C70.6575 15.2798 81.9823 13.5162 95.3478 13.3147C118.69 12.9494 137.561 16.149 154.378 19.6006C163.372 21.4524 171.308 23.4553 177.808 25.2945C189.675 28.6327 196.755 31.3663 196.755 31.3663L196.78 31.3537Z" fill="url(#paint9_linear_3_5400)"/>
<path fill-rule="evenodd" clip-rule="evenodd" d="M74.3735 98.0302C74.3735 98.0302 74.2097 106.319 70.4432 106.823C66.6766 107.327 53.2859 81.3265 45.9292 31.2278L51.5475 30.6357C51.5475 30.6357 56.1455 70.1529 70.5313 95.4478C70.5313 95.4478 73.3279 92.8906 74.3735 98.0302Z" fill="url(#paint10_linear_3_5400)"/>
<path style="mix-blend-mode:multiply" opacity="0.5" fill-rule="evenodd" clip-rule="evenodd" d="M178.212 24.2744L177.834 25.2822L175.352 31.9713C175.352 31.9713 174.432 31.7319 172.719 31.3162C172.719 31.3162 172.681 31.3162 172.669 31.3162C152.929 25.8617 123.288 19.2356 96.8217 19.6261C60.3153 20.1552 36.0407 36.1031 36.0407 36.1031C36.0407 36.1031 30.3468 32.072 35.7132 29.0361C35.7132 29.0361 44.7453 22.4352 61.512 17.7995C61.5372 17.7995 61.575 17.7995 61.6002 17.7743C61.6002 17.7743 62.4568 20.9236 66.1352 20.6591C69.8261 20.3819 83.557 17.0815 104.393 17.6483C125.367 18.2152 150.208 23.5816 151.556 23.5816C153.509 23.5816 156.267 19.9662 156.267 19.9662L178.199 24.287L178.212 24.2744Z" fill="url(#paint11_linear_3_5400)"/>
<path fill-rule="evenodd" clip-rule="evenodd" d="M53.1096 17.409C53.1096 17.409 55.7676 22.1959 54.7851 26.0002C54.7851 26.0002 53.8025 26.8694 51.409 26.7812L50.4768 25.2318C50.4768 25.2318 51.0437 27.726 51.0437 28.8472C51.0437 28.8472 50.9051 30.0565 46.9623 30.0187L45.5514 27.9528V29.3637C45.5514 29.3637 44.657 30.3084 41.7093 30.0187C41.7093 30.0187 40.6259 28.4693 39.9205 27.1969C39.9205 27.1969 38.7489 27.852 37.5774 27.9528C37.5774 27.9528 35.4233 25.8365 34.6675 22.8887C34.6675 22.8887 35.5997 21.7172 38.1443 21.3393L38.6104 21.8054L43.0194 21.1L43.4855 21.4779L43.5736 20.7976L48.3101 19.878L48.9526 20.2433L48.6251 18.8703C48.6251 18.8703 49.6706 16.1745 53.097 17.3964L53.1096 17.409Z" fill="url(#paint12_linear_3_5400)"/>
<path fill-rule="evenodd" clip-rule="evenodd" d="M48.6251 18.8705C48.6251 18.8705 50.6028 22.3221 51.409 26.7689L50.4769 25.2194L48.3228 19.8657L48.8896 20.0546L48.6377 18.8579L48.6251 18.8705Z" fill="#FF7F85"/>
<path fill-rule="evenodd" clip-rule="evenodd" d="M43.5737 20.7979C43.5737 20.7979 44.5059 23.7204 45.5389 27.953C45.5389 27.953 43.9012 22.2465 43.0068 21.1002L43.4477 21.3521L43.5611 20.8104L43.5737 20.7979Z" fill="#FF7F85"/>
<path fill-rule="evenodd" clip-rule="evenodd" d="M38.5977 21.8053L39.9078 27.1968C39.9078 27.1968 39.0889 22.7375 39.2527 21.6919L38.5977 21.7927V21.8053Z" fill="#FF7F85"/>
<path fill-rule="evenodd" clip-rule="evenodd" d="M52.5047 38.3076C52.5047 38.3076 59.5843 35.3221 60.1511 31.354C60.6928 27.5497 60.2771 20.8354 60.6424 16.8926C60.6424 16.8926 58.0726 16.2879 56.435 17.8373C54.7848 19.3868 54.5958 22.6368 55.5784 26.8317C55.5784 26.8317 51.182 26.4915 49.3554 30.447C49.3554 30.447 46.2817 30.6486 39.3281 34.1884C39.3281 34.1884 39.4037 37.1361 47.1887 39.2272L52.5047 38.3076Z" fill="url(#paint13_linear_3_5400)"/>
<path fill-rule="evenodd" clip-rule="evenodd" d="M39.3407 34.1883L39.4793 34.604C39.4793 34.604 45.9416 32.7523 49.368 30.4596L50.7411 28.5322L39.3281 34.1883H39.3407Z" fill="#FF7F85"/>
<path fill-rule="evenodd" clip-rule="evenodd" d="M57.2916 60.3902C57.2916 60.3902 56.0319 63.9048 52.1772 63.6403C52.1772 63.6403 48.2595 51.0935 46.4077 39.0129L54.0919 37.4131C54.0919 37.4131 55.3139 53.1847 57.2916 60.4028V60.3902Z" fill="url(#paint14_linear_3_5400)"/>
<path fill-rule="evenodd" clip-rule="evenodd" d="M178.753 86.1891V86.2269C176.687 100.953 169.784 118.74 160.575 126.563C159.076 127.823 157.527 128.83 155.927 129.523C155.927 129.523 152.677 130.808 147.273 132.231C139.551 134.272 127.42 136.628 114.117 135.985C114.117 135.985 108.738 134.549 106.219 131.866C106.219 131.866 74.8144 132.408 59.912 129.523C57.2666 129.019 40.2101 111.749 38.4843 81.6163C38.0686 74.2848 38.5599 66.1849 40.3865 57.3795C40.3865 57.3795 58.8916 35.8259 94.2265 32.4121C129.561 29.0108 142.385 34.7299 146.215 36.0778C155.071 39.1767 171.371 54.1421 177.657 67.4194C179.622 71.5513 179.862 78.4419 178.766 86.1891H178.753Z" fill="url(#paint15_linear_3_5400)"/>
<path style="mix-blend-mode:multiply" opacity="0.3" fill-rule="evenodd" clip-rule="evenodd" d="M72.2319 59.924C72.2319 59.924 78.732 71.1858 83.5944 73.1635C88.4569 75.1413 102.742 74.8012 108.625 70.2158C114.495 65.6305 113.676 54.5576 113.676 54.5576C113.676 54.5576 116.662 57.7825 117.657 59.924C118.652 62.0529 108.272 79.5251 101.558 81.1249C90.2457 83.8207 73.0255 75.5318 73.0255 75.5318L70.4683 70.2032L72.2445 59.9114L72.2319 59.924Z" fill="url(#paint16_linear_3_5400)"/>
<path style="mix-blend-mode:multiply" opacity="0.3" fill-rule="evenodd" clip-rule="evenodd" d="M70.4433 60.894C70.4433 60.894 64.7872 72.0047 61.2727 76.4011C57.7455 80.7975 52.5429 79.0591 49.318 76.9679C46.0931 74.8768 47.9449 63.1363 47.9449 63.1363C47.9449 63.1363 44.6823 66.9407 44.6319 70.0269C44.5815 73.1132 48.0961 84.375 51.132 85.0553C54.1553 85.7229 63.5653 81.0116 66.954 76.9805C70.33 72.9495 70.4559 60.9192 70.4559 60.9192L70.4433 60.894Z" fill="url(#paint17_linear_3_5400)"/>
<path style="mix-blend-mode:multiply" opacity="0.3" fill-rule="evenodd" clip-rule="evenodd" d="M53.6133 66.0718C53.6133 66.0718 53.966 69.6997 57.3798 70.2162C60.7937 70.7327 61.3479 66.878 61.3479 66.878C61.3479 66.878 62.0912 71.4885 61.0834 72.9876C60.0756 74.4866 54.4069 75.0535 53.374 74.0835C52.3536 73.1136 51.9253 67.7598 51.9253 67.7598L53.6133 66.0718Z" fill="url(#paint18_linear_3_5400)"/>
<path style="mix-blend-mode:multiply" opacity="0.3" fill-rule="evenodd" clip-rule="evenodd" d="M120.391 49.3425C120.391 49.3425 132.912 59.7855 142.058 58.7147C151.203 57.644 153.735 52.2524 153.735 52.2524L151.077 47.0498C151.077 47.0498 157.804 53.4365 158.409 55.2757C159.013 57.1149 149.036 65.6179 144.539 65.6683C140.042 65.7187 124.699 59.4831 120.378 49.3425H120.391Z" fill="url(#paint19_linear_3_5400)"/>
<path style="mix-blend-mode:multiply" opacity="0.3" fill-rule="evenodd" clip-rule="evenodd" d="M78.3164 38.5595C78.3164 38.5595 80.8988 40.7388 89.7042 38.0556C98.5096 35.3598 99.5803 31.9586 99.5803 31.9586L105.728 31.5933C105.728 31.5933 86.8824 44.0392 74.6255 45.4627C74.6255 45.4627 67.1554 46.0043 62.8472 42.5024C62.8472 42.5024 69.1079 43.107 71.7281 41.7591C74.3483 40.4112 74.953 38.5469 74.953 38.5469L78.3038 38.5721L78.3164 38.5595Z" fill="url(#paint20_linear_3_5400)"/>
<path style="mix-blend-mode:multiply" opacity="0.3" fill-rule="evenodd" clip-rule="evenodd" d="M85.5976 56.2964C85.5976 56.2964 89.3389 59.9747 93.1936 59.937C97.0483 59.8866 98.0435 56.4853 98.0435 56.4853L99.5677 60.9069C99.5677 60.9069 94.277 65.6812 92.2488 65.6812C90.2207 65.6812 85.585 56.309 85.585 56.309L85.5976 56.2964Z" fill="url(#paint21_linear_3_5400)"/>
<path fill-rule="evenodd" clip-rule="evenodd" d="M83.582 34.0625L75.8222 40.676C75.8222 40.676 70.8589 60.0629 70.8463 78.5429C70.8337 97.0354 74.4743 117.014 74.4743 117.014C74.4743 117.014 69.1079 96.5315 69.1079 76.3384C69.1079 56.1452 74.4743 39.5926 74.4743 39.5926V36.5063L83.582 34.0625Z" fill="#FF7F85"/>
<path fill-rule="evenodd" clip-rule="evenodd" d="M70.4433 75.5447C70.4433 75.5447 75.5073 78.2909 77.3717 79.2483C80.7981 80.9993 97.3129 83.2163 101.709 82.4101C106.106 81.6039 119.295 63.3885 119.295 59.9369C119.295 56.4853 108.852 41.7467 102.742 41.7593C100.109 41.7593 86.7691 51.3583 85.585 54.3186C84.3883 57.2789 90.9388 66.5252 91.9339 66.7897C92.9165 67.0543 99.2024 62.7083 99.2024 62.7083L103.145 64.3711L98.0309 56.4727L98.5726 61.4989C98.5726 61.4989 94.5793 64.749 92.652 65.1773C90.7246 65.6056 85.585 57.3041 86.4542 54.7469C87.3234 52.1897 98.9757 44.1149 103.208 44.518C107.454 44.9212 116.196 56.7624 116.272 60.5416C116.335 64.3081 106.446 80.2686 101.533 81.1378C94.8313 82.3346 80.332 78.6436 77.7748 76.4895C75.2176 74.3354 71.1739 67.47 71.1739 67.47L70.4307 75.5447H70.4433Z" fill="#FF7F85"/>
<path fill-rule="evenodd" clip-rule="evenodd" d="M70.4433 74.94C70.4433 74.94 69.0954 76.3508 65.9965 78.8199C63.074 81.1503 53.2734 86.3025 50.2879 85.8491C47.3024 85.3956 42.5659 72.7859 43.4729 68.1249C44.3673 63.464 53.2986 52.7061 57.0652 53.2477C60.8317 53.7894 63.2125 71.375 61.8647 73.7054C60.5168 76.0359 53.8781 74.877 53.0719 74.4235C52.2657 73.97 51.1193 68.6792 51.1193 68.6792L48.8518 68.1375L53.6135 66.0716L52.2657 68.6792C52.2657 68.6792 53.0971 72.8866 53.8781 73.8566C54.6591 74.8266 60.227 73.718 61.26 71.8411C62.293 69.9641 60.5168 57.4426 56.8888 56.2207C53.2608 55.0113 45.4128 65.4291 44.9845 68.8808C44.5688 72.3198 48.877 84.1862 52.0515 84.6271C55.2386 85.0806 62.3559 80.8858 64.9761 78.1648C67.5963 75.4438 69.7504 63.6026 69.7504 63.6026L70.4181 74.9274L70.4433 74.94Z" fill="#FF7F85"/>
<path fill-rule="evenodd" clip-rule="evenodd" d="M60.8949 42.2127C60.8949 42.2127 67.5588 46.1682 72.4968 47.0626L74.462 46.7351C74.462 46.7351 99.8955 37.514 108.852 31.354L103.398 31.7067C103.398 31.7067 97.3005 37.4762 84.5649 42.2505C76.4271 45.3116 74.462 43.3087 74.462 43.3087L73.1897 43.6488C73.1897 43.6488 71.7032 45.3998 67.8737 44.6565C64.0316 43.9133 62.986 41.1545 62.986 41.1545L60.8823 42.2253L60.8949 42.2127Z" fill="#FF7F85"/>
<path fill-rule="evenodd" clip-rule="evenodd" d="M135.961 33.13C135.961 33.13 120.97 35.7502 118.501 39.2018C116.045 42.6534 121.827 61.4987 144.615 64.5472C144.615 64.5472 154.579 61.4483 156.192 54.5703C156.192 54.5703 152.287 46.0672 141.516 41.759C141.516 41.759 136.137 41.0914 132.358 44.4548C132.358 44.4548 135.545 51.4588 140.395 53.7893L144.615 53.4365L138.241 56.8504L138.782 54.5829C138.782 54.5829 133.404 50.1109 130.708 44.732C130.708 44.732 135.192 40.8772 142.196 40.6001C142.196 40.6001 154.403 46.7979 159.971 55.5907C159.971 55.5907 154.592 65.9959 144.35 66.9029C144.35 66.9029 118.06 62.0656 116.083 39.227C116.083 39.227 119.685 35.5865 126.236 33.6087V31.8325C126.236 31.8325 132.963 32.5002 135.961 33.1552V33.13Z" fill="#FF7F85"/>
<path fill-rule="evenodd" clip-rule="evenodd" d="M38.472 71.7025C38.472 71.7025 41.2307 91.9082 43.3848 96.3046C45.5389 100.701 50.1873 102.654 50.1873 102.654C50.1873 102.654 52.0013 93.2939 60.1138 93.4325C68.2893 93.571 72.2196 101.003 72.2196 101.003C72.2196 101.003 72.9502 100.613 80.6723 96.292C88.6966 91.82 94.4283 85.9498 104.834 86.4915C115.239 87.0331 117.04 93.2435 117.632 92.8908C118.224 92.5381 123.389 77.094 127.71 74.3983C132.043 71.7025 144.917 69.8633 149.692 71.6899C154.466 73.5039 151.38 96.7707 149.692 99.7688C148.004 102.767 132.749 101.797 131.678 99.7688C130.607 97.7407 131.678 85.4711 134.374 83.7075C137.069 81.9439 141.466 81.3141 141.466 81.3141L142.537 77.2704V87.474L140.924 82.5612C140.924 82.5612 135.722 84.2996 134.638 85.8616C133.568 87.4237 131.678 95.9897 132.938 98.4587C134.197 100.928 146.202 100.336 148.457 98.2824C150.725 96.229 150.158 79.9662 149.175 76.376C148.193 72.7858 131.98 72.6473 128.176 75.5194C124.372 78.3915 120.731 95.6622 120.278 96.292C119.824 96.9219 115.453 96.8715 115.453 96.8715C115.453 96.8715 107.391 90.8879 98.0185 92.3491C88.6462 93.8104 76.3137 100.248 76.3137 100.248L72.081 106.03C72.081 106.03 67.4327 96.2164 60.6933 96.9345C53.9538 97.6525 53.0594 104.342 53.0594 104.342L53.7145 108.007C53.7145 108.007 48.6504 105.198 44.3044 99.2649C39.9584 93.3317 38.4468 83.7075 38.4468 83.7075V71.6899L38.472 71.7025Z" fill="#FF7F85"/>
<path fill-rule="evenodd" clip-rule="evenodd" d="M109.52 131.501C109.52 131.501 118.778 115.792 124.434 114.444C130.091 113.097 135.608 118.085 136.817 120.504C138.027 122.922 135.961 127.004 135.961 127.004L131.779 128.112C131.779 128.112 136.15 123.703 135.961 121.348C135.772 119.005 130.179 115.767 124.699 116.976C119.219 118.186 115.654 129.07 115.654 129.07L117.645 130.531C117.645 130.531 110.855 131.954 109.52 131.501Z" fill="#FF7F85"/>
<path fill-rule="evenodd" clip-rule="evenodd" d="M175.705 99.7816C175.705 99.7816 168.714 108.65 164.947 109.33C161.18 109.998 155.386 108.94 154.857 108.02C154.315 107.088 152.476 91.6565 155.172 77.6611C157.867 63.6657 165.262 58.3245 167.24 57.3797C169.217 56.435 175.995 68.2888 176.524 78.1146C177.065 87.9403 167.416 97.5897 165.526 98.4841C163.637 99.3785 159.782 89.7669 160.588 82.5865C161.395 75.4188 165.073 69.3092 167.315 69.1328C169.558 68.9565 170.817 77.7493 169.822 81.8811C169.822 81.8811 169.154 70.8586 166.95 70.9846C164.745 71.1106 161.42 79.5632 161.47 85.7358C161.521 91.9084 164.909 95.6497 166.761 95.7001C168.613 95.7505 176.625 85.7106 175.377 77.3084C174.13 68.9061 169.948 62.8091 167.479 62.1792C165.01 61.5494 157.59 68.4148 155.902 80.8985C154.214 93.3697 157.338 106.773 158.774 108.033C160.211 109.292 164.305 108.688 168.827 104.783C173.349 100.878 178.741 86.2019 178.741 86.2019C178.741 86.2019 177.62 94.1255 175.68 99.8068L175.705 99.7816Z" fill="#FF7F85"/>
<path style="mix-blend-mode:multiply" opacity="0.5" fill-rule="evenodd" clip-rule="evenodd" d="M178.753 86.189V86.2267C176.687 100.953 169.784 118.74 160.575 126.563L147.26 132.231C139.538 134.272 127.407 136.628 114.105 135.985C114.105 135.985 108.726 134.549 106.206 131.866C106.206 131.866 74.8017 132.408 59.8993 129.523C57.254 129.019 40.1975 111.748 38.4717 81.6162C38.4717 81.6162 41.2304 91.8073 46.4834 95.2211C46.4834 95.2211 51.3333 91.1522 58.7278 90.6861C66.1223 90.2074 70.6573 94.3645 70.6573 94.3645C70.6573 94.3645 73.479 92.6009 81.2892 89.502C89.0868 86.4031 95.6877 84.0726 104.405 84.1734C113.11 84.2868 118.174 91.8325 118.174 91.8325L123.338 84.1734C123.338 84.1734 123.616 87.4991 127.697 88.9603C131.791 90.409 133.152 88.1037 133.152 88.1037C133.152 88.3305 133.202 92.7772 137.157 94.3771C141.226 96.0273 151.896 90.157 152.06 85.8866C152.06 85.8866 152.186 89.0485 153.798 89.502C155.423 89.9555 161.52 84.123 161.52 84.123C161.52 84.123 168.423 88.7714 173.651 86.8566L178.715 86.189H178.753Z" fill="url(#paint22_linear_3_5400)"/>
<path fill-rule="evenodd" clip-rule="evenodd" d="M53.1348 111.068C53.1348 111.068 55.3393 119.974 61.6252 119.42C68.478 118.815 69.0701 107.163 69.0701 107.163L53.1348 111.068Z" fill="#E16070"/>
<path fill-rule="evenodd" clip-rule="evenodd" d="M85.5976 105.135C85.5976 105.135 88.0036 119.987 101.671 119.433C114.609 118.904 115.516 104.027 115.516 104.027L85.585 105.148L85.5976 105.135Z" fill="#E16070"/>
<path fill-rule="evenodd" clip-rule="evenodd" d="M84.7915 98.1313C84.7915 98.1313 84.0105 110.262 92.8662 115.074C101.281 119.647 111.334 115.251 114.029 109.683C116.725 104.115 115.491 96.8842 115.491 96.8842C115.491 96.8842 101.772 85.9247 84.8041 98.1313H84.7915Z" fill="url(#paint23_linear_3_5400)"/>
<path fill-rule="evenodd" clip-rule="evenodd" d="M111.988 104.757C111.988 108.94 108.6 112.328 104.418 112.328C100.235 112.328 96.8467 108.94 96.8467 104.757C96.8467 100.575 100.235 97.1865 104.418 97.1865C108.6 97.1865 111.988 100.575 111.988 104.757Z" fill="#37193E"/>
<g style="mix-blend-mode:multiply">
<path fill-rule="evenodd" clip-rule="evenodd" d="M85.3961 104.354C85.3961 104.354 93.9999 100.991 103.561 101.255C113.122 101.52 115.465 104.757 115.465 104.757C115.465 104.757 115.868 99.6552 115.465 96.8839C115.465 96.8839 111.85 91.8198 100.966 91.8198C90.0822 91.8198 84.7788 98.1184 84.7788 98.1184C84.7788 98.1184 84.7788 102.2 85.3835 104.329L85.3961 104.354Z" fill="#D8CBD9"/>
</g>
<path fill-rule="evenodd" clip-rule="evenodd" d="M51.5474 104.317C51.5474 104.317 52.7063 118.136 61.0456 117.455C69.3849 116.762 70.1029 104.317 69.0699 99.6556C69.0699 99.6556 65.316 94.7805 59.1686 95.6245C53.0212 96.4686 51.5474 104.317 51.5474 104.317Z" fill="url(#paint24_linear_3_5400)"/>
<path fill-rule="evenodd" clip-rule="evenodd" d="M68.05 108.499C67.924 112.378 65.5683 115.452 62.7844 115.351C60.013 115.263 57.8715 112.038 57.9975 108.158C58.1234 104.279 60.4791 101.205 63.2631 101.306C66.0344 101.394 68.1759 104.619 68.05 108.499Z" fill="#37193E"/>
<g style="mix-blend-mode:multiply">
<path fill-rule="evenodd" clip-rule="evenodd" d="M51.5474 104.316L52.2654 108.322C52.2654 108.322 55.7674 103.447 61.9274 102.842C67.848 102.25 69.3597 105.589 69.3597 105.589C69.3597 105.589 69.7376 102.213 69.0699 99.6553C69.0699 99.6553 66.1222 95.3597 60.4913 95.536C54.8604 95.7124 51.5474 104.316 51.5474 104.316Z" fill="#D8CBD9"/>
</g>
<path fill-rule="evenodd" clip-rule="evenodd" d="M106.207 131.854C106.207 131.854 122.948 130.191 133.316 127.772C143.683 125.353 156.066 115.112 156.066 115.112C156.066 115.112 166.396 110.653 170.452 113.021C170.452 113.021 164.997 125.215 157.099 130.329C149.2 135.444 118.98 136.993 113.399 136.086C108.877 135.356 106.219 131.854 106.219 131.854H106.207Z" fill="url(#paint25_linear_3_5400)"/>
<path fill-rule="evenodd" clip-rule="evenodd" d="M64.9888 78.1648C64.9888 78.1648 69.5867 76.6154 70.4433 75.5446L75.9608 78.5049C75.9608 78.5049 73.6934 71.4631 70.4811 68.1123C70.4811 68.1123 66.639 77.2452 65.0014 78.1648H64.9888Z" fill="#E16070"/>
<path fill-rule="evenodd" clip-rule="evenodd" d="M51.1317 68.6794L48.8643 68.1377L53.6134 66.0718L52.2781 68.6794L52.5426 69.9265L51.1317 68.6794Z" fill="#E16070"/>
<path fill-rule="evenodd" clip-rule="evenodd" d="M48.8643 81.3394C48.8643 81.3394 50.5145 84.4004 52.2529 84.6524C53.9913 84.9043 57.2413 83.3423 57.2413 83.3423C57.2413 83.3423 53.311 86.0885 51.1821 85.8491C49.0532 85.6224 48.8643 81.3394 48.8643 81.3394Z" fill="#E16070"/>
<path fill-rule="evenodd" clip-rule="evenodd" d="M94.0752 81.0748C94.0752 81.0748 99.6683 82.1203 102.364 80.8606C104.115 80.0418 108.612 75.7588 108.612 75.7588C108.612 75.7588 104.821 81.5157 101.722 82.4101C98.6227 83.3045 94.0752 81.0748 94.0752 81.0748Z" fill="#E16070"/>
<path fill-rule="evenodd" clip-rule="evenodd" d="M67.017 95.7378L72.0936 99.7941L79.1102 97.1991L76.3388 100.273L72.6731 104.934C72.6731 104.934 67.8862 98.8997 67.0044 95.7378H67.017Z" fill="#E16070"/>
<path fill-rule="evenodd" clip-rule="evenodd" d="M49.4062 103.951C49.4062 103.951 49.6078 94.2134 56.4732 92.3617C63.3386 90.5099 69.0577 97.1864 69.0577 97.1864V99.6554C69.0577 99.6554 64.7873 94.7047 59.1564 95.6243C53.5255 96.5439 49.4062 103.938 49.4062 103.938V103.951Z" fill="#E16070"/>
<path fill-rule="evenodd" clip-rule="evenodd" d="M84.7661 96.4179C84.7661 96.4179 88.7972 89.0737 99.5677 86.4913C105.325 85.1183 113.79 87.4613 117.645 92.9159V96.6698C117.645 96.6698 112.379 90.1571 100.261 91.4672C88.1421 92.7773 84.7661 96.4179 84.7661 96.4179Z" fill="#E16070"/>
<path fill-rule="evenodd" clip-rule="evenodd" d="M84.3125 98.4713C84.3125 98.4713 90.4725 88.9604 103.032 88.9604C113.437 88.9604 117.644 96.6573 117.644 96.6573L115.478 96.884C115.478 96.884 110.212 92.3617 101.999 92.3617C91.4047 92.3617 84.3251 98.4713 84.3251 98.4713H84.3125Z" fill="#4B3052"/>
<path fill-rule="evenodd" clip-rule="evenodd" d="M69.0702 99.6552C69.0702 99.6552 64.6612 92.941 58.6775 93.9865C51.8751 95.1833 48.8644 101.066 49.4061 103.951L51.535 104.316C51.535 104.316 54.7724 96.6823 59.8869 96.2162C65.0013 95.7501 69.0576 99.6552 69.0576 99.6552H69.0702Z" fill="#4B3052"/>
<path fill-rule="evenodd" clip-rule="evenodd" d="M132.61 94.3647C132.61 94.3647 132.333 98.1942 133.58 99.1264C134.827 100.071 140.786 100.197 140.786 100.197C140.786 100.197 134.588 101.646 132.585 100.424C130.582 99.1893 132.61 94.3521 132.61 94.3521V94.3647Z" fill="#E16070"/>
<path fill-rule="evenodd" clip-rule="evenodd" d="M135.369 62.1663C135.369 62.1663 142.675 64.5976 144.628 64.5472C146.58 64.4968 152.274 60.3901 152.274 60.3901C152.274 60.3901 150.687 65.7565 144.363 66.8776C144.363 66.8776 139.916 66.2226 135.381 62.1663H135.369Z" fill="#E16070"/>
<path fill-rule="evenodd" clip-rule="evenodd" d="M138.253 56.8254L138.782 54.5705L139.425 53.2227L140.408 53.7769L144.615 53.4242L138.253 56.8254Z" fill="#E16070"/>
<path fill-rule="evenodd" clip-rule="evenodd" d="M114.987 56.8252C114.987 56.8252 116.587 58.9163 116.284 60.5287C115.969 62.1286 114.47 65.6684 114.47 65.6684C114.47 65.6684 118.501 62.4813 118.703 60.3902C118.904 58.2991 114.987 56.8252 114.987 56.8252Z" fill="#E16070"/>
<path fill-rule="evenodd" clip-rule="evenodd" d="M67.8861 44.6441C67.8861 44.6441 72.144 46.5966 73.8446 46.458C75.5452 46.3321 79.9416 43.6237 79.9416 43.6237C79.9416 43.6237 76.1624 44.2032 75.4192 44.0772C74.676 43.9386 74.1721 42.8301 74.1721 42.8301C74.1721 42.8301 73.1013 44.2158 71.7786 44.6567C70.4685 45.085 67.8735 44.6567 67.8735 44.6567L67.8861 44.6441Z" fill="#E16070"/>
<path fill-rule="evenodd" clip-rule="evenodd" d="M156.167 98.4712C156.167 98.4712 157.023 106.836 158.799 108.02C160.576 109.204 163.599 108.02 163.599 108.02C163.599 108.02 161.949 109.846 155.65 108.549C155.65 108.549 154.945 108.839 154.466 105.677C153.987 102.515 156.154 98.4838 156.154 98.4838L156.167 98.4712Z" fill="#E16070"/>
<path fill-rule="evenodd" clip-rule="evenodd" d="M161.672 87.877C161.672 87.877 161.697 95.2337 166.786 95.6872C166.786 95.6872 168.146 95.3974 169.721 93.3063C169.721 93.3063 169.091 96.9469 165.526 98.4711C165.526 98.4711 161.18 95.5864 161.672 87.877Z" fill="#E16070"/>
<path fill-rule="evenodd" clip-rule="evenodd" d="M120.391 117.027C120.391 117.027 122.583 115.704 127.722 116.737C132.862 117.77 134.789 119.42 134.789 119.42C134.789 119.42 132.32 114.936 128.113 114.218C123.893 113.5 120.403 117.014 120.403 117.014L120.391 117.027Z" fill="#E16070"/>
<path fill-rule="evenodd" clip-rule="evenodd" d="M151.934 48.7256C151.934 48.7256 156.507 53.5755 156.204 54.5706C155.902 55.5658 155.89 56.8507 154.076 58.6269C154.076 58.6269 157.615 57.5184 158.422 55.2887C159.228 53.0716 151.934 48.7256 151.934 48.7256Z" fill="#E16070"/>
<path fill-rule="evenodd" clip-rule="evenodd" d="M168.234 72.3447C168.234 72.3447 170.149 77.434 169.834 81.8681C169.834 81.8681 170.401 78.0008 170.023 75.5696C169.645 73.1383 168.222 72.3447 168.222 72.3447H168.234Z" fill="#E16070"/>
<path fill-rule="evenodd" clip-rule="evenodd" d="M59.2064 109.154C59.2064 109.821 58.6648 110.35 58.0097 110.35C57.3547 110.35 56.813 109.809 56.813 109.154C56.813 108.499 57.3547 107.957 58.0097 107.957C58.6648 107.957 59.2064 108.499 59.2064 109.154Z" fill="white"/>
<path fill-rule="evenodd" clip-rule="evenodd" d="M98.2953 105.752C98.2953 106.559 97.6402 107.201 96.8466 107.201C96.053 107.201 95.3979 106.546 95.3979 105.752C95.3979 104.959 96.053 104.304 96.8466 104.304C97.6402 104.304 98.2953 104.959 98.2953 105.752Z" fill="white"/>
<g style="mix-blend-mode:soft-light" opacity="0.7">
<path fill-rule="evenodd" clip-rule="evenodd" d="M87.5377 47.0625C87.5377 47.0625 84.779 53.2477 81.7431 54.5704C81.7431 54.5704 79.6519 57.7196 79.3874 58.6266C79.1229 59.5336 82.4863 65.026 86.3158 66.8903C90.1579 68.7547 94.063 68.4776 94.063 68.4776C94.063 68.4776 101.533 65.8952 106.446 65.6684C106.446 65.6684 104.153 69.0067 99.9459 69.9514C95.7384 70.8962 94.6803 68.9437 94.063 68.8429C93.4458 68.7421 88.5329 69.9514 83.0909 67.9989C77.6364 66.0463 76.8302 61.0705 77.2333 59.3573C77.6364 57.6441 80.5589 56.3088 81.3777 54.5704C82.184 52.832 81.2392 52.3533 82.0832 50.0732C82.9272 47.7805 87.5377 47.0625 87.5377 47.0625Z" fill="white"/>
</g>
<g style="mix-blend-mode:soft-light" opacity="0.7">
<path fill-rule="evenodd" clip-rule="evenodd" d="M94.0752 51.358C94.0752 51.358 98.4842 46.7978 102.528 47.0623C106.572 47.3269 112.102 54.7592 111.988 57.3164C111.988 57.3164 109.935 55.578 107.743 53.2223C105.539 50.8667 106.005 49.2794 104.732 48.2591C103.46 47.2387 102.263 47.3647 101.722 47.6292C101.18 47.8938 99.8825 50.8541 97.678 51.043C95.4735 51.232 94.0752 51.358 94.0752 51.358Z" fill="white"/>
</g>
<g style="mix-blend-mode:soft-light" opacity="0.7">
<path fill-rule="evenodd" clip-rule="evenodd" d="M138.329 36.103C138.329 36.103 125.14 38.0808 123.175 40.2349C121.197 42.389 125.505 49.3048 128.289 50.3755C128.289 50.3755 129.007 48.1711 128.239 46.2941C127.47 44.4171 123.351 43.2834 123.263 41.7591C123.175 40.2349 125.152 38.5595 129.146 38.5469C133.139 38.5343 137.926 38.4587 138.341 36.103H138.329Z" fill="white"/>
</g>
<g style="mix-blend-mode:soft-light" opacity="0.7">
<path fill-rule="evenodd" clip-rule="evenodd" d="M110.023 80.1678C110.023 80.1678 116.322 78.9081 118.715 75.5447C121.109 72.1812 120.555 69.5736 122.671 66.8904C124.787 64.1947 132.937 65.1898 135.369 66.8904C135.369 66.8904 135.532 68.4399 133.177 68.125C130.821 67.81 129.776 65.7945 127.382 65.6811C124.989 65.5677 123.087 66.2354 122.658 67.3439C122.23 68.4525 123.943 71.5136 123.275 74.6755C122.608 77.8373 119.433 76.8548 116.07 79.1978C112.707 81.5409 111.976 81.6165 111.976 81.6165C111.976 81.6165 110.275 81.8306 110.011 80.1678H110.023Z" fill="white"/>
</g>
<g style="mix-blend-mode:soft-light" opacity="0.7">
<path fill-rule="evenodd" clip-rule="evenodd" d="M54.5205 49.3427C54.5205 49.3427 59.5719 47.5791 61.6253 48.2971C63.6786 49.0152 66.0972 55.6538 66.0972 55.6538C66.0972 55.6538 66.6893 50.0481 64.3966 46.4579C62.104 42.8678 54.5205 49.3301 54.5205 49.3301V49.3427Z" fill="white"/>
</g>
<g style="mix-blend-mode:soft-light" opacity="0.7">
<path fill-rule="evenodd" clip-rule="evenodd" d="M159.971 98.2951C159.971 98.2951 157.515 90.4093 157.099 83.7203C156.671 77.0312 159.744 73.5796 160.286 72.3451C160.828 71.098 164.456 65.3411 167.24 65.2151C170.024 65.0892 171.775 70.2918 171.775 70.2918C171.775 70.2918 169.671 65.3411 167.517 65.6686C165.363 65.9962 164.783 68.3644 163.838 69.5233C162.894 70.6949 160.513 71.5389 159.303 75.318C158.094 79.0846 160.16 86.1263 160.425 89.5024C160.689 92.8658 159.971 98.3077 159.971 98.3077V98.2951Z" fill="white"/>
</g>
<g style="mix-blend-mode:soft-light" opacity="0.7">
<path fill-rule="evenodd" clip-rule="evenodd" d="M124.787 90.9382C124.787 90.9382 126.916 82.473 128.642 78.5049C130.368 74.5368 137.749 73.655 143.065 75.0029C143.065 75.0029 142.322 76.5775 139.967 77.1066C137.611 77.6231 133.567 76.2248 131.69 76.5523C129.813 76.8799 131.237 80.5204 130.493 84.7027C129.738 88.8723 124.774 90.9382 124.774 90.9382H124.787Z" fill="white"/>
</g>
<g style="mix-blend-mode:soft-light" opacity="0.7">
<path fill-rule="evenodd" clip-rule="evenodd" d="M53.0464 89.5023C53.0464 89.5023 54.873 85.4586 64.2956 85.8617C64.2956 85.8617 57.7703 89.6787 53.0464 89.5023Z" fill="white"/>
</g>
<g style="mix-blend-mode:soft-light" opacity="0.7">
<path fill-rule="evenodd" clip-rule="evenodd" d="M109.52 120.642C109.52 120.642 112.996 110.968 120.391 110.351C120.391 110.351 118.703 118.35 109.52 120.642Z" fill="white"/>
</g>
<path fill-rule="evenodd" clip-rule="evenodd" d="M51.1318 63.6402C51.1318 63.6402 52.9962 59.7099 55.4149 59.9367C57.8335 60.1634 58.6775 61.7885 58.6775 61.7885C58.6775 61.7885 52.0514 62.8214 51.1318 63.6402Z" fill="white"/>
<path style="mix-blend-mode:multiply" opacity="0.5" fill-rule="evenodd" clip-rule="evenodd" d="M68.0121 116.775C68.0121 116.775 70.2544 129.763 77.1072 130.695C83.96 131.64 87.9659 115.49 87.9659 115.49L67.9995 116.775H68.0121Z" fill="url(#paint26_linear_3_5400)"/>
<path fill-rule="evenodd" clip-rule="evenodd" d="M84.8794 36.1031C84.8794 36.1031 89.4269 38.0809 94.8689 34.0624C94.8689 34.0624 88.9105 32.8657 84.8794 36.1031Z" fill="white"/>
<path fill-rule="evenodd" clip-rule="evenodd" d="M94.0752 51.358C94.0752 51.358 97.1867 52.517 99.0762 50.5266C100.966 48.5363 101.344 47.0498 101.344 47.0498C101.344 47.0498 95.4987 48.3095 94.0752 51.358Z" fill="white"/>
<path fill-rule="evenodd" clip-rule="evenodd" d="M94.0752 68.4779C94.0752 68.4779 102.553 64.9507 106.458 65.6687C106.458 65.6687 105.45 68.881 99.958 69.9517C94.4783 71.0225 94.0752 68.4653 94.0752 68.4653V68.4779Z" fill="white"/>
<path fill-rule="evenodd" clip-rule="evenodd" d="M125.404 39.2019C125.404 39.2019 128.894 36.5439 138.329 36.103C138.329 36.103 138.379 38.5217 135.066 38.9248C131.741 39.3279 125.404 39.2019 125.404 39.2019Z" fill="white"/>
<path fill-rule="evenodd" clip-rule="evenodd" d="M131.867 75.5826C131.867 75.5826 135.81 77.3084 138.971 77.2202C142.133 77.1195 143.078 75.0032 143.078 75.0032C143.078 75.0032 137.271 73.3907 131.867 75.5826Z" fill="white"/>
<path fill-rule="evenodd" clip-rule="evenodd" d="M162.579 68.7798C162.579 68.7798 163.775 65.114 166.244 64.7739C168.713 64.4338 169.721 66.5753 169.721 66.5753C169.721 66.5753 167.844 66.021 165.211 67.3941L162.579 68.7798Z" fill="white"/>
<path fill-rule="evenodd" clip-rule="evenodd" d="M88.2305 114.419C88.2305 114.419 87.6636 116.712 86.4417 119.395L86.4165 119.446C84.7285 123.162 81.8185 127.583 77.5103 127.583C74.8523 127.583 72.925 126.462 71.5141 124.925C68.39 121.486 67.8735 115.944 67.8735 115.944C67.8735 115.944 76.3388 115.704 88.2305 114.419Z" fill="url(#paint27_linear_3_5400)"/>
<path fill-rule="evenodd" clip-rule="evenodd" d="M171.762 31.2279C164.405 81.3392 151.014 107.327 147.26 106.823C143.494 106.319 143.33 98.0303 143.33 98.0303C144.376 92.9033 147.16 95.4605 147.16 95.4605C161.545 70.1655 166.143 30.6484 166.143 30.6484L171.762 31.2405V31.2279Z" fill="url(#paint28_linear_3_5400)"/>
<path fill-rule="evenodd" clip-rule="evenodd" d="M164.594 17.409C164.594 17.409 161.936 22.1959 162.919 26.0002C162.919 26.0002 163.901 26.8694 166.295 26.7812L167.227 25.2318C167.227 25.2318 166.66 27.726 166.66 28.8472C166.66 28.8472 166.799 30.0565 170.741 30.0187L172.152 27.9528V29.3637C172.152 29.3637 173.047 30.3084 175.994 30.0187C175.994 30.0187 177.078 28.4693 177.783 27.1969C177.783 27.1969 178.955 27.852 180.126 27.9528C180.126 27.9528 182.28 25.8365 183.036 22.8887C183.036 22.8887 182.104 21.7172 179.559 21.3393L179.093 21.8054L174.684 21.1L174.218 21.4779L174.13 20.7976L169.394 19.878L168.751 20.2433L169.079 18.8703C169.079 18.8703 168.033 16.1745 164.607 17.3964L164.594 17.409Z" fill="url(#paint29_linear_3_5400)"/>
<path fill-rule="evenodd" clip-rule="evenodd" d="M169.078 18.8705C169.078 18.8705 167.101 22.3221 166.294 26.7689L167.227 25.2194L169.381 19.8657L168.814 20.0546L169.066 18.8579L169.078 18.8705Z" fill="#FF7F85"/>
<path fill-rule="evenodd" clip-rule="evenodd" d="M174.13 20.7979C174.13 20.7979 173.198 23.7204 172.165 27.953C172.165 27.953 173.803 22.2465 174.697 21.1002L174.256 21.3521L174.143 20.8104L174.13 20.7979Z" fill="#FF7F85"/>
<path fill-rule="evenodd" clip-rule="evenodd" d="M179.106 21.8053L177.796 27.1968C177.796 27.1968 178.615 22.7375 178.451 21.6919L179.106 21.7927V21.8053Z" fill="#FF7F85"/>
<path fill-rule="evenodd" clip-rule="evenodd" d="M165.186 38.3076C165.186 38.3076 158.106 35.3221 157.54 31.354C156.998 27.5497 157.414 20.8354 157.048 16.8926C157.048 16.8926 159.618 16.2879 161.256 17.8373C162.893 19.3868 163.095 22.6368 162.112 26.8317C162.112 26.8317 166.509 26.4915 168.335 30.447C168.335 30.447 172.87 31.5808 178.766 33.3066C178.766 33.3066 178.3 37.1361 170.515 39.2272L165.199 38.3076H165.186Z" fill="url(#paint30_linear_3_5400)"/>
<path fill-rule="evenodd" clip-rule="evenodd" d="M178.766 33.0295C178.766 33.0295 178.854 33.7602 178.224 34.6042C178.224 34.6042 171.762 32.7524 168.336 30.4597L167.907 29.6787L178.766 33.0295Z" fill="#FF7F85"/>
<path fill-rule="evenodd" clip-rule="evenodd" d="M160.399 60.3902C160.399 60.3902 161.659 63.9048 165.513 63.6403C165.513 63.6403 169.431 51.0935 171.283 39.0129L163.599 37.4131C163.599 37.4131 162.377 53.1847 160.399 60.4028V60.3902Z" fill="url(#paint31_linear_3_5400)"/>
<g style="mix-blend-mode:multiply" opacity="0.5">
<path fill-rule="evenodd" clip-rule="evenodd" d="M88.2305 114.419C88.2305 114.419 87.6636 116.712 86.4417 119.395L86.4165 119.446C79.1605 119.584 71.5645 124.963 71.5645 124.963L71.5141 124.925C68.39 121.486 67.8735 115.944 67.8735 115.944C67.8735 115.944 76.3388 115.704 88.2305 114.419Z" fill="#92364C"/>
</g>
<path d="M216.833 41.637C222.449 22.179 217.849 3.76343 206.56 0.504793C195.27 -2.75385 181.565 10.3784 175.948 29.8364C170.332 49.2945 174.932 67.71 186.221 70.9686C197.511 74.2273 211.216 61.0951 216.833 41.637Z" fill="url(#paint32_linear_3_5400)"/>
<path fill-rule="evenodd" clip-rule="evenodd" d="M206.895 0.66748C206.895 0.66748 216.733 2.83418 220.727 6.72669L197.724 74.0204C197.724 74.0204 192.711 73.97 185.102 70.6444L206.895 0.66748Z" fill="url(#paint33_linear_3_5400)"/>
<path d="M227.208 45.2874C232.687 26.3039 228.378 8.38888 217.583 5.27301C206.787 2.15714 193.594 15.0204 188.115 34.0039C182.636 52.9873 186.945 70.9024 197.74 74.0182C208.535 77.1341 221.728 64.2709 227.208 45.2874Z" fill="url(#paint34_linear_3_5400)"/>
<g style="mix-blend-mode:soft-light" opacity="0.7">
<path fill-rule="evenodd" clip-rule="evenodd" d="M188.138 7.63366L200.685 11.5136C200.685 11.5136 205.9 5.39138 214.227 4.82451L200.294 0.289551C200.294 0.289551 194.802 0.591882 188.138 7.64626V7.63366Z" fill="white"/>
</g>
<path fill-rule="evenodd" clip-rule="evenodd" d="M204.149 8.50273C204.149 8.50273 210.322 6.52499 211.846 5.13931C211.846 5.13931 206.668 4.14414 204.149 8.50273Z" fill="white"/>
<g style="mix-blend-mode:soft-light" opacity="0.7">
<path fill-rule="evenodd" clip-rule="evenodd" d="M176.763 62.1289L188.302 64.5601C188.302 64.5601 189.612 68.3393 193.013 71.4004L180.794 67.8102C180.794 67.8102 178.363 66.2482 176.763 62.1289Z" fill="white"/>
</g>
<g style="mix-blend-mode:multiply" opacity="0.5">
<path fill-rule="evenodd" clip-rule="evenodd" d="M224.204 47.7051C219.354 64.5097 208.419 76.1116 199.765 73.6174C191.124 71.1231 188.037 55.4776 192.887 38.673C197.737 21.8685 208.671 10.2665 217.326 12.7608C225.967 15.255 229.054 30.9006 224.204 47.7051Z" fill="#5E364C"/>
</g>
<path d="M225.303 43.933C229.553 29.2075 226.073 15.2712 217.531 12.8055C208.988 10.3398 198.618 20.2784 194.367 35.004C190.117 49.7296 193.597 63.6658 202.139 66.1315C210.682 68.5972 221.052 58.6586 225.303 43.933Z" fill="url(#paint35_linear_3_5400)"/>
<path fill-rule="evenodd" clip-rule="evenodd" d="M217.767 12.937C217.767 12.937 225.69 15.5446 229.306 19.2985L215.184 68.0367C215.184 68.0367 207.046 68.3895 201.29 65.8826L217.779 12.937H217.767Z" fill="url(#paint36_linear_3_5400)"/>
<path d="M233.932 47.0365C237.878 33.367 234.774 20.4668 227 18.223C219.227 15.9792 209.726 25.2415 205.781 38.9109C201.835 52.5804 204.939 65.4806 212.713 67.7244C220.486 69.9682 229.987 60.7059 233.932 47.0365Z" fill="url(#paint37_linear_3_5400)"/>
<g style="mix-blend-mode:soft-light" opacity="0.7">
<path fill-rule="evenodd" clip-rule="evenodd" d="M202.915 18.9964L214.831 22.7125C214.831 22.7125 218.585 18.3036 224.582 17.8879L213.143 12.5845C213.143 12.5845 207.651 13.3781 202.915 18.9964Z" fill="white"/>
</g>
<path fill-rule="evenodd" clip-rule="evenodd" d="M217.326 20.5461C217.326 20.5461 221.772 19.1226 222.868 18.1275C222.868 18.1275 219.14 17.4094 217.326 20.5461Z" fill="white"/>
<g style="mix-blend-mode:soft-light" opacity="0.7">
<path fill-rule="evenodd" clip-rule="evenodd" d="M194.79 59.0552L205.925 60.9069C205.925 60.9069 206.87 63.6279 209.314 65.8324L199.047 64.5853C199.047 64.5853 195.948 62.0155 194.79 59.0552Z" fill="white"/>
</g>
<path fill-rule="evenodd" clip-rule="evenodd" d="M224.128 37.8039L221.142 37.1362C221.142 37.1362 218.472 37.3252 217.149 42.4018C215.977 46.8864 217.804 49.2546 217.804 49.2546L220.613 49.9979L224.128 37.8039Z" fill="url(#paint38_linear_3_5400)"/>
<path fill-rule="evenodd" clip-rule="evenodd" d="M225.841 44.8959C224.871 48.2593 222.528 50.5394 220.613 49.9851C218.699 49.4308 217.93 46.2564 218.9 42.8929C219.87 39.5295 222.213 37.2494 224.128 37.8037C226.043 38.358 226.811 41.5325 225.841 44.8959Z" fill="url(#paint39_linear_3_5400)"/>
<path fill-rule="evenodd" clip-rule="evenodd" d="M53.1348 111.069C53.1348 111.069 60.3655 114.243 68.4654 110.351C68.4654 110.351 67.6844 118.022 60.1514 118.022C54.722 118.022 53.1348 111.081 53.1348 111.081V111.069Z" fill="#E16070"/>
<path fill-rule="evenodd" clip-rule="evenodd" d="M86.0508 106.634C86.0508 106.634 98.3707 110.968 115.062 106.634C115.062 106.634 113.437 117.241 101.205 117.48C88.9733 117.72 86.0508 106.634 86.0508 106.634Z" fill="#E16070"/>
<g style="mix-blend-mode:soft-light" opacity="0.7">
<path fill-rule="evenodd" clip-rule="evenodd" d="M79.5889 129.208C79.5889 129.208 83.0657 124.66 84.7411 124.194C84.7411 124.194 83.0153 128.591 79.5889 129.208Z" fill="white"/>
</g>
<g style="mix-blend-mode:soft-light" opacity="0.7">
<path fill-rule="evenodd" clip-rule="evenodd" d="M87.9531 107.163C87.9531 107.163 90.989 108.801 98.9504 109.557C106.912 110.312 113.916 106.911 113.916 106.911C113.916 106.911 100.941 110.35 87.9531 107.163Z" fill="white"/>
</g>
<g style="mix-blend-mode:soft-light" opacity="0.7">
<path fill-rule="evenodd" clip-rule="evenodd" d="M53.1347 111.069C53.1347 111.069 54.2054 112.807 59.2317 113.072C64.2579 113.336 68.4653 110.351 68.4653 110.351C68.4653 110.351 64.5224 112.391 59.7859 112.24C55.0494 112.089 53.1221 111.081 53.1221 111.081L53.1347 111.069Z" fill="white"/>
</g>
<path fill-rule="evenodd" clip-rule="evenodd" d="M83.582 15.6578C83.582 15.6578 98.2577 12.899 120.97 16.1617C120.97 16.1617 106.219 14.4611 83.582 15.6578Z" fill="white"/>
<path fill-rule="evenodd" clip-rule="evenodd" d="M117.09 163.598C115.39 168.801 113.777 175.981 113.777 175.981C126.16 179.131 138.72 178.148 138.72 178.148C138.354 174.911 136.024 173.109 136.024 173.109C131.716 171.673 124.989 165.752 124.812 163.686C124.56 160.676 133.933 134.952 118.526 129.548L111.145 131.325C113.286 132.521 114.105 133.214 115.566 134.524C127.445 145.169 118.64 158.799 117.09 163.611V163.598Z" fill="url(#paint40_linear_3_5400)"/>
<path fill-rule="evenodd" clip-rule="evenodd" d="M113.765 175.981C126.148 179.13 138.707 178.135 138.707 178.135C138.354 174.91 136.011 173.109 136.011 173.109C131.703 171.673 124.976 165.752 124.8 163.686C124.636 161.835 126.626 157.69 127.281 148.381C127.281 148.381 124.22 149.25 121.625 149.074C120.68 155.586 117.821 161.343 117.09 163.598C115.39 168.801 113.777 175.981 113.777 175.981H113.765Z" fill="url(#paint41_linear_3_5400)"/>
<path fill-rule="evenodd" clip-rule="evenodd" d="M113.765 175.981V178.287C113.765 178.287 124.661 181.436 138.707 179.219V178.148C138.707 178.148 125.53 178.954 113.765 175.994V175.981Z" fill="url(#paint42_linear_3_5400)"/>
<g style="mix-blend-mode:soft-light" opacity="0.7">
<path fill-rule="evenodd" clip-rule="evenodd" d="M136.024 173.096C136.024 173.096 127.117 172.945 121.197 168.499L124.812 163.674C124.812 163.674 127.395 169.443 136.024 173.096Z" fill="white"/>
</g>
<g style="mix-blend-mode:multiply">
<path fill-rule="evenodd" clip-rule="evenodd" d="M111.132 131.312C113.273 132.509 115.163 134.234 116.637 135.545C117.33 132.546 121.865 131.287 121.865 131.287C120.655 130.065 118.514 129.548 118.514 129.548L111.132 131.325V131.312Z" fill="#5E364C"/>
</g>
<g style="mix-blend-mode:multiply">
<path fill-rule="evenodd" clip-rule="evenodd" d="M147.26 106.836C143.494 106.332 143.33 98.043 143.33 98.043C144.376 92.916 147.16 95.4732 147.16 95.4732C147.16 95.4732 143.733 104.064 147.26 106.848V106.836Z" fill="#5E364C"/>
</g>
<path fill-rule="evenodd" clip-rule="evenodd" d="M70.3926 115.843C70.3926 115.843 71.942 118.236 74.8016 119.622C76.9053 120.642 82.3472 118.916 85.2194 116.12L86.668 114.558L70.3926 115.843Z" fill="url(#paint43_linear_3_5400)"/>
</g>
<defs>
<linearGradient id="paint0_linear_3_5400" x1="62.0787" y1="178.286" x2="62.0787" y2="129.208" gradientUnits="userSpaceOnUse">
<stop stop-color="#684A72"/>
<stop offset="0.99" stop-color="#46255E"/>
</linearGradient>
<linearGradient id="paint1_linear_3_5400" x1="60.29" y1="178.274" x2="60.29" y2="148.381" gradientUnits="userSpaceOnUse">
<stop offset="0.02" stop-color="#FFA892"/>
<stop offset="1" stop-color="#FFCEA8"/>
</linearGradient>
<linearGradient id="paint2_linear_3_5400" x1="47.8188" y1="177.984" x2="72.7611" y2="177.984" gradientUnits="userSpaceOnUse">
<stop stop-color="#9A1A43"/>
<stop offset="1" stop-color="#731653"/>
</linearGradient>
<linearGradient id="paint3_linear_3_5400" x1="17.8503" y1="66.4497" x2="17.8503" y2="23.5818" gradientUnits="userSpaceOnUse">
<stop stop-color="#381447"/>
<stop offset="0.48" stop-color="#7D4A78"/>
<stop offset="1" stop-color="#A896AD"/>
</linearGradient>
<linearGradient id="paint4_linear_3_5400" x1="35.9253" y1="62.0456" x2="8.67332" y2="22.1255" gradientUnits="userSpaceOnUse">
<stop stop-color="#381447"/>
<stop offset="0.48" stop-color="#7D4A78"/>
<stop offset="1" stop-color="#A896AD"/>
</linearGradient>
<linearGradient id="paint5_linear_3_5400" x1="38.3733" y1="58.7447" x2="13.1241" y2="21.7586" gradientUnits="userSpaceOnUse">
<stop stop-color="#46185E"/>
<stop offset="1" stop-color="#68466D"/>
</linearGradient>
<linearGradient id="paint6_linear_3_5400" x1="26.5169" y1="67.4829" x2="26.5169" y2="7.29392" gradientUnits="userSpaceOnUse">
<stop stop-color="#381447"/>
<stop offset="0.48" stop-color="#7D4A78"/>
<stop offset="1" stop-color="#A896AD"/>
</linearGradient>
<linearGradient id="paint7_linear_3_5400" x1="45.2593" y1="64.3435" x2="19.2052" y2="5.74244" gradientUnits="userSpaceOnUse">
<stop stop-color="#381447"/>
<stop offset="0.48" stop-color="#7D4A78"/>
<stop offset="1" stop-color="#A896AD"/>
</linearGradient>
<linearGradient id="paint8_linear_3_5400" x1="36.2041" y1="63.0107" x2="36.2041" y2="4.37116" gradientUnits="userSpaceOnUse">
<stop stop-color="#360450"/>
<stop offset="1" stop-color="#56305C"/>
</linearGradient>
<linearGradient id="paint9_linear_3_5400" x1="116.788" y1="46.9237" x2="112.757" y2="10.6441" gradientUnits="userSpaceOnUse">
<stop offset="0.02" stop-color="#9EADEF"/>
<stop offset="1" stop-color="#DCCBD5"/>
</linearGradient>
<linearGradient id="paint10_linear_3_5400" x1="60.1513" y1="106.836" x2="60.1513" y2="30.6483" gradientUnits="userSpaceOnUse">
<stop stop-color="#46255E"/>
<stop offset="1" stop-color="#684A72"/>
</linearGradient>
<linearGradient id="paint11_linear_3_5400" x1="105.829" y1="36.1031" x2="105.829" y2="17.5854" gradientUnits="userSpaceOnUse">
<stop offset="0.02" stop-color="#9A5992"/>
<stop offset="1" stop-color="#C2B0C6"/>
</linearGradient>
<linearGradient id="paint12_linear_3_5400" x1="44.8207" y1="30.0691" x2="44.8207" y2="17.0815" gradientUnits="userSpaceOnUse">
<stop offset="0.02" stop-color="#FFA892"/>
<stop offset="1" stop-color="#FFCEA8"/>
</linearGradient>
<linearGradient id="paint13_linear_3_5400" x1="49.9853" y1="39.2272" x2="49.9853" y2="16.7792" gradientUnits="userSpaceOnUse">
<stop offset="0.02" stop-color="#FFA892"/>
<stop offset="1" stop-color="#FFCEA8"/>
</linearGradient>
<linearGradient id="paint14_linear_3_5400" x1="56.0949" y1="62.9474" x2="49.9097" y2="38.1311" gradientUnits="userSpaceOnUse">
<stop stop-color="#FFCEA8"/>
<stop offset="0.98" stop-color="#FFA892"/>
</linearGradient>
<linearGradient id="paint15_linear_3_5400" x1="115.377" y1="137.081" x2="103.637" y2="31.3665" gradientUnits="userSpaceOnUse">
<stop offset="0.02" stop-color="#FF9F9A"/>
<stop offset="1" stop-color="#FFB2B8"/>
</linearGradient>
<linearGradient id="paint16_linear_3_5400" x1="94.0752" y1="81.6666" x2="94.0752" y2="54.5702" gradientUnits="userSpaceOnUse">
<stop offset="0.02" stop-color="#DF8792"/>
<stop offset="0.34" stop-color="#ECB9BF"/>
<stop offset="0.62" stop-color="#F6DFE2"/>
<stop offset="0.86" stop-color="#FCF6F7"/>
<stop offset="1" stop-color="white"/>
</linearGradient>
<linearGradient id="paint17_linear_3_5400" x1="57.5439" y1="85.0931" x2="57.5439" y2="60.894" gradientUnits="userSpaceOnUse">
<stop offset="0.02" stop-color="#DF8792"/>
<stop offset="0.34" stop-color="#ECB9BF"/>
<stop offset="0.62" stop-color="#F6DFE2"/>
<stop offset="0.86" stop-color="#FCF6F7"/>
<stop offset="1" stop-color="white"/>
</linearGradient>
<linearGradient id="paint18_linear_3_5400" x1="56.7752" y1="74.5748" x2="56.7752" y2="66.0718" gradientUnits="userSpaceOnUse">
<stop offset="0.02" stop-color="#DF8792"/>
<stop offset="0.34" stop-color="#ECB9BF"/>
<stop offset="0.62" stop-color="#F6DFE2"/>
<stop offset="0.86" stop-color="#FCF6F7"/>
<stop offset="1" stop-color="white"/>
</linearGradient>
<linearGradient id="paint19_linear_3_5400" x1="139.425" y1="65.6683" x2="139.425" y2="47.0624" gradientUnits="userSpaceOnUse">
<stop offset="0.02" stop-color="#DF8792"/>
<stop offset="0.34" stop-color="#ECB9BF"/>
<stop offset="0.62" stop-color="#F6DFE2"/>
<stop offset="0.86" stop-color="#FCF6F7"/>
<stop offset="1" stop-color="white"/>
</linearGradient>
<linearGradient id="paint20_linear_3_5400" x1="84.2748" y1="45.4879" x2="84.2748" y2="31.5933" gradientUnits="userSpaceOnUse">
<stop offset="0.02" stop-color="#DF8792"/>
<stop offset="0.34" stop-color="#ECB9BF"/>
<stop offset="0.62" stop-color="#F6DFE2"/>
<stop offset="0.86" stop-color="#FCF6F7"/>
<stop offset="1" stop-color="white"/>
</linearGradient>
<linearGradient id="paint21_linear_3_5400" x1="92.5764" y1="65.6686" x2="92.5764" y2="56.2964" gradientUnits="userSpaceOnUse">
<stop offset="0.02" stop-color="#DF8792"/>
<stop offset="0.34" stop-color="#ECB9BF"/>
<stop offset="0.62" stop-color="#F6DFE2"/>
<stop offset="0.86" stop-color="#FCF6F7"/>
<stop offset="1" stop-color="white"/>
</linearGradient>
<linearGradient id="paint22_linear_3_5400" x1="108.612" y1="136.086" x2="108.612" y2="81.6162" gradientUnits="userSpaceOnUse">
<stop offset="0.02" stop-color="#DF8792"/>
<stop offset="1" stop-color="#FFD0C6"/>
</linearGradient>
<linearGradient id="paint23_linear_3_5400" x1="100.261" y1="116.989" x2="100.261" y2="92.3744" gradientUnits="userSpaceOnUse">
<stop stop-color="white"/>
<stop offset="0.98" stop-color="#FAC8CD"/>
</linearGradient>
<linearGradient id="paint24_linear_3_5400" x1="60.4913" y1="117.481" x2="60.4913" y2="95.5364" gradientUnits="userSpaceOnUse">
<stop stop-color="white"/>
<stop offset="0.98" stop-color="#FAC8CD"/>
</linearGradient>
<linearGradient id="paint25_linear_3_5400" x1="106.207" y1="124.333" x2="170.452" y2="124.333" gradientUnits="userSpaceOnUse">
<stop stop-color="#B44263"/>
<stop offset="0.98" stop-color="#EF5666"/>
</linearGradient>
<linearGradient id="paint26_linear_3_5400" x1="74.1217" y1="129.914" x2="78.896" y2="112.946" gradientUnits="userSpaceOnUse">
<stop offset="0.02" stop-color="#DF8792"/>
<stop offset="1" stop-color="#FFD0C6"/>
</linearGradient>
<linearGradient id="paint27_linear_3_5400" x1="81.554" y1="126.588" x2="77.1198" y2="112.946" gradientUnits="userSpaceOnUse">
<stop stop-color="#9A1A43"/>
<stop offset="1" stop-color="#731653"/>
</linearGradient>
<linearGradient id="paint28_linear_3_5400" x1="157.54" y1="106.836" x2="157.54" y2="30.6484" gradientUnits="userSpaceOnUse">
<stop stop-color="#46255E"/>
<stop offset="1" stop-color="#684A72"/>
</linearGradient>
<linearGradient id="paint29_linear_3_5400" x1="172.87" y1="30.0691" x2="172.87" y2="17.0815" gradientUnits="userSpaceOnUse">
<stop offset="0.02" stop-color="#FFA892"/>
<stop offset="1" stop-color="#FFCEA8"/>
</linearGradient>
<linearGradient id="paint30_linear_3_5400" x1="167.907" y1="39.2272" x2="167.907" y2="16.7792" gradientUnits="userSpaceOnUse">
<stop offset="0.02" stop-color="#FFA892"/>
<stop offset="1" stop-color="#FFCEA8"/>
</linearGradient>
<linearGradient id="paint31_linear_3_5400" x1="161.596" y1="62.9474" x2="167.781" y2="38.1311" gradientUnits="userSpaceOnUse">
<stop stop-color="#FFCEA8"/>
<stop offset="0.98" stop-color="#FFA892"/>
</linearGradient>
<linearGradient id="paint32_linear_3_5400" x1="186.225" y1="70.9565" x2="206.563" y2="0.49269" gradientUnits="userSpaceOnUse">
<stop stop-color="#381447"/>
<stop offset="0.48" stop-color="#7D4A78"/>
<stop offset="1" stop-color="#A896AD"/>
</linearGradient>
<linearGradient id="paint33_linear_3_5400" x1="192.903" y1="73.3426" x2="213.36" y2="2.46728" gradientUnits="userSpaceOnUse">
<stop stop-color="#381447"/>
<stop offset="0.48" stop-color="#7D4A78"/>
<stop offset="1" stop-color="#A896AD"/>
</linearGradient>
<linearGradient id="paint34_linear_3_5400" x1="197.744" y1="74.0061" x2="217.586" y2="5.26091" gradientUnits="userSpaceOnUse">
<stop stop-color="#360450"/>
<stop offset="1" stop-color="#56305C"/>
</linearGradient>
<linearGradient id="paint35_linear_3_5400" x1="202.143" y1="66.1194" x2="217.531" y2="12.8055" gradientUnits="userSpaceOnUse">
<stop stop-color="#381447"/>
<stop offset="0.48" stop-color="#7D4A78"/>
<stop offset="1" stop-color="#A896AD"/>
</linearGradient>
<linearGradient id="paint36_linear_3_5400" x1="207.967" y1="67.988" x2="223.386" y2="14.5652" gradientUnits="userSpaceOnUse">
<stop stop-color="#381447"/>
<stop offset="0.48" stop-color="#7D4A78"/>
<stop offset="1" stop-color="#A896AD"/>
</linearGradient>
<linearGradient id="paint37_linear_3_5400" x1="212.704" y1="67.7088" x2="226.988" y2="18.2195" gradientUnits="userSpaceOnUse">
<stop stop-color="#360450"/>
<stop offset="1" stop-color="#56305C"/>
</linearGradient>
<linearGradient id="paint38_linear_3_5400" x1="221.344" y1="49.9097" x2="219.946" y2="37.2622" gradientUnits="userSpaceOnUse">
<stop offset="0.02" stop-color="#9EADEF"/>
<stop offset="1" stop-color="#DCCBD5"/>
</linearGradient>
<linearGradient id="paint39_linear_3_5400" x1="220.597" y1="49.9867" x2="224.114" y2="37.7989" gradientUnits="userSpaceOnUse">
<stop offset="0.02" stop-color="#C1DAEF"/>
<stop offset="1" stop-color="#FFE5D5"/>
</linearGradient>
<linearGradient id="paint40_linear_3_5400" x1="124.926" y1="178.287" x2="124.926" y2="129.536" gradientUnits="userSpaceOnUse">
<stop stop-color="#684A72"/>
<stop offset="0.99" stop-color="#46255E"/>
</linearGradient>
<linearGradient id="paint41_linear_3_5400" x1="126.236" y1="-0.000428226" x2="126.236" y2="148.381" gradientUnits="userSpaceOnUse">
<stop offset="0.02" stop-color="#FFA892"/>
<stop offset="1" stop-color="#FFCEA8"/>
</linearGradient>
<linearGradient id="paint42_linear_3_5400" x1="138.707" y1="-0.000430826" x2="113.765" y2="-0.000430826" gradientUnits="userSpaceOnUse">
<stop stop-color="#9A1A43"/>
<stop offset="1" stop-color="#731653"/>
</linearGradient>
<linearGradient id="paint43_linear_3_5400" x1="70.3926" y1="117.228" x2="86.668" y2="117.228" gradientUnits="userSpaceOnUse">
<stop stop-color="white"/>
<stop offset="0.98" stop-color="#FAC8CD"/>
</linearGradient>
<clipPath id="clip0_3_5400">
<rect width="235.629" height="180" fill="white"/>
</clipPath>
</defs>
</svg>
