<svg width="53" height="51" viewBox="0 0 53 51" fill="none" xmlns="http://www.w3.org/2000/svg">
<path style="mix-blend-mode:screen" opacity="0.75" d="M25.7066 50.1564C39.4734 50.1564 50.6335 39.0288 50.6335 25.3022C50.6335 11.5756 39.4734 0.447998 25.7066 0.447998C11.9399 0.447998 0.779785 11.5756 0.779785 25.3022C0.779785 39.0288 11.9399 50.1564 25.7066 50.1564Z" fill="url(#paint0_radial_3_29305)"/>
<path fill-rule="evenodd" clip-rule="evenodd" d="M10.5633 27.4588C9.60176 21.9703 11.9454 15.7507 17.6062 13.9651C23.4954 12.1077 28.8678 15.3073 31.2836 18.3871C33.6993 15.2953 39.0717 12.1077 44.9609 13.9651C50.6217 15.7507 52.9654 21.9703 52.0039 27.4588C50.4775 36.1829 41.0067 44.7992 32.6777 48.0947C31.7403 48.4662 30.8389 48.4543 29.9014 48.0947C21.6445 44.8831 12.1017 36.1829 10.5753 27.4588H10.5633Z" fill="url(#paint1_radial_3_29305)"/>
<path style="mix-blend-mode:multiply" opacity="0.75" fill-rule="evenodd" clip-rule="evenodd" d="M32.8579 16.7458C37.7255 13.1267 43.9993 15.7032 46.8357 19.8256C48.939 22.8934 49.6841 27.2195 48.2779 31.8093C46.1747 38.628 36.9683 45.3269 31.2834 45.6625C26.9327 45.9141 21.9569 43.038 17.1494 39.2632C20.8512 43.1938 25.5505 46.3935 29.8893 48.0832C30.8267 48.4427 31.7281 48.4547 32.6656 48.0832C41.0066 44.7877 50.4654 36.1714 51.9917 27.4472C52.9532 21.9587 50.6096 15.7391 44.9488 13.9536C40.1292 12.4316 35.6342 14.3011 32.8459 16.7338L32.8579 16.7458Z" fill="url(#paint2_radial_3_29305)"/>
<path style="mix-blend-mode:multiply" opacity="0.75" fill-rule="evenodd" clip-rule="evenodd" d="M28.1708 22.7257C28.4352 22.2823 30.238 19.5021 31.2837 18.3876C28.8679 15.2958 23.4955 12.1081 17.6063 13.9656C14.6377 14.9003 12.5825 17.0574 11.4287 19.6938C15.5872 12.1321 27.9905 14.7086 27.618 21.1918C27.5939 21.5873 27.5819 21.9947 27.4978 22.3782C27.4136 22.8216 27.3896 23.0732 27.5579 23.1332C27.7261 23.2051 27.9665 23.0613 28.1588 22.7257H28.1708Z" fill="url(#paint3_radial_3_29305)"/>
<path style="mix-blend-mode:screen" fill-rule="evenodd" clip-rule="evenodd" d="M34.8653 43.7212C38.6632 42.3311 42.5333 39.7665 45.1173 36.2553C46.9922 33.7148 47.485 32.2647 44.0596 35.021C40.6944 37.7173 37.6056 39.5748 34.2884 41.5761C29.9857 44.1646 29.6852 45.6146 34.8773 43.7212H34.8653Z" fill="url(#paint4_radial_3_29305)"/>
<path style="mix-blend-mode:screen" fill-rule="evenodd" clip-rule="evenodd" d="M37.8217 15.2478C36.091 15.2239 34.6368 15.6912 33.4589 16.554C29.661 19.3103 27.5457 23.6963 27.077 28.2861C26.8126 30.8147 26.9448 33.6189 28.363 33.9664C28.9158 34.0982 29.6129 33.499 30.5264 32.3965C32.6417 29.856 34.0599 27.615 36.3314 25.6018C39.9851 22.3781 41.7038 22.0905 44.3359 22.2583C45.9945 22.3662 46.5473 22.51 46.8718 22.0785C47.2204 21.6351 47.1843 20.7364 46.1387 19.3223C44.396 16.9495 40.9105 15.2838 37.8217 15.2358V15.2478Z" fill="url(#paint5_radial_3_29305)"/>
<path style="mix-blend-mode:screen" fill-rule="evenodd" clip-rule="evenodd" d="M35.0456 15.895C31.404 17.2971 28.1108 22.9055 27.7503 26.2969C27.6541 27.2556 27.8704 27.9147 28.1469 27.9506C28.6036 28.0106 29.1805 27.3275 29.8295 26.3808C30.4184 25.506 31.452 24.1039 32.2933 23.2051C35.0096 20.305 36.7403 19.4782 40.5622 18.7711C42.0405 18.4955 42.7496 18.2199 42.7977 17.6806C42.8458 17.1054 42.1487 16.2665 40.8146 15.8231C39.1801 15.2719 36.8364 15.2239 35.0456 15.907V15.895Z" fill="url(#paint6_radial_3_29305)"/>
<path style="mix-blend-mode:screen" fill-rule="evenodd" clip-rule="evenodd" d="M36.8002 16.2665C34.5887 16.7099 32.6177 18.0401 31.4038 20.0414C31.1153 20.5087 31.0432 20.9761 31.2115 21.1678C31.3677 21.3476 31.7283 21.2757 32.2691 20.9881C33.0503 20.5806 34.2642 19.8496 35.394 19.2864C36.3675 18.7951 37.2689 18.4595 37.7497 18.3277C39.9251 17.7405 40.0452 15.6194 36.8122 16.2665H36.8002Z" fill="url(#paint7_radial_3_29305)"/>
<path style="mix-blend-mode:screen" fill-rule="evenodd" clip-rule="evenodd" d="M12.5945 18.2198C8.9889 22.2823 10.8999 28.9931 11.8494 30.9705C12.2941 31.8932 12.7267 32.8399 13.1714 33.6308C13.7844 34.7214 15.5511 36.7346 15.5151 34.3738C15.5151 33.8705 15.467 33.2234 15.491 32.5403C15.7554 26.8001 17.1977 22.2104 24.8176 22.7616C26.38 22.8695 27.2333 23.2889 27.4377 21.3236C27.5218 20.5326 27.4136 19.526 26.8367 18.6632C23.7239 14.0135 16.1521 14.1933 12.5825 18.2318L12.5945 18.2198Z" fill="url(#paint8_radial_3_29305)"/>
<path style="mix-blend-mode:screen" fill-rule="evenodd" clip-rule="evenodd" d="M15.9595 16.1945C12.2457 17.7524 10.3467 21.9467 10.9116 25.9732C11.0438 26.9439 11.3924 27.615 11.6808 27.639C12.1616 27.6989 12.5942 27.0038 13.0269 26.0451C13.4355 25.1583 13.9523 24.0439 14.6134 23.1331C16.7167 20.1851 18.2551 19.502 21.4641 18.6392C23.2308 18.1598 23.6515 17.9681 23.6755 17.5367C23.7957 15.5714 19.0483 14.9003 15.9595 16.1945Z" fill="url(#paint9_radial_3_29305)"/>
<path style="mix-blend-mode:screen" fill-rule="evenodd" clip-rule="evenodd" d="M17.9547 16.0267C15.6231 16.518 13.7602 17.98 12.8828 20.173C12.6785 20.6883 12.7025 21.2036 12.9309 21.4193C13.1472 21.6231 13.5318 21.5272 14.0486 21.2276C14.8058 20.7722 15.9836 19.9693 17.0894 19.3462C18.0509 18.8069 18.9643 18.4354 19.457 18.2916C21.7166 17.6445 21.356 15.3196 17.9547 16.0267ZM11.2603 23.6962C11.092 24.619 11.5968 26.4765 12.4381 25.2901C12.7506 24.8467 12.991 24.3314 13.1953 23.8161C13.3515 23.3966 13.2554 22.6656 12.8107 22.378C11.8492 21.7549 11.3805 23.0491 11.2723 23.6962H11.2603Z" fill="url(#paint10_radial_3_29305)"/>
<path style="mix-blend-mode:screen" opacity="0.75" d="M18.0505 32.121C24.7215 32.121 30.1293 26.7288 30.1293 20.0773C30.1293 13.4258 24.7215 8.03369 18.0505 8.03369C11.3796 8.03369 5.97168 13.4258 5.97168 20.0773C5.97168 26.7288 11.3796 32.121 18.0505 32.121Z" fill="url(#paint11_radial_3_29305)"/>
<defs>
<radialGradient id="paint0_radial_3_29305" cx="0" cy="0" r="1" gradientUnits="userSpaceOnUse" gradientTransform="translate(25.7066 25.3022) scale(24.9269 24.8542)">
<stop stop-color="#FF3F36"/>
<stop offset="0.13" stop-color="#CD322B"/>
<stop offset="0.31" stop-color="#8F231E"/>
<stop offset="0.48" stop-color="#5C1613"/>
<stop offset="0.64" stop-color="#340C0B"/>
<stop offset="0.78" stop-color="#170505"/>
<stop offset="0.91" stop-color="#060101"/>
<stop offset="1"/>
</radialGradient>
<radialGradient id="paint1_radial_3_29305" cx="0" cy="0" r="1" gradientUnits="userSpaceOnUse" gradientTransform="translate(20.5989 21.1194) scale(37.21 37.1016)">
<stop stop-color="#FF2B2F"/>
<stop offset="0.08" stop-color="#F02629"/>
<stop offset="0.38" stop-color="#BD1517"/>
<stop offset="0.65" stop-color="#98090A"/>
<stop offset="0.86" stop-color="#820202"/>
<stop offset="1" stop-color="#7A0000"/>
</radialGradient>
<radialGradient id="paint2_radial_3_29305" cx="0" cy="0" r="1" gradientUnits="userSpaceOnUse" gradientTransform="translate(23.4232 26.2728) scale(32.6309 32.5358)">
<stop offset="0.59" stop-color="white"/>
<stop offset="0.67" stop-color="#EDCECE"/>
<stop offset="0.86" stop-color="#C25757"/>
<stop offset="1" stop-color="#A30000"/>
</radialGradient>
<radialGradient id="paint3_radial_3_29305" cx="0" cy="0" r="1" gradientUnits="userSpaceOnUse" gradientTransform="translate(16.0199 23.217) scale(16.2373 16.19)">
<stop offset="0.41" stop-color="white"/>
<stop offset="0.5" stop-color="#EDCECE"/>
<stop offset="0.64" stop-color="#D38686"/>
<stop offset="0.76" stop-color="#BE4C4C"/>
<stop offset="0.87" stop-color="#AF2222"/>
<stop offset="0.95" stop-color="#A60909"/>
<stop offset="1" stop-color="#A30000"/>
</radialGradient>
<radialGradient id="paint4_radial_3_29305" cx="0" cy="0" r="1" gradientUnits="userSpaceOnUse" gradientTransform="translate(26.1517 21.6112) scale(31.7896 31.6969)">
<stop stop-color="#FF6969"/>
<stop offset="1"/>
</radialGradient>
<radialGradient id="paint5_radial_3_29305" cx="0" cy="0" r="1" gradientUnits="userSpaceOnUse" gradientTransform="translate(34.9853 33.3432) scale(33.2318 33.135)">
<stop/>
<stop offset="0.1" stop-color="#120707"/>
<stop offset="0.31" stop-color="#411A1A"/>
<stop offset="0.6" stop-color="#8D3838"/>
<stop offset="0.96" stop-color="#F46161"/>
<stop offset="1" stop-color="#FF6666"/>
</radialGradient>
<radialGradient id="paint6_radial_3_29305" cx="0" cy="0" r="1" gradientUnits="userSpaceOnUse" gradientTransform="translate(35.0336 25.494) scale(23.5207 23.4521)">
<stop/>
<stop offset="1" stop-color="#FF6666"/>
</radialGradient>
<radialGradient id="paint7_radial_3_29305" cx="0" cy="0" r="1" gradientUnits="userSpaceOnUse" gradientTransform="translate(38.7472 25.8774) scale(12.4875 12.4511)">
<stop/>
<stop offset="1" stop-color="#FFADAD"/>
</radialGradient>
<radialGradient id="paint8_radial_3_29305" cx="0" cy="0" r="1" gradientUnits="userSpaceOnUse" gradientTransform="translate(18.0751 32.744) scale(25.5398 25.4654)">
<stop/>
<stop offset="0.1" stop-color="#120707"/>
<stop offset="0.31" stop-color="#411A1A"/>
<stop offset="0.6" stop-color="#8D3838"/>
<stop offset="0.96" stop-color="#F46161"/>
<stop offset="1" stop-color="#FF6666"/>
</radialGradient>
<radialGradient id="paint9_radial_3_29305" cx="0" cy="0" r="1" gradientUnits="userSpaceOnUse" gradientTransform="translate(18.5916 24.3554) scale(17.8839 17.8318)">
<stop/>
<stop offset="1" stop-color="#FF6666"/>
</radialGradient>
<radialGradient id="paint10_radial_3_29305" cx="0" cy="0" r="1" gradientUnits="userSpaceOnUse" gradientTransform="translate(22.2093 28.6096) scale(16.5137 16.4656)">
<stop/>
<stop offset="1" stop-color="#FFADAD"/>
</radialGradient>
<radialGradient id="paint11_radial_3_29305" cx="0" cy="0" r="1" gradientUnits="userSpaceOnUse" gradientTransform="translate(18.0505 20.0773) scale(12.0788 12.0436)">
<stop stop-color="#FF3F36"/>
<stop offset="0.13" stop-color="#CD322B"/>
<stop offset="0.31" stop-color="#8F231E"/>
<stop offset="0.48" stop-color="#5C1613"/>
<stop offset="0.64" stop-color="#340C0B"/>
<stop offset="0.78" stop-color="#170505"/>
<stop offset="0.91" stop-color="#060101"/>
<stop offset="1"/>
</radialGradient>
</defs>
</svg>
