<svg width="221" height="180" viewBox="0 0 221 180" fill="none" xmlns="http://www.w3.org/2000/svg">
<path fill-rule="evenodd" clip-rule="evenodd" d="M69.4097 120.552C69.4097 120.552 80.5611 129.354 104.508 127.986C128.47 126.632 141.113 114.43 141.113 114.43L69.4097 120.552Z" fill="url(#paint0_linear_3_5208)"/>
<path fill-rule="evenodd" clip-rule="evenodd" d="M43.9978 84.7065C41.8559 90.9248 37.9177 88.5895 37.9177 88.5895C37.9177 88.5895 30.6907 98.4144 24.9008 114.375C23.3531 118.589 21.9298 123.26 20.7691 128.276C20.7691 128.276 24.5553 132.297 24.9422 136.194C24.9422 136.194 22.4411 143.96 22.1785 147.29C21.916 150.62 21.8883 152.679 21.8883 152.679C21.8883 152.679 20.1196 153.066 17.6185 152.03C17.6185 152.03 16.1123 147.815 16.969 144.982C17.8396 142.136 19.8018 139.883 19.8018 139.883C19.8018 139.883 19.4148 138.336 18.2956 137.824C18.2956 137.824 15.9879 141.141 14.4402 146.945C14.4402 146.945 14.841 153.743 13.694 160.348C13.694 160.348 10.5849 161.026 9.03723 160.044L8.76086 158.773L6.39792 158.027L4.11788 156.327L2.34913 156.189C2.34913 156.189 0.414552 153.771 0 149.086L1.74112 146.903C1.74112 146.903 1.86548 144.015 2.5564 142.454C3.24732 140.892 4.40807 138.046 7.40666 133.541C9.64524 130.169 14.2468 120.455 19.2905 109.704H19.3043C20.9901 106.125 22.7174 102.436 24.4447 98.8289C29.2259 88.8106 35.61 80.713 39.0923 76.6642C40.6261 74.8816 41.5934 73.8867 41.5934 73.8867C41.5934 73.8867 46.1535 78.4606 44.0116 84.6789L43.9978 84.7065Z" fill="url(#paint1_linear_3_5208)"/>
<path fill-rule="evenodd" clip-rule="evenodd" d="M21.902 152.693C21.902 152.693 20.1333 153.08 17.6321 152.044C17.6321 152.044 16.1259 147.829 16.9827 144.996C17.8532 142.15 19.8154 139.897 19.8154 139.897C19.8154 139.897 19.4285 138.349 18.3092 137.838C18.3092 137.838 16.0016 141.155 14.4539 146.958C14.4539 146.958 14.8546 153.757 13.7077 160.362C13.7077 160.362 10.5986 161.039 9.05091 160.058L8.77454 158.787L6.41159 158.041L4.13155 156.341L2.3628 156.203C2.3628 156.203 0.428224 153.785 0.0136719 149.1L1.75479 146.917C1.75479 146.917 1.87916 144.029 2.57008 142.467C3.261 140.906 4.42174 138.059 7.42033 133.555C9.65891 130.183 14.2604 120.468 19.3042 109.718H19.318C19.318 109.718 24.0577 111.279 24.9282 114.361C24.9282 114.361 24.9282 114.361 24.9282 114.375C23.3806 118.589 21.9573 123.26 20.7965 128.276C20.7965 128.276 24.5828 132.297 24.9697 136.194C24.9697 136.194 22.4686 143.96 22.206 147.29C21.9435 150.62 21.9158 152.679 21.9158 152.679L21.902 152.693Z" fill="url(#paint2_linear_3_5208)"/>
<path fill-rule="evenodd" clip-rule="evenodd" d="M8.7468 158.787C8.7468 158.787 8.63625 152.113 9.36863 148.603C10.101 145.093 10.7781 142.965 10.7781 142.965L8.34607 149.349C8.34607 149.349 7.04714 154.254 8.18025 158.621L8.7468 158.801V158.787Z" fill="#FF7F85"/>
<path fill-rule="evenodd" clip-rule="evenodd" d="M4.75361 156.825C4.75361 156.825 4.03505 151.629 4.40815 148.948C4.78124 146.253 5.20962 143.117 5.20962 143.117C5.20962 143.117 3.80014 147.566 3.66195 149.349C3.52377 151.131 4.11796 156.355 4.11796 156.355L4.75361 156.838V156.825Z" fill="#FF7F85"/>
<path fill-rule="evenodd" clip-rule="evenodd" d="M3.34433 156.286C3.34433 156.286 1.8934 153.619 2.16977 151.09C2.16977 151.09 2.62578 154.088 4.10435 156.341L3.33051 156.286H3.34433Z" fill="#FF7F85"/>
<g style="mix-blend-mode:multiply">
<path fill-rule="evenodd" clip-rule="evenodd" d="M43.9979 84.7067C41.8561 90.925 37.9178 88.5897 37.9178 88.5897L35.6102 92.0719C33.7585 92.3207 30.3315 89.5432 29.917 89.0181C34.6291 81.5699 41.5659 73.9146 41.5659 73.9146C41.5659 73.9146 46.126 78.4884 43.9841 84.7067H43.9979Z" fill="#5E364C"/>
</g>
<path fill-rule="evenodd" clip-rule="evenodd" d="M143.863 175.977C130.252 178.396 116.751 177.719 116.751 177.719C116.751 177.719 117.152 164.674 118.161 149.764C118.299 147.774 118.41 145.729 118.52 143.684C118.52 143.532 118.548 143.366 118.548 143.214C118.631 141.639 118.7 140.077 118.783 138.53C119.294 126.922 119.377 119.322 119.377 119.322L127.544 116.31C126.839 119.723 126.12 129.423 125.803 138.792C125.761 139.524 125.761 140.243 125.733 140.975C125.485 149.819 125.664 157.889 126.632 159.451C128.704 162.781 141.652 167.825 141.652 167.825C144.471 171.556 143.863 175.991 143.863 175.991V175.977Z" fill="url(#paint3_linear_3_5208)"/>
<path fill-rule="evenodd" clip-rule="evenodd" d="M143.863 175.978C130.252 178.396 116.751 177.719 116.751 177.719C116.751 177.719 117.152 164.674 118.161 149.764C118.299 147.774 118.41 145.729 118.52 143.684C118.52 143.684 118.382 143.504 118.548 143.214C118.866 142.648 120.248 141.694 125.733 140.976C125.485 149.819 125.664 157.889 126.632 159.451C128.704 162.781 141.652 167.825 141.652 167.825C144.471 171.556 143.863 175.991 143.863 175.991V175.978Z" fill="url(#paint4_linear_3_5208)"/>
<g style="mix-blend-mode:soft-light" opacity="0.7">
<path fill-rule="evenodd" clip-rule="evenodd" d="M126.618 159.437C126.618 159.437 121.533 164.881 121.533 166.388C121.533 166.388 132.726 168.004 141.638 167.811C141.638 167.811 128.373 161.399 126.618 159.437Z" fill="white"/>
</g>
<path fill-rule="evenodd" clip-rule="evenodd" d="M116.752 177.719V179.999C116.752 179.999 137.078 179.639 144.25 177.401L143.849 175.978C143.849 175.978 131.316 177.802 116.738 177.719H116.752Z" fill="url(#paint5_linear_3_5208)"/>
<g style="mix-blend-mode:multiply">
<path fill-rule="evenodd" clip-rule="evenodd" d="M127.544 116.31C126.839 119.723 126.12 129.423 125.803 138.792C123.136 138.723 120.51 138.612 118.769 138.53C119.28 126.922 119.363 119.322 119.363 119.322L127.53 116.31H127.544Z" fill="#5E364C"/>
</g>
<path fill-rule="evenodd" clip-rule="evenodd" d="M88.9353 119.695C84.0574 125.568 79.4835 134.384 76.7889 141.542C76.4435 142.454 76.1256 143.366 75.8078 144.278C70.1008 160.874 69.2303 176.779 69.2303 176.779C58.4381 178.589 41.2065 176.779 41.2065 176.779C41.5382 172.938 44.979 168.212 44.979 168.212C54.8038 166.705 59.6403 162.615 59.6403 162.615C62.7218 153.315 66.2593 145.37 69.4375 139.096C70.1837 137.632 70.9161 136.25 71.6208 134.965C75.8631 127.212 81.2799 119.377 81.2799 119.377L88.9353 119.681V119.695Z" fill="url(#paint6_linear_3_5208)"/>
<path fill-rule="evenodd" clip-rule="evenodd" d="M75.8078 144.278C70.1008 160.874 69.2303 176.779 69.2303 176.779C58.4381 178.589 41.2065 176.779 41.2065 176.779C41.5382 172.937 44.979 168.212 44.979 168.212C54.8038 166.705 59.6403 162.615 59.6403 162.615C62.7218 153.315 66.2593 145.37 69.4375 139.096C69.4375 139.096 74.6194 140.934 75.794 144.278H75.8078Z" fill="url(#paint7_linear_3_5208)"/>
<g style="mix-blend-mode:multiply">
<path fill-rule="evenodd" clip-rule="evenodd" d="M88.9351 119.695C84.0572 125.568 79.4833 134.384 76.7887 141.542L71.6206 134.978C75.8629 127.226 81.2797 119.391 81.2797 119.391L88.9351 119.695Z" fill="#5E364C"/>
</g>
<path fill-rule="evenodd" clip-rule="evenodd" d="M41.2065 176.779V179.404C41.2065 179.404 61.105 180.745 69.2164 179.404V176.779C69.2164 176.779 50.4372 176.392 41.2065 176.779Z" fill="url(#paint8_linear_3_5208)"/>
<path fill-rule="evenodd" clip-rule="evenodd" d="M211.297 73.4034L210.344 73.4586L210.827 70.8469C210.634 67.5443 209.045 66.356 209.045 66.356L207.525 66.66C207.235 65.3472 205.259 63.6752 205.259 63.6752C202.992 64.6978 201.707 66.356 201.707 66.356C202.08 63.4679 196.166 64.5043 192.297 62.473C190.791 60.8977 187.861 60.8839 187.751 61.5333C187.626 62.169 188.552 65.4992 188.538 67.7516C188.511 69.9764 185.747 73.127 185.885 75.5037C186.023 77.8667 189.906 83.4217 189.906 83.4217C189.906 83.4217 183.716 88.5898 178.7 90.1374C177.442 90.5382 176.268 90.6902 175.259 90.4967C172.689 89.9854 170.063 86.5308 168.142 83.3388C166.346 80.3402 165.158 77.5489 165.158 77.5489L160.708 81.9155C160.708 81.9155 161.952 87.8021 164.881 92.68C167.037 96.2866 170.105 99.3405 174.278 99.1056C176.337 98.995 178.354 98.5667 180.261 97.9448C189.644 94.9186 196.829 87.1941 196.829 87.1941C207.373 82.938 212.168 78.4885 212.168 78.4885C212.817 75.2274 211.297 73.4034 211.297 73.4034ZM193.541 71.828C193.541 71.828 192.145 70.7502 192.131 70.3771C192.103 70.004 193.002 68.9124 193.126 68.4149C193.237 67.9865 193.706 64.9189 192.78 63.1086C192.919 63.2468 193.043 63.3988 193.167 63.5094C194.287 64.4767 197.258 64.7669 197.258 64.7669C197.05 69.5204 193.554 71.8142 193.554 71.8142L193.541 71.828Z" fill="url(#paint9_linear_3_5208)"/>
<g style="mix-blend-mode:multiply">
<path fill-rule="evenodd" clip-rule="evenodd" d="M164.909 92.7076L164.881 92.68C161.952 87.7883 160.708 81.9154 160.708 81.9154L165.158 77.5488C165.158 77.5488 166.36 80.3263 168.142 83.3387C167.907 83.6151 164.273 88.037 164.895 92.7214L164.909 92.7076Z" fill="#5E364C"/>
</g>
<path fill-rule="evenodd" clip-rule="evenodd" d="M168.281 60.1377C165.655 82.8966 157.323 106.954 144.458 113.007C122.832 123.191 76.9272 125.789 63.3023 118.313C49.7326 110.865 37.4066 91.2567 31.5614 70.8746C27.2225 55.7573 26.4486 40.2116 31.368 28.9081C37.0473 15.8221 54.196 2.80515 95.5268 0.469844C131.496 -1.57528 161.496 5.91429 167.106 26.4208C169.441 34.9606 169.773 47.3418 168.281 60.1377Z" fill="url(#paint10_linear_3_5208)"/>
<path style="mix-blend-mode:multiply" opacity="0.3" fill-rule="evenodd" clip-rule="evenodd" d="M58.9632 20.4235C58.9632 20.4235 52.2889 26.7523 52.4686 36.5634C52.4686 36.5634 59.3778 46.2915 72.0354 48.5992C72.0354 48.5992 93.4263 44.6057 99.2162 31.6026C99.2162 31.6026 89.6815 51.7774 72.602 56.8902C72.602 56.8902 53.7675 52.3025 48.019 36.5772C48.019 36.5772 52.1093 26.3378 58.9494 20.4097L58.9632 20.4235Z" fill="url(#paint11_linear_3_5208)"/>
<path style="mix-blend-mode:multiply" opacity="0.3" fill-rule="evenodd" clip-rule="evenodd" d="M66.7014 29.2121L67.0607 35.4994C67.0607 35.4994 71.0819 38.1111 75.7939 38.0835C80.506 38.0558 83.3802 33.0674 83.3802 33.0674C83.3802 33.0674 83.9744 41.3032 73.279 42.6159C73.279 42.6159 66.7014 39.9075 63.5923 35.914C63.5923 35.914 64.9189 31.8237 66.7014 29.1982V29.2121Z" fill="url(#paint12_linear_3_5208)"/>
<path style="mix-blend-mode:multiply" opacity="0.3" fill-rule="evenodd" clip-rule="evenodd" d="M39.4932 49.6079C39.4932 49.6079 50.6999 69.4511 54.265 71.6897C57.8302 73.9283 72.1737 68.7049 72.1737 68.7049C72.1737 68.7049 55.6883 81.8324 53.9196 81.1C52.137 80.3815 40.5848 54.1956 39.507 49.6079H39.4932Z" fill="url(#paint13_linear_3_5208)"/>
<path style="mix-blend-mode:multiply" opacity="0.3" fill-rule="evenodd" clip-rule="evenodd" d="M31.4921 31.2156C31.4921 31.2156 41.4414 27.609 47.7564 21.0591C54.0714 14.5092 58.0649 7.37891 58.0649 7.37891C58.0649 7.37891 53.1179 31.644 29.5161 34.8084L31.506 31.2156H31.4921Z" fill="url(#paint14_linear_3_5208)"/>
<path style="mix-blend-mode:multiply" opacity="0.3" fill-rule="evenodd" clip-rule="evenodd" d="M103.942 35.3197C103.942 35.3197 121.312 46.5402 130.101 46.8166C138.889 47.093 151.298 30.0825 151.298 30.0825C151.298 30.0825 149.004 47.853 130.294 52.1781C130.294 52.1781 116.711 52.2196 103.956 35.3059L103.942 35.3197Z" fill="url(#paint15_linear_3_5208)"/>
<path style="mix-blend-mode:multiply" opacity="0.3" fill-rule="evenodd" clip-rule="evenodd" d="M132.836 25.2324L132.09 30.3176C132.09 30.3176 128.428 35.1817 116.586 31.202L117.387 34.5598C117.387 34.5598 125.665 39.0508 127.986 39.2166C130.308 39.3825 136.775 30.9118 136.775 30.9118L132.85 25.2324H132.836Z" fill="url(#paint16_linear_3_5208)"/>
<path style="mix-blend-mode:multiply" opacity="0.3" fill-rule="evenodd" clip-rule="evenodd" d="M73.1964 68.2492C73.1964 68.2492 79.3456 65.223 83.8919 65.2644C88.4381 65.3059 100.999 62.7909 100.999 62.7909L113.353 64.0346C113.353 64.0346 125.748 63.7029 132.464 64.5044C139.179 65.3197 146.42 66.7983 148.189 66.3561C149.958 65.9139 160.142 45.1172 160.142 45.1172C160.142 45.1172 152.749 74.1635 148.507 75.7802C148.507 75.7802 132.657 65.7481 126.273 64.8637C119.889 63.9793 102.022 68.9816 102.022 68.9816L95.0433 68.8848C95.0433 68.8848 83.118 66.5357 73.1826 68.263L73.1964 68.2492Z" fill="url(#paint17_linear_3_5208)"/>
<path style="mix-blend-mode:multiply" opacity="0.3" fill-rule="evenodd" clip-rule="evenodd" d="M78.0742 7.91813C78.0742 7.91813 85.6329 14.164 91.9203 13.8048C98.2076 13.4455 98.5669 7.9734 98.5669 7.9734L100.377 7.15812C100.377 7.15812 100.267 13.7219 105.476 13.0309C110.686 12.34 120.331 4.03516 120.331 4.03516C120.331 4.03516 110.354 17.9917 99.5895 19.111C88.8249 20.2303 78.088 7.90431 78.088 7.90431L78.0742 7.91813Z" fill="url(#paint18_linear_3_5208)"/>
<path fill-rule="evenodd" clip-rule="evenodd" d="M91.1738 0.69092L97.8343 6.79865L98.7463 48.5993L102.947 93.5229L102.519 52.4823L100.363 7.15793L105.835 0L91.1738 0.69092Z" fill="#FF7F85"/>
<path fill-rule="evenodd" clip-rule="evenodd" d="M99.2299 31.6167C99.2299 31.6167 89.4188 50.5065 72.2978 55.716C72.2978 55.716 52.8692 49.705 48.9171 36.1354C48.9171 36.1354 53.0073 18.7104 70.5014 14.8412C70.5014 14.8412 81.7358 20.714 82.1089 36.5637C82.1089 36.5637 78.9997 40.4882 72.3807 41.3173C72.3807 41.3173 66.1901 39.0925 64.4075 34.2008L66.7014 29.2262L57.7194 38.982L63.3988 37.6416C63.3988 37.6416 70.2251 43.1137 73.4724 44.454C73.4724 44.454 84.0987 39.4656 85.5082 34.9884C85.5082 34.9884 78.599 17.3562 70.156 12.6855C70.156 12.6855 55.6743 16.3889 46.3745 36.6052C46.3745 36.6052 51.3491 52.1233 72.9058 58.3277C72.9058 58.3277 85.674 51.5429 92.5556 43.3762C92.5556 43.3762 97.1709 40.1842 99.7273 40.2394L99.2437 31.6306L99.2299 31.6167Z" fill="#FF7F85"/>
<path fill-rule="evenodd" clip-rule="evenodd" d="M101.994 64.5457L96.2456 68.0556C96.2456 68.0556 79.166 67.0054 74.7027 67.7792C70.2393 68.5669 57.2777 78.5576 54.514 79.746C51.7503 80.9343 40.2396 47.8945 37.9457 47.5767C35.6519 47.2589 30.8154 59.806 32.0591 70.2113C33.3028 80.6165 43.3487 84.9969 44.2331 84.4857C45.1175 83.9882 43.9429 73.9422 42.4782 69.6171C41.0272 65.2919 36.8955 63.0948 36.8955 63.0948C36.8955 63.0948 35.721 69.3269 37.4483 72.7538C37.4483 72.7538 37.0475 67.8759 38.001 66.2177C38.001 66.2177 40.7094 67.6272 41.9807 72.3946C43.252 77.1619 42.6578 82.4544 42.6578 82.4544C42.6578 82.4544 34.7675 78.8339 33.2198 70.9713C31.6722 63.1086 34.4773 52.8415 36.2599 51.9019C38.0425 50.976 50.5481 80.9482 54.9562 83.8915C54.9562 83.8915 65.5825 71.3444 74.7718 68.9123C83.961 66.4665 99.9627 69.8105 101.607 71.828L101.994 64.5319V64.5457Z" fill="#FF7F85"/>
<path fill-rule="evenodd" clip-rule="evenodd" d="M31.3677 28.9083L31.6579 34.0902C31.6579 34.0902 39.5897 32.0313 47.2589 24.9286C54.9281 17.826 54.9834 9.85275 54.9834 9.85275L51.3215 10.06L60.8562 6.2876C60.8562 6.2876 53.2284 30.3869 29.0601 36.1768L31.3401 28.9221L31.3677 28.9083Z" fill="#FF7F85"/>
<path fill-rule="evenodd" clip-rule="evenodd" d="M72.7681 3.21972C72.7681 3.21972 83.27 17.5218 98.6361 21.0316L99.2441 16.0017L95.4579 18.3371C95.4579 18.3371 79.926 12.9755 74.1361 2.94336L72.7681 3.20591V3.21972Z" fill="#FF7F85"/>
<path fill-rule="evenodd" clip-rule="evenodd" d="M43.2935 97.4891C43.2935 97.4891 46.1124 86.6693 48.5721 84.5136C51.0318 82.3579 64.3251 103.21 66.9229 112.758C69.5208 122.307 60.9948 116.932 60.9948 116.932L58.3555 115.038C58.3555 115.038 62.5839 117.664 65.0022 116.71C67.4066 115.757 54.2929 86.7936 50.1197 86.6555C45.9466 86.5173 44.0811 98.7466 44.0811 98.7466L43.2935 97.5029V97.4891Z" fill="#FF7F85"/>
<path fill-rule="evenodd" clip-rule="evenodd" d="M52.7037 109.87C52.7037 109.87 55.7576 110.036 56.1445 108.875C56.5314 107.715 52.9386 101.634 52.9386 101.634L50.5757 101.317L53.5052 95.5405L53.7401 101.054C53.7401 101.054 57.1809 107.065 57.0703 109.124C56.9598 111.169 54.1685 111.349 54.1685 111.349L52.6899 109.856L52.7037 109.87Z" fill="#FF7F85"/>
<path fill-rule="evenodd" clip-rule="evenodd" d="M100.792 31.2984C100.792 31.2984 112.675 48.9445 130.28 52.1918C130.28 52.1918 148.894 44.0113 151.284 30.0962C151.284 30.0962 145.259 13.2516 127.434 11.3861C127.434 11.3861 116.932 18.4887 118.355 34.2832C118.355 34.2832 121.892 37.8345 128.553 37.9036C128.553 37.9036 134.439 34.9879 135.669 29.9304L132.823 25.2459L142.855 33.9101L137.065 33.2192C137.065 33.2192 130.902 39.4374 127.82 41.1233C127.82 41.1233 116.697 37.3647 114.79 33.081C114.79 33.081 119.654 14.7854 127.516 9.18896C127.516 9.18896 142.33 11.2203 153.854 30.262C153.854 30.262 150.676 46.2499 129.948 54.845C129.948 54.845 116.503 49.5525 108.737 42.2149C108.737 42.2149 103.79 39.5618 101.261 39.9073L100.778 31.2984H100.792Z" fill="#FF7F85"/>
<path fill-rule="evenodd" clip-rule="evenodd" d="M101.095 64.601L106.954 67.4476C106.954 67.4476 123.094 64.5043 127.419 64.7944C131.758 65.0846 145.19 73.583 147.954 74.4397C150.703 75.3102 159.478 39.6173 161.62 39.0508C163.762 38.4704 168.28 51.9986 168.253 62.473C168.225 72.9473 159.146 78.4056 158.262 78.0048C157.364 77.6041 157.378 67.5029 158.276 63.0395C159.188 58.5762 162.864 55.9368 162.864 55.9368C162.864 55.9368 164.674 61.9893 163.416 65.5959C163.416 65.5959 163.251 60.7042 162.159 59.1565C162.159 59.1565 159.741 60.8562 159.05 65.7341C158.359 70.6258 159.52 75.8077 159.52 75.8077C159.52 75.8077 166.622 71.3444 167.23 63.3573C167.824 55.3703 164.701 43.8872 162.905 43.1548C161.109 42.4225 151.85 75.1859 147.981 78.6128C147.981 78.6128 136.484 67.3232 127.475 65.9137C118.465 64.5043 103.223 69.6447 101.883 71.8418L101.082 64.5872L101.095 64.601Z" fill="#FF7F85"/>
<path fill-rule="evenodd" clip-rule="evenodd" d="M164.37 20.1059L164.66 25.2878C164.66 25.2878 160.073 24.9562 151.643 18.7793C143.214 12.6025 141.556 6.20459 141.556 6.20459L143.698 5.34786L136.084 3.16455C136.084 3.16455 142.772 24.0441 167.438 27.0704L164.356 20.1197L164.37 20.1059Z" fill="#FF7F85"/>
<path fill-rule="evenodd" clip-rule="evenodd" d="M123.592 1.03642C123.592 1.03642 115.038 15.4905 100.183 20.7276L99.0088 15.7945L103.03 17.6876C103.03 17.6876 117.443 11.4831 122.058 0.870605L123.592 1.03642Z" fill="#FF7F85"/>
<path fill-rule="evenodd" clip-rule="evenodd" d="M161.206 90.5798C161.206 90.5798 157.571 80.1331 155.167 78.24C152.776 76.3607 143.297 98.4978 142.026 108.267C140.754 118.037 148.106 110.575 148.106 110.575L150.4 108.654C150.4 108.654 146.365 112.662 144.14 111.985C141.915 111.307 150.372 81.1142 154.034 80.52C157.696 79.9397 160.639 91.8926 160.639 91.8926L161.206 90.566V90.5798Z" fill="#FF7F85"/>
<path fill-rule="evenodd" clip-rule="evenodd" d="M154.241 103.873C154.241 103.873 151.574 104.37 151.104 103.251C150.635 102.145 153.163 95.7198 153.163 95.7198L155.208 95.1533L152.016 89.7227L152.389 95.2362C152.389 95.2362 149.999 101.579 150.317 103.61C150.635 105.641 153.108 105.517 153.108 105.517L154.241 103.873Z" fill="#FF7F85"/>
<path style="mix-blend-mode:multiply" opacity="0.5" fill-rule="evenodd" clip-rule="evenodd" d="M161.883 68.5809C159.271 69.3686 158.608 65.6514 158.608 65.6514L157.309 67.6413C155.526 76.2778 141.266 94.0482 141.266 94.0482C141.266 94.0482 119.681 128.829 83.3805 116.323C67.8348 110.962 65.8173 87.3601 75.5317 81.9571C83.3943 77.5905 96.4527 82.8692 95.6236 81.9571C96.9778 76.5127 95.5131 69.714 93.5923 69.1475C67.0334 61.3125 56.711 84.0714 54.9561 83.9055C44.9792 83.0073 44.1639 75.5592 44.1639 75.5592C44.1639 75.5592 44.233 78.3367 42.8373 78.3644C41.4279 78.392 34.5325 72.533 34.5325 72.533C33.0954 72.8094 32.0452 70.6261 32.0452 70.6261L31.5615 70.8886C37.4067 91.2707 49.7327 110.879 63.3024 118.327C76.9273 125.803 122.832 123.205 144.458 113.021C157.323 106.955 165.655 82.9106 168.281 60.1655C166.401 65.3889 161.883 68.5947 161.883 68.5947V68.5809Z" fill="url(#paint19_linear_3_5208)"/>
<path fill-rule="evenodd" clip-rule="evenodd" d="M92.998 43.0443L99.9349 32.1416C99.9349 32.1416 106.236 38.1664 108.198 41.5381C108.198 41.5381 102.408 38.7192 100.322 38.9403C98.2352 39.1613 92.998 43.0443 92.998 43.0443Z" fill="#E16070"/>
<path fill-rule="evenodd" clip-rule="evenodd" d="M95.043 68.871L102.104 70.4325L105.808 68.2492C105.808 68.2492 103.5 66.8812 101.358 66.9917C99.2161 67.1023 95.043 68.8572 95.043 68.8572V68.871Z" fill="#E16070"/>
<path fill-rule="evenodd" clip-rule="evenodd" d="M63.7998 51.9849C63.7998 51.9849 71.2065 56.1581 73.141 55.4395C75.0756 54.721 82.4823 50.6445 82.4823 50.6445C82.4823 50.6445 74.8269 58.1894 72.8923 58.2999C71.1374 58.3967 63.7998 51.9849 63.7998 51.9849Z" fill="#E16070"/>
<path fill-rule="evenodd" clip-rule="evenodd" d="M64.408 34.1865L65.32 37.7517L63.3854 37.6273L57.7061 38.9677L66.7018 29.2119L64.408 34.1865Z" fill="#E16070"/>
<path fill-rule="evenodd" clip-rule="evenodd" d="M149.833 26.9873L151.298 30.0964C151.298 30.0964 150.469 34.6565 148.258 37.6413C148.258 37.6413 153.509 32.4732 153.882 30.2484L149.833 26.9873Z" fill="#E16070"/>
<path fill-rule="evenodd" clip-rule="evenodd" d="M132.836 25.2324L135.683 29.9169L134.66 34.6013L137.079 33.2195L142.869 33.9104C142.869 33.9104 135.42 27.5125 132.836 25.2462V25.2324Z" fill="#E16070"/>
<path fill-rule="evenodd" clip-rule="evenodd" d="M139.58 70.0871C139.58 70.0871 148.078 74.8683 148.631 74.0668C149.184 73.2653 151.588 67.6274 151.588 67.6274C151.588 67.6274 151.022 74.4261 147.995 78.6131C147.995 78.6131 141.902 71.3308 139.58 70.0871Z" fill="#E16070"/>
<path fill-rule="evenodd" clip-rule="evenodd" d="M50.1611 73.3896C50.1611 73.3896 53.5328 80.2712 54.5139 79.7461C55.495 79.221 60.9533 75.642 60.9533 75.642C60.9533 75.642 55.7852 84.6655 54.9561 83.9055C54.127 83.1454 50.631 77.3555 50.1611 73.4035V73.3896Z" fill="#E16070"/>
<path fill-rule="evenodd" clip-rule="evenodd" d="M152.016 89.7227L152.389 95.2362L151.671 97.9031L153.163 95.7198L155.208 95.1533L152.016 89.7227Z" fill="#E16070"/>
<path fill-rule="evenodd" clip-rule="evenodd" d="M50.5757 101.317L53.5052 95.5405L53.7401 101.068L54.5001 102.464L52.9386 101.634L50.5757 101.317Z" fill="#E16070"/>
<path style="mix-blend-mode:multiply" opacity="0.5" fill-rule="evenodd" clip-rule="evenodd" d="M80.2852 92.6663C80.2852 92.6663 87.761 91.5747 93.6061 93.1223C99.4513 94.6838 101.082 97.6133 101.082 97.6133C101.082 97.6133 94.1313 108.475 86.4344 106.526C78.7376 104.578 80.299 92.6663 80.299 92.6663H80.2852Z" fill="url(#paint20_linear_3_5208)"/>
<path fill-rule="evenodd" clip-rule="evenodd" d="M58.3555 115.038C58.3555 115.038 63.6617 118.203 65.0021 116.71C66.3287 115.218 63.1643 108.433 63.1643 108.433C63.1643 108.433 67.6829 115.107 66.9505 117.36C66.2181 119.612 61.9206 117.65 61.9206 117.65L58.3555 115.052V115.038Z" fill="#E16070"/>
<path fill-rule="evenodd" clip-rule="evenodd" d="M158.884 70.7085C158.884 70.7085 158.995 75.8075 159.534 75.8213C160.073 75.8213 162.933 72.8365 162.933 72.8365C162.933 72.8365 160.004 78.3639 158.249 78.0184C158.249 78.0184 157.876 74.0249 158.884 70.7085Z" fill="#E16070"/>
<path fill-rule="evenodd" clip-rule="evenodd" d="M94.3247 19.2215L99.8382 17.2593L105.283 18.4753L100.184 20.7277L99.7415 22.1924L98.636 21.0455L94.3247 19.2215Z" fill="#E16070"/>
<path fill-rule="evenodd" clip-rule="evenodd" d="M123.233 50.6167C123.233 50.6167 128.816 52.1919 130.778 52.1505C132.74 52.109 139.525 47.397 139.525 47.397C139.525 47.397 132.367 55.0385 129.976 54.8313C127.586 54.6102 123.233 50.6167 123.233 50.6167Z" fill="#E16070"/>
<path fill-rule="evenodd" clip-rule="evenodd" d="M123.91 24.4864C123.91 24.4864 129.824 21.778 128.041 16.9277C128.041 16.9277 123.979 18.8761 123.91 24.4864Z" fill="white"/>
<path fill-rule="evenodd" clip-rule="evenodd" d="M73.9285 23.6572C73.9285 23.6572 73.3619 31.1468 78.3642 32.1141C78.3642 32.1141 80.6028 26.9184 73.9285 23.6572Z" fill="white"/>
<path fill-rule="evenodd" clip-rule="evenodd" d="M79.8706 4.56016C79.8706 4.56016 88.5624 6.84019 93.4403 3.78633C93.4403 3.78633 86.6831 -0.179552 79.8706 4.56016Z" fill="white"/>
<path fill-rule="evenodd" clip-rule="evenodd" d="M104.481 4.39412C104.481 4.39412 112.219 5.83123 118.272 2.03118C118.272 2.03118 109.262 -0.52523 104.481 4.39412Z" fill="white"/>
<path fill-rule="evenodd" clip-rule="evenodd" d="M147.774 9.43786C147.774 9.43786 148.741 13.7492 151.74 14.3158C154.738 14.8823 155.775 13.5005 155.775 13.5005C155.775 13.5005 153.799 8.91276 147.774 9.43786Z" fill="white"/>
<path fill-rule="evenodd" clip-rule="evenodd" d="M42.4917 17.439C42.4917 17.439 46.7201 18.7379 48.6962 16.4164C50.6722 14.0949 49.9951 12.5058 49.9951 12.5058C49.9951 12.5058 45.0343 11.9392 42.4917 17.439Z" fill="white"/>
<g style="mix-blend-mode:soft-light">
<path fill-rule="evenodd" clip-rule="evenodd" d="M143.421 63.5231C143.421 63.5231 147.525 64.7944 149.446 62.5282C151.367 60.262 150.703 58.7281 150.703 58.7281C150.703 58.7281 145.881 58.1892 143.407 63.5231H143.421Z" fill="white"/>
</g>
<g style="mix-blend-mode:soft-light">
<path fill-rule="evenodd" clip-rule="evenodd" d="M119.902 70.93C119.902 70.93 122.072 72.146 123.44 71.0958C124.794 70.0456 124.614 69.1059 124.614 69.1059C124.614 69.1059 121.947 68.2215 119.902 70.9438V70.93Z" fill="white"/>
</g>
<g style="mix-blend-mode:soft-light">
<path fill-rule="evenodd" clip-rule="evenodd" d="M88.7695 105.213C88.7695 105.213 90.8423 106.581 92.2794 105.642C93.7165 104.702 93.606 103.749 93.606 103.749C93.606 103.749 91.0219 102.657 88.7695 105.213Z" fill="white"/>
</g>
<g style="mix-blend-mode:soft-light" opacity="0.7">
<path fill-rule="evenodd" clip-rule="evenodd" d="M129.492 15.8083L129.589 17.4389C129.589 17.4389 136.774 17.6185 139.303 19.9538C141.832 22.2891 143.698 28.7838 145.356 30.2347C145.356 30.2347 145.77 26.5314 143.767 23.367C141.763 20.2026 141.252 20.9349 139.289 19.5255C137.313 18.116 133.334 15.3661 129.506 15.8083H129.492Z" fill="white"/>
</g>
<g style="mix-blend-mode:soft-light" opacity="0.7">
<path fill-rule="evenodd" clip-rule="evenodd" d="M141.957 35.085C140.16 35.4442 136.291 37.4894 136.761 40.5709C136.761 40.5709 140.478 39.2443 141.293 37.7243C142.122 36.2043 141.957 35.0988 141.957 35.0988V35.085Z" fill="white"/>
</g>
<g style="mix-blend-mode:soft-light" opacity="0.7">
<path fill-rule="evenodd" clip-rule="evenodd" d="M105.822 28.0653C105.822 28.0653 105.366 23.2427 107.77 20.2993C110.174 17.356 116.006 14.6062 117.36 13.2381C118.714 11.8701 119.281 8.42934 121.049 7.5035C122.818 6.56385 123.951 7.33768 123.951 7.33768C123.951 7.33768 121.851 9.82499 120.704 10.9719C119.557 12.1188 118.341 12.7545 117.332 13.6941C116.324 14.6338 114.513 18.4753 112.413 21.7226C110.326 24.97 105.808 28.0653 105.808 28.0653H105.822Z" fill="white"/>
</g>
<g style="mix-blend-mode:soft-light" opacity="0.7">
<path fill-rule="evenodd" clip-rule="evenodd" d="M76.7339 64.007C76.7339 64.007 78.8896 61.4092 83.1042 61.3677C87.305 61.3262 90.6214 52.1647 96.1211 50.7275C96.1211 50.7275 94.4767 58.6455 90.9945 60.359C87.5122 62.0724 85.0802 61.1743 83.118 61.5612C81.1558 61.9481 81.3216 63.3023 79.9812 63.8136C78.6408 64.311 76.7477 63.9932 76.7477 63.9932L76.7339 64.007Z" fill="white"/>
</g>
<g style="mix-blend-mode:soft-light" opacity="0.7">
<path fill-rule="evenodd" clip-rule="evenodd" d="M81.667 19.4009C81.667 19.4009 85.2874 28.4243 92.1828 28.8388C92.1828 28.8388 89.2257 21.2387 81.667 19.4009Z" fill="white"/>
</g>
<g style="mix-blend-mode:soft-light" opacity="0.7">
<path fill-rule="evenodd" clip-rule="evenodd" d="M43.0859 47.2589C43.0859 47.2589 46.278 48.7237 48.5166 54.1405C50.7551 59.5711 49.7602 63.1225 56.2272 66.0105C62.6942 68.8986 69.4929 65.9829 69.4929 65.9829C69.4929 65.9829 65.0986 65.0294 62.9153 65.6374C60.732 66.2454 60.6491 66.8396 59.5022 66.6047C58.3553 66.3698 59.212 61.9203 56.476 59.958C53.7399 57.9958 51.2388 58.0511 49.7879 55.8954C48.3369 53.7398 48.0606 50.6444 46.5544 48.9033C45.0482 47.176 43.0859 47.2589 43.0859 47.2589Z" fill="white"/>
</g>
<g style="mix-blend-mode:soft-light" opacity="0.7">
<path fill-rule="evenodd" clip-rule="evenodd" d="M126.148 80.5196C128.857 80.0083 134.094 81.0585 134.743 83.1313C134.743 83.1313 132.477 84.0157 129.644 83.0484C126.812 82.0673 126.162 80.5196 126.162 80.5196H126.148Z" fill="white"/>
</g>
<g style="mix-blend-mode:soft-light" opacity="0.7">
<path fill-rule="evenodd" clip-rule="evenodd" d="M54.9419 32.9152C54.9419 32.9152 56.4757 26.5449 60.8976 24.403C65.3195 22.2612 67.1435 21.1004 68.5392 19.0415C69.9349 16.9964 72.9334 21.819 72.9334 21.819C72.9334 21.819 71.8694 20.7688 69.3545 20.8517C66.8395 20.9346 62.8875 23.6707 62.2104 25.1216C61.5333 26.5725 59.2532 32.2657 54.9419 32.9152Z" fill="white"/>
</g>
<g style="mix-blend-mode:soft-light" opacity="0.7">
<path fill-rule="evenodd" clip-rule="evenodd" d="M62.2246 11.7594C62.2246 11.7594 66.0385 7.84882 68.5396 7.35136C71.0408 6.8539 75.5732 9.28594 77.7427 12.4918C77.7427 12.4918 75.5041 11.8009 72.1186 10.5296C68.7331 9.2583 68.1665 8.82993 67.2131 8.94048C66.2596 9.05103 62.2246 11.7594 62.2246 11.7594Z" fill="white"/>
</g>
<g style="mix-blend-mode:soft-light" opacity="0.7">
<path fill-rule="evenodd" clip-rule="evenodd" d="M46.0153 98.9257C46.0153 98.9257 45.1172 93.3707 47.2452 92.0718C47.2452 92.0718 49.2765 96.618 46.0153 98.9257Z" fill="white"/>
</g>
<path fill-rule="evenodd" clip-rule="evenodd" d="M91.3533 78.8064C91.3533 78.8064 88.9628 74.7024 84.7896 74.5504C79.2346 74.3431 67.793 78.8341 63.2329 84.2371C63.2329 84.2371 72.7261 78.6682 81.639 78.157C87.5257 77.8253 91.3533 78.7926 91.3533 78.7926V78.8064Z" fill="#37093A"/>
<path fill-rule="evenodd" clip-rule="evenodd" d="M111.003 78.6131C111.003 78.6131 112.73 93.9515 128.234 93.0947C142.136 92.3347 143.573 73.4312 143.573 73.4312L111.003 78.6131Z" fill="#E16070"/>
<path fill-rule="evenodd" clip-rule="evenodd" d="M110.036 74.0801C110.036 74.0801 111.417 90.3582 125.65 91.4361C141.942 92.6659 143.573 73.4307 143.573 73.4307C143.573 73.4307 139.648 65.7062 128.649 65.0567C114.817 64.2414 110.049 74.094 110.049 74.094L110.036 74.0801Z" fill="url(#paint21_linear_3_5208)"/>
<path d="M131.184 81.8297C133.664 77.6217 132.263 72.2003 128.055 69.7206C123.847 67.2409 118.426 68.642 115.946 72.85C113.466 77.058 114.867 82.4794 119.075 84.9591C123.283 87.4388 128.705 86.0377 131.184 81.8297Z" fill="#37093A"/>
<path fill-rule="evenodd" clip-rule="evenodd" d="M110.036 74.0805C110.036 74.0805 112.882 64.7254 126.535 63.0258C141.334 61.1741 147.871 73.2376 147.871 73.2376L143.324 74.6747L143.559 73.431C143.559 73.431 137.7 64.9327 126.659 65.5684C115.618 66.1902 110.022 74.0943 110.022 74.0943L110.036 74.0805Z" fill="#37093A"/>
<path fill-rule="evenodd" clip-rule="evenodd" d="M117.456 77.1619C117.525 78.3227 116.641 79.3176 115.48 79.3729C114.319 79.442 113.324 78.5576 113.269 77.3969C113.214 76.2361 114.084 75.2412 115.245 75.1859C116.406 75.1168 117.401 76.0012 117.456 77.1619Z" fill="white"/>
<path fill-rule="evenodd" clip-rule="evenodd" d="M81.9292 92.9009C81.9292 92.9009 96.1069 91.1183 100.28 97.4471C100.28 97.4471 93.4123 105.241 87.1526 103.652C82.9656 102.588 81.943 92.8871 81.943 92.8871L81.9292 92.9009Z" fill="url(#paint22_linear_3_5208)"/>
<path fill-rule="evenodd" clip-rule="evenodd" d="M90.7041 92.915C90.7041 92.915 89.4052 97.1158 93.5922 98.926C97.7791 100.75 100.28 97.4613 100.28 97.4613C100.28 97.4613 98.1384 93.1361 90.7041 92.915Z" fill="url(#paint23_linear_3_5208)"/>
<g style="mix-blend-mode:multiply" opacity="0.5">
<path fill-rule="evenodd" clip-rule="evenodd" d="M98.8429 77.5352C98.8429 77.5352 102.754 101.828 124.061 109.718C141.887 116.31 155.263 102.464 155.263 102.464C155.263 102.464 150.855 105.946 131.579 99.4788C112.302 93.0118 98.8291 77.549 98.8291 77.549L98.8429 77.5352Z" fill="#A6364C"/>
</g>
<path fill-rule="evenodd" clip-rule="evenodd" d="M215.139 80.0915L195.102 74.4535L194.052 74.1634L181.146 70.543L184.586 61.2432L191.039 62.2934L219.533 66.9502C219.989 68.1385 220.321 69.2302 220.514 70.2389C221.523 75.1721 219.505 78.1707 215.153 80.0915H215.139Z" fill="url(#paint24_radial_3_5208)"/>
<path d="M179.387 82.1495C191.086 60.5041 183.022 33.4733 161.377 21.7745C139.731 10.0758 112.701 18.1391 101.002 39.7846C89.303 61.43 97.3664 88.4608 119.012 100.16C140.657 111.858 167.688 103.795 179.387 82.1495Z" fill="url(#paint25_radial_3_5208)"/>
<path d="M146.186 102.486C170.593 99.3769 187.858 77.0703 184.749 52.663C181.64 28.2556 159.333 10.9902 134.926 14.0995C110.518 17.2089 93.253 39.5155 96.3624 63.9228C99.4717 88.3302 121.778 105.596 146.186 102.486Z" fill="url(#paint26_radial_3_5208)"/>
<path d="M143.354 94.5652C163.396 93.023 178.394 75.5251 176.852 55.4825C175.309 35.4398 157.812 20.4423 137.769 21.9845C117.726 23.5267 102.729 41.0246 104.271 61.0672C105.813 81.1099 123.311 96.1074 143.354 94.5652Z" fill="url(#paint27_linear_3_5208)"/>
<path fill-rule="evenodd" clip-rule="evenodd" d="M162.947 26.186C153.605 19.4288 141.335 16.983 129.478 20.631C109.359 26.8079 98.0553 48.1158 104.232 68.2354C110.409 88.355 131.717 99.6447 151.837 93.4678C162.408 90.2205 170.56 82.7862 174.996 73.5417C179.004 65.223 179.998 55.4258 177.069 45.8911C174.54 37.6277 169.469 30.8705 162.947 26.1999V26.186ZM172.302 73.3897C168.142 82.0538 160.528 89.0045 150.621 92.0445C131.8 97.8206 111.846 87.2495 106.07 68.4289C100.294 49.6082 110.879 29.6545 129.699 23.8784C140.796 20.479 152.293 22.7591 161.012 29.0741C167.12 33.4545 171.859 39.7833 174.236 47.5217C176.972 56.4483 176.046 65.6099 172.288 73.4035L172.302 73.3897Z" fill="url(#paint28_radial_3_5208)"/>
<mask id="mask0_3_5208" style="mask-type:luminance" maskUnits="userSpaceOnUse" x="105" y="22" width="71" height="72">
<path d="M174.36 47.8946C177.082 56.766 176.157 65.8723 172.426 73.6244C168.294 82.2333 160.721 89.1563 150.883 92.1687C132.173 97.9172 112.343 87.4014 106.595 68.6913C100.846 49.9812 111.376 30.1518 130.086 24.4033C141.113 21.0178 152.541 23.284 161.205 29.5576C167.271 33.9104 171.983 40.1977 174.346 47.8946H174.36Z" fill="white"/>
</mask>
<g mask="url(#mask0_3_5208)">
<path fill-rule="evenodd" clip-rule="evenodd" d="M206.142 38.9818C201.955 75.3656 188.621 113.822 168.045 123.509C133.458 139.787 60.0819 143.946 38.2903 131.993C16.5955 120.096 -3.09576 88.7418 -12.4508 56.1442C-19.3877 31.9758 -20.6175 7.13036 -12.7548 -10.9441C-3.66232 -31.8514 23.7534 -52.6619 89.833 -56.4205C147.331 -59.6816 195.309 -47.7287 204.277 -14.9238C208.022 -1.27123 208.533 18.5167 206.156 38.9818H206.142Z" fill="url(#paint29_linear_3_5208)"/>
<path style="mix-blend-mode:multiply" opacity="0.3" fill-rule="evenodd" clip-rule="evenodd" d="M103.278 -0.690796C103.278 -0.690796 131.039 17.2455 145.093 17.7015C159.146 18.1575 178.976 -9.03711 178.976 -9.03711C178.976 -9.03711 175.3 19.3873 145.383 26.2827C145.383 26.2827 123.66 26.3518 103.278 -0.690796Z" fill="url(#paint30_linear_3_5208)"/>
<path style="mix-blend-mode:multiply" opacity="0.3" fill-rule="evenodd" clip-rule="evenodd" d="M54.1123 51.9573C54.1123 51.9573 63.951 47.1209 71.2195 47.19C78.488 47.2591 98.5661 43.2379 98.5661 43.2379L118.326 45.214C118.326 45.214 138.156 44.675 148.879 45.9601C159.602 47.2591 171.196 49.6358 174.028 48.9173C176.861 48.1987 193.139 14.9517 193.139 14.9517C193.139 14.9517 181.324 61.3953 174.526 63.9793C174.526 63.9793 149.197 47.9362 138.985 46.5129C128.773 45.0896 100.21 53.1043 100.21 53.1043L89.059 52.9384C89.059 52.9384 70.0035 49.1798 54.1123 51.9435V51.9573Z" fill="url(#paint31_linear_3_5208)"/>
<path fill-rule="evenodd" clip-rule="evenodd" d="M82.8687 -56.0474L93.5226 -46.2916L94.9736 20.5342L101.689 92.3622L100.998 26.7525L97.5576 -45.7112L106.305 -57.1528L82.8687 -56.0474Z" fill="#FF7F85"/>
<path fill-rule="evenodd" clip-rule="evenodd" d="M98.2485 -7.12992C98.2485 -7.12992 117.249 21.0872 145.397 26.2691C145.397 26.2691 175.162 13.1969 178.989 -9.05068C178.989 -9.05068 169.344 -35.9827 140.851 -38.9675C140.851 -38.9675 124.061 -27.6088 126.341 -2.36258C126.341 -2.36258 131.993 3.30297 142.647 3.42733C142.647 3.42733 152.071 -1.22947 154.033 -9.32705L149.487 -16.8166L165.53 -2.95677L156.272 -4.06224C156.272 -4.06224 146.419 5.87319 141.486 8.58159C141.486 8.58159 123.716 2.57059 120.662 -4.28334C120.662 -4.28334 128.442 -33.5369 141.016 -42.4912C141.016 -42.4912 164.687 -39.2301 183.121 -8.80195C183.121 -8.80195 178.036 16.7483 144.913 30.4976C144.913 30.4976 123.412 22.0269 110.989 10.3089C110.989 10.3089 103.071 6.08046 99.0362 6.6332L98.2485 -7.12992Z" fill="#FF7F85"/>
<path fill-rule="evenodd" clip-rule="evenodd" d="M98.7322 46.1119L108.087 50.6582C108.087 50.6582 131.482 35.5823 146.102 35.5823C170.823 35.5823 172.481 55.3564 176.889 56.7383C181.297 58.1339 192.062 6.17675 195.489 5.25092C198.916 4.32508 206.143 25.9509 206.101 42.6988C206.046 59.4467 191.55 68.1799 190.113 67.5443C188.69 66.9086 188.69 50.7549 190.141 43.6108C191.592 36.4667 197.479 32.2659 197.479 32.2659C197.479 32.2659 200.367 41.9526 198.349 47.7149C198.349 47.7149 198.087 39.8936 196.345 37.4202C196.345 37.4202 192.476 40.1286 191.371 47.936C190.265 55.7434 192.131 64.0344 192.131 64.0344C192.131 64.0344 203.49 56.8903 204.457 44.1221C205.41 31.3539 200.408 12.9892 197.534 11.8285C194.66 10.6677 179.86 63.0395 173.683 68.5116C173.683 68.5116 155.305 50.4647 140.892 48.2123C126.493 45.9599 102.132 54.1819 99.9759 57.6917L98.7046 46.0843L98.7322 46.1119Z" fill="#FF7F85"/>
<path fill-rule="evenodd" clip-rule="evenodd" d="M194.839 87.6502C194.839 87.6502 189.022 70.9437 185.194 67.9313C181.366 64.9189 166.208 100.322 164.19 115.936C162.173 131.551 173.241 121.547 173.241 121.547L176.64 118.092C176.64 118.092 171.127 122.97 167.576 121.878C164.024 120.787 177.552 72.519 183.398 71.5794C189.243 70.6397 193.955 89.7644 193.955 89.7644L194.853 87.6502H194.839Z" fill="#FF7F85"/>
<path style="mix-blend-mode:multiply" opacity="0.5" fill-rule="evenodd" clip-rule="evenodd" d="M195.917 52.4824C191.744 53.7398 190.666 47.7979 190.666 47.7979L188.593 50.9762C185.733 64.7807 162.946 93.1914 162.946 93.1914C162.946 93.1914 137.009 106.125 104.08 95.6925C79.0132 87.7469 70.6945 86.752 64.338 87.1113C55.204 87.6364 59.543 108.088 59.543 108.088C55.8397 107.604 47.0097 104.757 45.1443 103.196C28.2167 88.2858 24.9556 79.6908 21.2522 77.3831C11.1786 71.1234 7.71021 63.62 7.71021 63.62C7.71021 63.62 7.82076 68.0695 5.58218 68.0972C3.3436 68.1524 -7.6973 58.7836 -7.6973 58.7836C-9.99115 59.2257 -11.6632 55.7297 -11.6632 55.7297L-12.437 56.1442C-3.09577 88.7418 16.6093 120.096 38.3041 131.993C60.0958 143.946 133.471 139.787 168.059 123.509C188.621 113.822 201.955 75.3656 206.156 38.9956C203.158 47.3419 195.917 52.4824 195.917 52.4824Z" fill="url(#paint32_linear_3_5208)"/>
<path fill-rule="evenodd" clip-rule="evenodd" d="M89.0591 52.9523L100.349 55.4534L106.277 51.9712C106.277 51.9712 102.587 49.7879 99.1603 49.9675C95.7334 50.1472 89.0591 52.9523 89.0591 52.9523Z" fill="#E16070"/>
<path fill-rule="evenodd" clip-rule="evenodd" d="M160.251 54.9006C160.251 54.9006 173.849 62.556 174.733 61.2709C175.618 59.9996 179.459 50.9624 179.459 50.9624C179.459 50.9624 178.547 61.8375 173.711 68.5256C173.711 68.5256 163.969 56.8767 160.251 54.9006Z" fill="#E16070"/>
<path fill-rule="evenodd" clip-rule="evenodd" d="M134.121 23.768C134.121 23.768 143.048 26.283 146.198 26.2277C149.349 26.1724 160.169 18.6138 160.169 18.6138C160.169 18.6138 148.727 30.843 144.899 30.4976C141.086 30.1521 134.121 23.768 134.121 23.768Z" fill="#E16070"/>
<g style="mix-blend-mode:soft-light">
<path fill-rule="evenodd" clip-rule="evenodd" d="M166.401 44.3988C166.401 44.3988 172.965 46.4163 176.046 42.7958C179.114 39.1754 178.064 36.7296 178.064 36.7296C178.064 36.7296 170.353 35.859 166.401 44.3988Z" fill="white"/>
</g>
<g style="mix-blend-mode:soft-light">
<path fill-rule="evenodd" clip-rule="evenodd" d="M128.801 56.2409C128.801 56.2409 132.269 58.1755 134.453 56.5034C136.622 54.8314 136.332 53.3114 136.332 53.3114C136.332 53.3114 132.076 51.8881 128.801 56.2409Z" fill="white"/>
</g>
<path fill-rule="evenodd" clip-rule="evenodd" d="M113.532 60.3863C113.532 60.3863 121.201 33.9379 144.167 33.7583C167.133 33.5787 176.143 58.4656 176.143 58.4656C176.143 58.4656 175.272 62.8322 173.462 63.3297C171.652 63.8271 170.215 49.9673 149.487 47.8807C128.76 45.7941 113.532 60.3863 113.532 60.3863Z" fill="#E16070"/>
<g style="mix-blend-mode:soft-light" opacity="0.7">
<path fill-rule="evenodd" clip-rule="evenodd" d="M138.778 71.5655C143.117 70.7364 151.477 72.4223 152.513 75.7525C152.513 75.7525 148.879 77.1758 144.347 75.6143C139.814 74.0528 138.764 71.5655 138.764 71.5655H138.778Z" fill="white"/>
</g>
<path fill-rule="evenodd" clip-rule="evenodd" d="M114.568 68.5259C114.568 68.5259 117.332 93.0397 142.122 91.6855C164.356 90.4695 166.636 60.2349 166.636 60.2349L114.568 68.5259Z" fill="#E16070"/>
<path fill-rule="evenodd" clip-rule="evenodd" d="M113.021 61.2852C113.021 61.2852 115.218 87.3053 137.977 89.0188C164.01 90.9948 166.622 60.2212 166.622 60.2212C166.622 60.2212 159.45 40.2536 141.873 39.2173C119.764 37.9183 113.021 61.2852 113.021 61.2852Z" fill="url(#paint33_linear_3_5208)"/>
<path fill-rule="evenodd" clip-rule="evenodd" d="M148.783 65.7068C149.225 73.5142 143.255 80.1885 135.462 80.6307C127.654 81.0729 120.98 75.1033 120.538 67.3097C120.096 59.5162 126.065 52.828 133.859 52.3859C141.666 51.9437 148.34 57.9132 148.783 65.7068Z" fill="#37093A"/>
<path fill-rule="evenodd" clip-rule="evenodd" d="M113.021 61.2849C113.021 61.2849 117.511 40.1981 139.331 37.6002C164.425 34.6016 173.504 59.9307 173.504 59.9307L166.249 62.2246L166.636 60.2347C166.636 60.2347 157.695 40.0599 139.345 41.1515C121.698 42.2017 113.034 61.2988 113.034 61.2988L113.021 61.2849Z" fill="#37093A"/>
<path fill-rule="evenodd" clip-rule="evenodd" d="M125.111 67.4483C125.222 69.2999 123.799 70.8891 121.947 70.9996C120.095 71.1102 118.506 69.6869 118.396 67.8352C118.285 65.9835 119.708 64.3944 121.56 64.2839C123.412 64.1733 125.001 65.5966 125.111 67.4483Z" fill="white"/>
<g style="mix-blend-mode:multiply">
<path fill-rule="evenodd" clip-rule="evenodd" d="M113.767 65.0019C113.767 65.0019 119.557 48.406 137.438 47.5492C155.319 46.6925 166.304 63.1088 166.304 63.1088L166.636 60.2207C166.636 60.2207 160.141 40.5571 140.643 40.5571C121.146 40.5571 113.021 61.2709 113.021 61.2709L113.767 64.9881V65.0019Z" fill="#D8CBD9"/>
</g>
</g>
<path style="mix-blend-mode:screen" opacity="0.5" fill-rule="evenodd" clip-rule="evenodd" d="M174.36 47.8946C177.082 56.766 176.157 65.8723 172.426 73.6244C168.294 82.2333 160.721 89.1563 150.883 92.1687C132.173 97.9172 112.343 87.4014 106.595 68.6913C100.846 49.9812 111.376 30.1518 130.086 24.4033C141.113 21.0178 152.541 23.284 161.205 29.5576C167.271 33.9104 171.983 40.1977 174.346 47.8946H174.36Z" fill="url(#paint34_radial_3_5208)"/>
<path style="mix-blend-mode:screen" opacity="0.5" fill-rule="evenodd" clip-rule="evenodd" d="M107.134 44.5641L170.74 78.5988C170.74 78.5988 175.106 73.3478 176.668 62.9149L135.296 22.6343C135.296 22.6343 116.212 24.1128 107.134 44.5641Z" fill="url(#paint35_linear_3_5208)"/>
<path fill-rule="evenodd" clip-rule="evenodd" d="M127.405 32.7356C127.972 34.5735 126.936 36.5357 125.098 37.1022C123.26 37.6688 121.298 36.6324 120.731 34.7807C120.165 32.9429 121.201 30.9807 123.039 30.4141C124.877 29.8476 126.839 30.884 127.405 32.7356Z" fill="white"/>
<g style="mix-blend-mode:soft-light">
<path fill-rule="evenodd" clip-rule="evenodd" d="M166.967 76.5124C167.714 77.2724 167.161 79.0411 165.724 80.4644C164.287 81.9015 162.518 82.4404 161.758 81.6942C161.012 80.9342 161.564 79.1655 163.002 77.7422C164.439 76.3051 166.207 75.7662 166.967 76.5124Z" fill="white"/>
</g>
<g style="mix-blend-mode:soft-light">
<path fill-rule="evenodd" clip-rule="evenodd" d="M101.786 36.3698L107.369 38.5393C107.369 38.5393 113.974 24.6104 131.454 20.0918L130.376 14.9375C130.376 14.9375 111.763 18.2401 101.786 36.3698Z" fill="#C4DAFF"/>
</g>
<g style="mix-blend-mode:soft-light">
<path fill-rule="evenodd" clip-rule="evenodd" d="M105.255 42.9615L99.3544 41.3447C99.3544 41.3447 97.4751 45.6699 96.8809 49.4838L103.223 49.5943C103.223 49.5943 104.509 44.6059 105.269 42.9615H105.255Z" fill="#C4DAFF"/>
</g>
<path fill-rule="evenodd" clip-rule="evenodd" d="M149.335 95.3744C149.335 95.3744 154.352 92.9424 156.093 93.1082C156.093 93.1082 153.592 95.2639 149.335 95.3744Z" fill="white"/>
<path fill-rule="evenodd" clip-rule="evenodd" d="M181.132 89.1564C181.132 89.1564 180.012 93.7856 184.531 96.19C184.531 96.19 191.482 93.0809 197.258 87.0146C197.258 87.0146 205.88 83.7811 211.767 79.1381L186.88 72.146C186.88 72.146 185.913 73.8457 185.899 75.4762C185.885 77.853 189.312 82.8829 189.312 82.8829C189.312 82.8829 185.65 86.6968 181.132 89.1426V89.1564Z" fill="url(#paint36_linear_3_5208)"/>
<path fill-rule="evenodd" clip-rule="evenodd" d="M186.866 72.1595C186.866 72.1595 188.303 69.8104 188.538 67.7376C188.773 65.6648 187.101 62.0859 187.695 60.9528C188.289 59.8197 192.407 61.312 193.14 63.5092C193.872 65.7063 191.827 69.0642 192.117 70.3769C192.407 71.6758 197.52 73.1544 198.46 76.7334C198.46 76.7334 196.719 83.3662 189.284 82.8964C189.45 81.9291 183.729 77.1203 186.852 72.1595H186.866Z" fill="url(#paint37_linear_3_5208)"/>
<path fill-rule="evenodd" clip-rule="evenodd" d="M196.567 59.295C196.567 59.295 193.582 64.6704 194.687 68.9541C194.687 68.9541 195.793 69.9352 198.474 69.8246L199.524 68.0835C199.524 68.0835 198.888 70.8886 198.888 72.1461C198.888 72.1461 199.04 73.5141 203.476 73.4589L205.051 71.1374V72.7127C205.051 72.7127 206.046 73.7629 209.376 73.4589C209.376 73.4589 210.592 71.7177 211.38 70.2944C211.38 70.2944 212.693 71.0268 214.019 71.1374C214.019 71.1374 216.438 68.7606 217.281 65.4442C217.281 65.4442 216.23 64.1314 213.384 63.7031L212.859 64.2282L207.912 63.4405L207.387 63.8689L207.276 63.1089L201.956 62.0725L201.237 62.4871L201.597 60.9394C201.597 60.9394 200.422 57.9132 196.567 59.295Z" fill="url(#paint38_linear_3_5208)"/>
<path fill-rule="evenodd" clip-rule="evenodd" d="M196.387 73.7072L198.183 77.5349C198.183 77.5349 202.591 79.2207 209.86 78.5989L196.373 73.6934L196.387 73.7072Z" fill="#FF7F85"/>
<path fill-rule="evenodd" clip-rule="evenodd" d="M201.597 60.9528C201.597 60.9528 199.372 64.8219 198.474 69.8242L199.524 68.0831L201.942 62.0721L201.306 62.2794L201.583 60.939L201.597 60.9528Z" fill="#FF7F85"/>
<path fill-rule="evenodd" clip-rule="evenodd" d="M207.276 63.1089C207.276 63.1089 206.226 66.3977 205.065 71.1374C205.065 71.1374 206.903 64.7256 207.912 63.4405L207.414 63.7169L207.276 63.1089Z" fill="#FF7F85"/>
<path fill-rule="evenodd" clip-rule="evenodd" d="M212.858 64.2419L211.38 70.3082C211.38 70.3082 212.306 65.3059 212.112 64.1313L212.845 64.2557L212.858 64.2419Z" fill="#FF7F85"/>
<path fill-rule="evenodd" clip-rule="evenodd" d="M189.312 82.8965C189.312 82.8965 190.252 83.5598 194.453 83.5045C194.453 83.5045 191.73 84.9692 186.908 85.1212C186.908 85.1212 188.925 83.4492 189.312 82.8965Z" fill="#FF7F85"/>
<g style="mix-blend-mode:soft-light" opacity="0.7">
<path fill-rule="evenodd" clip-rule="evenodd" d="M44.9927 168.212H61.2017L59.654 162.615C59.654 162.615 54.707 167.12 44.9927 168.212Z" fill="white"/>
</g>
<defs>
<linearGradient id="paint0_linear_3_5208" x1="69.616" y1="124.22" x2="141.425" y2="120.142" gradientUnits="userSpaceOnUse">
<stop stop-color="#B44263"/>
<stop offset="0.98" stop-color="#EF5666"/>
</linearGradient>
<linearGradient id="paint1_linear_3_5208" x1="11.0916" y1="160.725" x2="33.2521" y2="71.8437" gradientUnits="userSpaceOnUse">
<stop stop-color="#684A72"/>
<stop offset="0.99" stop-color="#46255E"/>
</linearGradient>
<linearGradient id="paint2_linear_3_5208" x1="8.63778" y1="160.113" x2="21.0904" y2="110.168" gradientUnits="userSpaceOnUse">
<stop offset="0.02" stop-color="#FFA892"/>
<stop offset="1" stop-color="#FFCEA8"/>
</linearGradient>
<linearGradient id="paint3_linear_3_5208" x1="130.335" y1="177.815" x2="130.335" y2="116.31" gradientUnits="userSpaceOnUse">
<stop stop-color="#684A72"/>
<stop offset="0.99" stop-color="#46255E"/>
</linearGradient>
<linearGradient id="paint4_linear_3_5208" x1="112.993" y1="172.399" x2="136.304" y2="155.913" gradientUnits="userSpaceOnUse">
<stop offset="0.02" stop-color="#FFA892"/>
<stop offset="1" stop-color="#FFCEA8"/>
</linearGradient>
<linearGradient id="paint5_linear_3_5208" x1="116.752" y1="177.995" x2="144.25" y2="177.995" gradientUnits="userSpaceOnUse">
<stop stop-color="#9A1A43"/>
<stop offset="1" stop-color="#731653"/>
</linearGradient>
<linearGradient id="paint6_linear_3_5208" x1="65.0709" y1="177.594" x2="65.0709" y2="119.391" gradientUnits="userSpaceOnUse">
<stop stop-color="#684A72"/>
<stop offset="0.99" stop-color="#46255E"/>
</linearGradient>
<linearGradient id="paint7_linear_3_5208" x1="41.704" y1="177.484" x2="80.2435" y2="150.22" gradientUnits="userSpaceOnUse">
<stop offset="0.02" stop-color="#FFA892"/>
<stop offset="1" stop-color="#FFCEA8"/>
</linearGradient>
<linearGradient id="paint8_linear_3_5208" x1="41.2065" y1="178.313" x2="69.2303" y2="178.313" gradientUnits="userSpaceOnUse">
<stop stop-color="#9A1A43"/>
<stop offset="1" stop-color="#731653"/>
</linearGradient>
<linearGradient id="paint9_linear_3_5208" x1="160.672" y1="81.2918" x2="212.422" y2="78.3532" gradientUnits="userSpaceOnUse">
<stop stop-color="#684A72"/>
<stop offset="0.99" stop-color="#46255E"/>
</linearGradient>
<linearGradient id="paint10_linear_3_5208" x1="111.427" y1="121.499" x2="90.9273" y2="0.090617" gradientUnits="userSpaceOnUse">
<stop offset="0.02" stop-color="#FF9F9A"/>
<stop offset="1" stop-color="#FFB2B8"/>
</linearGradient>
<linearGradient id="paint11_linear_3_5208" x1="74.9068" y1="56.7642" x2="72.7979" y2="19.6249" gradientUnits="userSpaceOnUse">
<stop offset="0.02" stop-color="#DF8792"/>
<stop offset="0.34" stop-color="#ECB9BF"/>
<stop offset="0.62" stop-color="#F6DFE2"/>
<stop offset="0.86" stop-color="#FCF6F7"/>
<stop offset="1" stop-color="white"/>
</linearGradient>
<linearGradient id="paint12_linear_3_5208" x1="73.9351" y1="42.5774" x2="73.1548" y2="28.8364" gradientUnits="userSpaceOnUse">
<stop offset="0.02" stop-color="#DF8792"/>
<stop offset="1" stop-color="#FFD0C6"/>
</linearGradient>
<linearGradient id="paint13_linear_3_5208" x1="57.07" y1="80.9601" x2="55.2384" y2="48.7047" gradientUnits="userSpaceOnUse">
<stop offset="0.02" stop-color="#DF8792"/>
<stop offset="1" stop-color="white"/>
</linearGradient>
<linearGradient id="paint14_linear_3_5208" x1="44.5182" y1="33.9503" x2="43.0572" y2="8.22043" gradientUnits="userSpaceOnUse">
<stop offset="0.02" stop-color="#DF8792"/>
<stop offset="1" stop-color="#FFD0C6"/>
</linearGradient>
<linearGradient id="paint15_linear_3_5208" x1="128.727" y1="52.2686" x2="127.544" y2="31.4364" gradientUnits="userSpaceOnUse">
<stop offset="0.02" stop-color="#DF8792"/>
<stop offset="0.34" stop-color="#ECB9BF"/>
<stop offset="0.62" stop-color="#F6DFE2"/>
<stop offset="0.86" stop-color="#FCF6F7"/>
<stop offset="1" stop-color="white"/>
</linearGradient>
<linearGradient id="paint16_linear_3_5208" x1="127.144" y1="39.2654" x2="126.368" y2="25.5934" gradientUnits="userSpaceOnUse">
<stop offset="0.02" stop-color="#DF8792"/>
<stop offset="0.34" stop-color="#ECB9BF"/>
<stop offset="0.62" stop-color="#F6DFE2"/>
<stop offset="0.86" stop-color="#FCF6F7"/>
<stop offset="1" stop-color="white"/>
</linearGradient>
<linearGradient id="paint17_linear_3_5208" x1="117.842" y1="77.5095" x2="116.144" y2="47.5994" gradientUnits="userSpaceOnUse">
<stop offset="0.02" stop-color="#DF8792"/>
<stop offset="1" stop-color="white"/>
</linearGradient>
<linearGradient id="paint18_linear_3_5208" x1="99.9379" y1="19.1083" x2="99.1506" y2="5.24314" gradientUnits="userSpaceOnUse">
<stop offset="0.02" stop-color="#DF8792"/>
<stop offset="0.34" stop-color="#ECB9BF"/>
<stop offset="0.62" stop-color="#F6DFE2"/>
<stop offset="0.86" stop-color="#FCF6F7"/>
<stop offset="1" stop-color="white"/>
</linearGradient>
<linearGradient id="paint19_linear_3_5208" x1="103.132" y1="122.151" x2="99.8313" y2="64.0273" gradientUnits="userSpaceOnUse">
<stop offset="0.02" stop-color="#DF8792"/>
<stop offset="1" stop-color="#FFD0C6"/>
</linearGradient>
<linearGradient id="paint20_linear_3_5208" x1="80.147" y1="99.5341" x2="101.068" y2="99.5341" gradientUnits="userSpaceOnUse">
<stop offset="0.02" stop-color="#DF8792"/>
<stop offset="1" stop-color="#FFD0C6"/>
</linearGradient>
<linearGradient id="paint21_linear_3_5208" x1="127.797" y1="91.4765" x2="126.294" y2="65.0016" gradientUnits="userSpaceOnUse">
<stop stop-color="white"/>
<stop offset="0.98" stop-color="#FAC8CD"/>
</linearGradient>
<linearGradient id="paint22_linear_3_5208" x1="93.3076" y1="102.899" x2="89.2787" y2="90.5212" gradientUnits="userSpaceOnUse">
<stop stop-color="#9A1A43"/>
<stop offset="1" stop-color="#731653"/>
</linearGradient>
<linearGradient id="paint23_linear_3_5208" x1="95.4024" y1="99.4788" x2="95.4024" y2="92.915" gradientUnits="userSpaceOnUse">
<stop stop-color="white"/>
<stop offset="0.98" stop-color="#FAC8CD"/>
</linearGradient>
<radialGradient id="paint24_radial_3_5208" cx="0" cy="0" r="1" gradientUnits="userSpaceOnUse" gradientTransform="translate(209.322 65.6814) rotate(7.93) scale(15.9603 15.9602)">
<stop stop-color="#8F6E9C"/>
<stop offset="0.73" stop-color="#724F91"/>
</radialGradient>
<radialGradient id="paint25_radial_3_5208" cx="0" cy="0" r="1" gradientUnits="userSpaceOnUse" gradientTransform="translate(144.834 19.1523) rotate(-17.06) scale(76.4848)">
<stop stop-color="#746874"/>
<stop offset="0.98" stop-color="#6C4D80"/>
</radialGradient>
<radialGradient id="paint26_radial_3_5208" cx="0" cy="0" r="1" gradientUnits="userSpaceOnUse" gradientTransform="translate(145.205 16.4902) rotate(-17.06) scale(76.4848 76.4848)">
<stop stop-color="#D3D3D3"/>
<stop offset="0.98" stop-color="#9E8ABC"/>
</radialGradient>
<linearGradient id="paint27_linear_3_5208" x1="105.777" y1="68.9787" x2="175.369" y2="47.6225" gradientUnits="userSpaceOnUse">
<stop stop-color="#46185E"/>
<stop offset="1" stop-color="#68466D"/>
</linearGradient>
<radialGradient id="paint28_radial_3_5208" cx="0" cy="0" r="1" gradientUnits="userSpaceOnUse" gradientTransform="translate(140.66 57.0602) rotate(-17.06) scale(38.0973)">
<stop stop-color="#746874"/>
<stop offset="0.98" stop-color="#6C4D80"/>
</radialGradient>
<linearGradient id="paint29_linear_3_5208" x1="115.245" y1="137.075" x2="82.4795" y2="-57.0207" gradientUnits="userSpaceOnUse">
<stop offset="0.02" stop-color="#FF9F9A"/>
<stop offset="1" stop-color="#FFB2B8"/>
</linearGradient>
<linearGradient id="paint30_linear_3_5208" x1="142.898" y1="26.4126" x2="141.006" y2="-6.9052" gradientUnits="userSpaceOnUse">
<stop offset="0.02" stop-color="#DF8792"/>
<stop offset="0.34" stop-color="#ECB9BF"/>
<stop offset="0.62" stop-color="#F6DFE2"/>
<stop offset="0.86" stop-color="#FCF6F7"/>
<stop offset="1" stop-color="white"/>
</linearGradient>
<linearGradient id="paint31_linear_3_5208" x1="125.508" y1="66.7629" x2="122.793" y2="18.9454" gradientUnits="userSpaceOnUse">
<stop offset="0.02" stop-color="#DF8792"/>
<stop offset="1" stop-color="white"/>
</linearGradient>
<linearGradient id="paint32_linear_3_5208" x1="101.99" y1="138.132" x2="96.7131" y2="45.201" gradientUnits="userSpaceOnUse">
<stop offset="0.02" stop-color="#DF8792"/>
<stop offset="1" stop-color="#FFD0C6"/>
</linearGradient>
<linearGradient id="paint33_linear_3_5208" x1="141.434" y1="89.0975" x2="138.6" y2="39.1968" gradientUnits="userSpaceOnUse">
<stop stop-color="white"/>
<stop offset="0.98" stop-color="#FAC8CD"/>
</linearGradient>
<radialGradient id="paint34_radial_3_5208" cx="0" cy="0" r="1" gradientUnits="userSpaceOnUse" gradientTransform="translate(140.49 58.2973) rotate(-17.06) scale(35.4442)">
<stop/>
<stop offset="0.37" stop-color="#010100"/>
<stop offset="0.51" stop-color="#080504"/>
<stop offset="0.6" stop-color="#140C09"/>
<stop offset="0.68" stop-color="#251712"/>
<stop offset="0.75" stop-color="#3B251C"/>
<stop offset="0.8" stop-color="#56362A"/>
<stop offset="0.86" stop-color="#774A39"/>
<stop offset="0.91" stop-color="#9C614C"/>
<stop offset="0.95" stop-color="#C77C61"/>
<stop offset="0.99" stop-color="#F59977"/>
<stop offset="1" stop-color="#FF9F7C"/>
</radialGradient>
<linearGradient id="paint35_linear_3_5208" x1="151.355" y1="84.5654" x2="132.476" y2="23.0447" gradientUnits="userSpaceOnUse">
<stop/>
<stop offset="1" stop-color="#B99599"/>
</linearGradient>
<linearGradient id="paint36_linear_3_5208" x1="196.387" y1="96.19" x2="196.387" y2="72.1598" gradientUnits="userSpaceOnUse">
<stop offset="0.02" stop-color="#FFA892"/>
<stop offset="1" stop-color="#FFCEA8"/>
</linearGradient>
<linearGradient id="paint37_linear_3_5208" x1="192.214" y1="82.924" x2="192.214" y2="60.552" gradientUnits="userSpaceOnUse">
<stop stop-color="#FFCEA8"/>
<stop offset="0.98" stop-color="#FFA892"/>
</linearGradient>
<linearGradient id="paint38_linear_3_5208" x1="205.867" y1="73.5279" x2="205.867" y2="58.9357" gradientUnits="userSpaceOnUse">
<stop offset="0.02" stop-color="#FFA892"/>
<stop offset="1" stop-color="#FFCEA8"/>
</linearGradient>
</defs>
</svg>
