<svg width="76" height="87" viewBox="0 0 76 87" fill="none" xmlns="http://www.w3.org/2000/svg">
<path d="M14.2126 93.322L11.4351 91.5925C14.1276 88.9049 17.3496 85.2024 20.3623 80.3732C23.3749 75.5439 25.2832 71.0235 26.5119 67.4243C27.4378 68.0012 28.3636 68.5769 29.2895 69.1538C28.0275 72.8932 26.0281 77.6412 22.8012 82.6906C19.9055 87.2209 16.83 90.7303 14.2138 93.322H14.2126Z" fill="#FFB206"/>
<path d="M62.008 93.322L64.7856 91.5925C62.093 88.9049 58.871 85.2024 55.8584 80.3732C52.8457 75.5439 50.9374 71.0235 49.7087 67.4243C48.7828 68.0012 47.857 68.5769 46.9312 69.1538C48.1931 72.8932 50.1925 77.6412 53.4194 82.6906C56.3151 87.2209 59.3906 90.7303 62.0068 93.322H62.008Z" fill="#FFB206"/>
<path d="M24.8294 79.2759C26.9039 75.5181 28.3161 72.0358 29.2887 69.1526C28.3628 68.5757 27.437 68 26.5112 67.4231C25.4881 70.4208 23.991 74.058 21.7798 77.9795C22.7869 78.4321 23.7989 78.8897 24.8294 79.2759Z" fill="#E28807"/>
<path d="M53.3908 78.8208C53.7885 78.624 54.1763 78.4088 54.5568 78.1837C52.2828 74.1847 50.75 70.4724 49.7096 67.4231C48.7838 68 47.858 68.5757 46.9321 69.1526C47.9257 72.0973 49.3772 75.6669 51.5256 79.517C52.1634 79.3227 52.7802 79.1234 53.3908 78.8196V78.8208Z" fill="#E28807"/>
<path d="M16.7639 8.149C23.853 18.6082 30.9421 29.0674 38.0311 39.5266C35.5614 27.1387 33.0917 14.7495 30.622 2.36157L16.7627 8.149H16.7639Z" fill="white"/>
<path d="M30.623 2.36167C33.0928 14.7496 35.5625 27.1388 38.0322 39.5267L45.2124 2.31616L30.623 2.36167Z" fill="#7F4285"/>
<path d="M0.855866 47.0447C13.2476 44.5391 25.6393 42.0322 38.031 39.5266C25.6233 37.0972 13.2168 34.6679 0.809082 32.2397L0.854635 47.0447H0.855866Z" fill="#7F4285"/>
<path d="M6.68282 60.8595C17.133 53.7486 27.5819 46.6376 38.0321 39.5278C25.6403 42.0335 13.2486 44.5403 0.856934 47.046L6.68405 60.8608L6.68282 60.8595Z" fill="white"/>
<path d="M6.41334 18.601C16.9521 25.5766 27.4922 32.5523 38.031 39.528C30.9419 29.0688 23.8528 18.6096 16.7625 8.15039L6.41211 18.601H6.41334Z" fill="#7F4285"/>
<path d="M0.810547 32.2397C13.2183 34.6691 25.6247 37.0985 38.0325 39.5266C27.4924 32.551 16.9524 25.5753 6.41236 18.5984L0.810547 32.2397Z" fill="white"/>
<path d="M69.3815 18.1951C58.9325 25.3061 48.4824 32.417 38.0322 39.5268C50.4239 37.0211 62.8156 34.5143 75.2073 32.0086L69.3802 18.1938L69.3815 18.1951Z" fill="white"/>
<path d="M75.2083 32.0098C62.8166 34.5154 50.4249 37.0223 38.0332 39.5279C50.4409 41.9573 62.8474 44.3866 75.2551 46.8148L75.2095 32.0098H75.2083Z" fill="#7F4285"/>
<path d="M45.2124 2.31616L38.0322 39.5267C45.0573 29.0244 52.0811 18.521 59.1061 8.01872L45.2124 2.31616Z" fill="white"/>
<path d="M59.1049 8.02124C52.0811 18.5235 45.056 29.0257 38.0322 39.528C48.4824 32.417 58.9313 25.306 69.3815 18.1951L59.1049 8.02124Z" fill="#7F4285"/>
<path d="M75.2541 46.8147C62.8464 44.3853 50.4399 41.9572 38.0322 39.5278C48.5723 46.5035 59.1123 53.4804 69.6523 60.4561L75.2529 46.8147H75.2541Z" fill="white"/>
<path d="M69.6511 60.4548C59.111 53.4792 48.5723 46.5035 38.0322 39.5278C45.1213 49.987 52.2104 60.4462 59.3007 70.9054L69.6523 60.4548H69.6511Z" fill="#7F4285"/>
<path d="M16.9597 71.0334C23.9835 60.5311 31.0085 50.0289 38.0323 39.5266C27.5822 46.6376 17.1333 53.7486 6.68311 60.8595L16.9597 71.0334Z" fill="#7F4285"/>
<path d="M30.8522 76.7384C33.2456 64.3344 35.639 51.9318 38.0324 39.5278C31.0074 50.0301 23.9835 60.5336 16.9585 71.0358L30.8522 76.7384Z" fill="white"/>
<path d="M59.3004 70.9054C52.2113 60.4462 45.1223 49.987 38.0332 39.5278C40.5029 51.9158 42.9726 64.3049 45.4424 76.6929L59.3016 70.9042L59.3004 70.9054Z" fill="white"/>
<path d="M45.4414 76.6929L38.0322 39.5278C35.6388 51.9318 33.2454 64.3344 30.8521 76.7384L45.4414 76.6929Z" fill="#7F4285"/>
<g style="mix-blend-mode:multiply">
<path d="M38.122 4.31006C18.1377 4.31006 1.93799 20.4952 1.93799 40.4615C1.93799 60.4278 18.1377 76.613 38.122 76.613C58.1063 76.613 74.3061 60.4278 74.3061 40.4615C74.3061 20.4952 58.1063 4.31006 38.122 4.31006ZM38.0703 72.0691C20.6357 72.0691 6.50193 57.948 6.50193 40.5292C6.50193 23.1103 20.6357 8.99044 38.0703 8.99044C55.5049 8.99044 69.6387 23.1115 69.6387 40.5304C69.6387 57.9493 55.5049 72.0704 38.0703 72.0704V72.0691Z" fill="#EFE8CE"/>
</g>
<g style="mix-blend-mode:multiply">
<path d="M42.1847 44.3996C44.5507 42.0357 44.5507 38.2031 42.1847 35.8392C39.8187 33.4753 35.9826 33.4753 33.6166 35.8392C31.2506 38.2031 31.2506 42.0357 33.6166 44.3996C35.9826 46.7635 39.8187 46.7635 42.1847 44.3996Z" fill="#E0D5B3"/>
</g>
<path d="M42.9804 41.6824C44.0933 38.845 42.6933 35.6434 39.8533 34.5314C37.0134 33.4194 33.8089 34.8182 32.6959 37.6556C31.5829 40.493 32.9829 43.6946 35.8229 44.8066C38.6629 45.9186 41.8674 44.5198 42.9804 41.6824Z" fill="#FFED10"/>
<path d="M38 1.49072C17.0135 1.49072 0 18.4889 0 39.4577C0 60.4265 17.0135 77.4235 38 77.4235C58.9865 77.4235 76 60.4253 76 39.4577C76 18.4901 58.9877 1.49072 38 1.49072ZM37.9458 72.6509C19.6359 72.6509 4.79417 57.8213 4.79417 39.5291C4.79417 21.2369 19.6359 6.40604 37.9458 6.40604C56.2558 6.40604 71.0975 21.2356 71.0975 39.5278C71.0975 57.8201 56.2545 72.6496 37.9458 72.6496V72.6509Z" fill="#FFB206"/>
<g style="mix-blend-mode:multiply">
<path d="M33.1987 1.79208C34.8103 5.39615 36.4207 9.00022 38.0323 12.6043C39.6427 9.00268 41.2518 5.40107 42.8622 1.79946C41.2703 1.5965 39.6476 1.49194 38.0003 1.49194C36.353 1.49194 34.7709 1.59404 33.1987 1.79208Z" fill="#EFE8CE"/>
</g>
<path d="M38.0321 9.464C36.7136 6.51555 35.3962 3.5671 34.0776 0.619873H41.9854C40.6681 3.56833 39.3495 6.51678 38.0309 9.464H38.0321Z" fill="#FFED10"/>
<path d="M37.8265 8.13429C36.8835 5.81563 35.9416 3.49574 34.9985 1.17707C35.576 1.13156 36.1546 1.08482 36.732 1.03931C37.0964 3.40471 37.4609 5.77012 37.8253 8.13429H37.8265Z" fill="#FFF6B8"/>
<path d="M33.8474 36.5782C32.9929 37.7308 32.94 39.0654 32.9351 39.4061C32.9117 41.0532 33.7033 42.2008 33.9705 42.5575C33.7747 42.1307 33.1271 40.5833 33.6615 38.7185C33.7883 38.2757 34.1687 37.165 35.209 36.219C36.9598 34.6274 39.1636 34.7909 39.5661 34.8279C37.2725 34.3235 35.0158 34.9988 33.8461 36.577L33.8474 36.5782Z" fill="#FFF6B8"/>
<path d="M40.4367 34.7749C40.6275 34.9151 42.8498 36.604 42.7378 39.4663C42.7292 39.6902 42.5925 42.1639 40.5968 43.5797C38.5924 45.0004 35.5527 44.7581 33.3193 42.817C33.6727 43.2968 34.6034 44.4284 36.2212 44.9229C36.7321 45.0791 37.2751 45.164 37.8377 45.164C40.8886 45.164 43.3607 42.6928 43.3607 39.6459C43.3607 37.5364 42.1764 35.7048 40.4355 34.7761L40.4367 34.7749Z" fill="#FFB206"/>
<path d="M70.9366 51.8628C70.9305 51.8726 70.9255 51.8825 70.9206 51.8923C70.9329 51.88 70.8935 51.9895 70.8726 52.0621C70.8923 52.0276 70.8812 52.3327 70.8677 52.1752C70.8701 52.2011 70.8714 52.2564 70.8714 52.281C70.8714 52.27 70.8714 52.2527 70.8714 52.2257C70.8714 52.2281 70.8763 52.249 70.8824 52.2712C70.8972 52.2884 70.9255 52.3142 70.9391 52.3265C70.9403 52.3265 70.9428 52.3278 70.944 52.329C70.9785 52.1888 71.0117 52.0473 71.0437 51.9059C71.0093 51.8948 70.9736 51.88 70.9379 51.8616L70.9366 51.8628Z" fill="#FFEA6C"/>
<path d="M62.8996 14.9722C63.449 14.9722 63.8943 14.5272 63.8943 13.9783C63.8943 13.4294 63.449 12.9844 62.8996 12.9844C62.3502 12.9844 61.9048 13.4294 61.9048 13.9783C61.9048 14.5272 62.3502 14.9722 62.8996 14.9722Z" fill="#FFED10"/>
<path d="M52.4321 6.62138C52.5519 6.08569 52.2144 5.55436 51.6783 5.43462C51.1421 5.31488 50.6103 5.65207 50.4904 6.18776C50.3706 6.72345 50.7081 7.25478 51.2443 7.37452C51.7804 7.49427 52.3122 7.15707 52.4321 6.62138Z" fill="#FFED10"/>
<path d="M71.08 25.6569C71.4685 25.2687 71.4685 24.6395 71.08 24.2513C70.6915 23.8632 70.0616 23.8632 69.6731 24.2513C69.2847 24.6395 69.2847 25.2687 69.6731 25.6569C70.0616 26.045 70.6915 26.045 71.08 25.6569Z" fill="#FFED10"/>
<path d="M74.3651 38.7924C74.4528 38.2505 74.0843 37.7402 73.542 37.6525C72.9996 37.5649 72.4888 37.9331 72.4011 38.4749C72.3133 39.0168 72.6818 39.5271 73.2242 39.6148C73.7666 39.7025 74.2773 39.3343 74.3651 38.7924Z" fill="#FFED10"/>
<path d="M71.8012 52.6469C72.1897 52.2587 72.1897 51.6294 71.8012 51.2413C71.4127 50.8532 70.7828 50.8532 70.3943 51.2413C70.0058 51.6294 70.0058 52.2587 70.3943 52.6469C70.7828 53.035 71.4127 53.035 71.8012 52.6469Z" fill="#FFED10"/>
<path d="M64.5697 64.6256C64.9582 64.2375 64.9582 63.6082 64.5697 63.2201C64.1812 62.8319 63.5514 62.8319 63.1629 63.2201C62.7744 63.6082 62.7744 64.2375 63.1629 64.6256C63.5514 65.0138 64.1812 65.0138 64.5697 64.6256Z" fill="#FFED10"/>
<path d="M52.0383 73.1141C52.5614 72.9462 52.8491 72.3863 52.681 71.8638C52.5128 71.3412 51.9525 71.0537 51.4295 71.2217C50.9064 71.3897 50.6187 71.9495 50.7869 72.4721C50.955 72.9947 51.5153 73.2821 52.0383 73.1141Z" fill="#FFED10"/>
<path d="M38.5419 75.7687C38.9304 75.3806 38.9304 74.7513 38.5419 74.3631C38.1534 73.975 37.5235 73.975 37.1351 74.3631C36.7466 74.7513 36.7466 75.3806 37.1351 75.7687C37.5235 76.1568 38.1534 76.1568 38.5419 75.7687Z" fill="#FFED10"/>
<path d="M25.5101 72.3994C25.6367 71.8653 25.306 71.3297 24.7714 71.2031C24.2368 71.0766 23.7008 71.407 23.5741 71.9411C23.4474 72.4752 23.7781 73.0108 24.3127 73.1374C24.8473 73.2639 25.3834 72.9335 25.5101 72.3994Z" fill="#FFED10"/>
<path d="M13.1476 65.9101C13.697 65.9101 14.1424 65.4652 14.1424 64.9163C14.1424 64.3673 13.697 63.9224 13.1476 63.9224C12.5982 63.9224 12.1528 64.3673 12.1528 64.9163C12.1528 65.4652 12.5982 65.9101 13.1476 65.9101Z" fill="#FFED10"/>
<path d="M5.08512 54.0979C5.63452 54.0979 6.0799 53.6529 6.0799 53.104C6.0799 52.5551 5.63452 52.1101 5.08512 52.1101C4.53571 52.1101 4.09033 52.5551 4.09033 53.104C4.09033 53.6529 4.53571 54.0979 5.08512 54.0979Z" fill="#FFED10"/>
<path d="M3.01504 39.807C3.40353 39.4189 3.40353 38.7896 3.01504 38.4015C2.62655 38.0133 1.99669 38.0133 1.6082 38.4015C1.21972 38.7896 1.21972 39.4189 1.6082 39.807C1.99669 40.1952 2.62655 40.1952 3.01504 39.807Z" fill="#FFED10"/>
<path d="M5.91636 26.0077C6.00411 25.4659 5.63558 24.9555 5.09322 24.8679C4.55087 24.7802 4.04008 25.1484 3.95233 25.6903C3.86459 26.2321 4.23312 26.7425 4.77547 26.8301C5.31782 26.9178 5.82862 26.5496 5.91636 26.0077Z" fill="#FFED10"/>
<path d="M13.8968 14.1684C13.9846 13.6265 13.616 13.1162 13.0737 13.0285C12.5313 12.9408 12.0205 13.309 11.9328 13.8509C11.8451 14.3928 12.2136 14.9031 12.7559 14.9908C13.2983 15.0784 13.8091 14.7102 13.8968 14.1684Z" fill="#FFED10"/>
<path d="M25.3207 7.10952C25.7092 6.72139 25.7092 6.09209 25.3207 5.70395C24.9322 5.31582 24.3024 5.31582 23.9139 5.70395C23.5254 6.09209 23.5254 6.72139 23.9139 7.10952C24.3024 7.49766 24.9322 7.49766 25.3207 7.10952Z" fill="#FFED10"/>
</svg>
