<svg width="225" height="91" viewBox="0 0 225 91" fill="none" xmlns="http://www.w3.org/2000/svg">
<path d="M224.988 40.0722C224.814 33.4937 222.676 27.9402 218.576 23.4275C214.292 18.7106 209.003 16.3541 202.705 16.3541C196.407 16.3541 191.129 18.7106 186.87 23.4275C184.998 25.4973 183.538 27.7909 182.49 30.2967C181.435 27.7909 179.964 25.5012 178.085 23.4275C173.801 18.7106 168.512 16.3541 162.214 16.3541C155.916 16.3541 150.637 18.7106 146.378 23.4275C145.895 23.9577 145.448 24.5075 145.021 25.0653C145.025 24.9553 145.028 24.8453 145.028 24.7353C145.028 21.6601 143.892 19.4018 141.622 17.9683C139.956 16.8921 137.917 16.3541 135.509 16.3541H116.202C113.648 16.3541 111.521 17.2574 109.812 19.0562V19.0444C109.812 18.8873 109.809 18.7341 109.805 18.581V11.8453C109.812 11.6843 109.812 11.5272 109.812 11.3662C109.812 8.24774 108.807 5.56918 106.793 3.34229C104.779 1.11541 102.356 0 99.5321 0C96.7081 0 94.2891 1.11541 92.275 3.34229C90.2609 5.56918 89.2521 8.24774 89.2521 11.3662C89.2521 11.594 89.2592 11.8178 89.2734 12.0417H89.2699V17.5205C87.9626 16.7508 86.4743 16.3619 84.8048 16.3619C82.169 16.3619 79.9667 17.3242 78.2084 19.2526C76.45 21.1731 75.5691 23.6042 75.5691 26.5263V43.9251C75.5691 44.7459 75.221 45.1583 74.5247 45.1583C73.7823 45.1583 73.4129 44.7459 73.4129 43.9251V26.6284C73.4129 23.6946 72.532 21.2477 70.7737 19.2918C69.0153 17.336 66.8165 16.358 64.1773 16.358C61.538 16.358 59.3498 17.336 57.6128 19.284C57.2505 19.6846 56.9344 20.1127 56.6466 20.5604C55.2293 16.6918 53.098 13.1807 50.2491 10.0308C44.5799 3.75075 37.6211 0.612688 29.3801 0.612688C21.1355 0.612688 14.1803 3.75468 8.50747 10.0308C3.16144 15.9495 0.337458 23.129 0.0284181 31.5731H0V44.2864L0.120773 43.9761C0.788583 52.7973 4.31235 60.1024 10.6956 65.8837C12.4539 67.5214 14.4005 68.3462 16.5283 68.3462C17.9634 68.3462 19.3274 67.9849 20.6275 67.2701V80.8631C20.6275 83.7302 21.5085 86.1378 23.2668 88.0819C25.0251 90.026 27.2026 91 29.7957 91C32.9429 91 35.2341 89.9239 36.6692 87.7716C37.781 86.1338 38.4737 83.6713 38.7543 80.3918C38.8467 77.5719 38.9177 74.7559 38.9639 71.9399L39.0349 71.555C44.9138 69.3517 49.6737 65.4163 53.3076 59.7568C54.082 58.5511 54.7711 57.31 55.3821 56.0414C56.096 60.2163 57.8473 63.8493 60.6357 66.9441C64.3868 71.1033 69.0153 73.181 74.5247 73.181C79.988 73.181 84.5987 71.0916 88.3498 66.9127C89.1171 66.0565 89.8027 65.1571 90.4137 64.2224C90.6197 66.6181 91.4687 68.6487 92.9641 70.2982C94.7011 72.2187 96.8893 73.177 99.5286 73.177C102.122 73.177 104.31 72.2148 106.093 70.2982C106.114 70.2746 106.132 70.255 106.153 70.2314C106.597 70.7341 107.123 71.1819 107.727 71.5668C109.393 72.639 111.453 73.181 113.908 73.181H133.352C135.946 73.181 138.123 72.207 139.881 70.2589C141.64 68.307 142.521 65.8994 142.521 63.0323V55.8254C143.981 57.5142 145.817 58.5 148.037 58.7906C148.083 58.9949 148.129 59.1716 148.176 59.3248C147.76 60.558 147.55 61.8384 147.55 63.1698C147.55 63.9906 147.622 64.784 147.76 65.5538C147.344 66.7831 147.135 68.0909 147.135 69.4734V78.0196L147.163 77.9882C147.323 80.8082 148.307 83.2236 150.126 85.2305C152.115 87.4338 154.548 88.5375 157.418 88.5375C160.289 88.5375 162.718 87.4338 164.715 85.2305C166.704 83.0272 167.698 80.3369 167.698 77.1595C167.698 75.8242 167.514 74.5713 167.141 73.3931C167.187 73.1888 167.233 72.9571 167.279 72.7018C171.4 71.7278 174.988 69.552 178.046 66.1704C180.65 63.2876 182.461 60.0042 183.491 56.332C184.87 57.7106 186.55 58.5314 188.532 58.7906C188.578 58.9949 188.624 59.1716 188.671 59.3248C188.255 60.558 188.045 61.8384 188.045 63.1698C188.045 63.9906 188.116 64.784 188.255 65.5538C187.903 66.5906 187.704 67.6786 187.648 68.8214L187.637 68.8136V69.1042C187.633 69.226 187.63 69.3477 187.63 69.4695C187.63 69.5912 187.637 69.7091 187.637 69.8269V76.8021C187.633 76.92 187.63 77.0338 187.63 77.1556C187.63 77.2734 187.637 77.3912 187.637 77.5091V77.5837C187.726 80.5764 188.713 83.1254 190.617 85.2305C192.606 87.4338 195.04 88.5375 197.91 88.5375C200.78 88.5375 203.21 87.4338 205.206 85.2305C207.195 83.0272 208.19 80.3369 208.19 77.1595C208.19 75.8242 208.005 74.5713 207.632 73.3931C207.678 73.1888 207.724 72.9571 207.771 72.7018C211.891 71.7278 215.479 69.552 218.537 66.1704C222.441 61.8502 224.576 56.6502 224.942 50.5625C224.942 50.5586 224.942 50.5586 224.942 50.5586C224.981 49.9302 224.999 49.2861 224.999 48.6381V40.952C225.002 40.6574 224.999 40.3668 224.988 40.0722ZM48.7288 50.5743C45.0488 55.5976 40.2888 58.7474 34.4562 60.0278V73.1731C34.4562 74.6577 34.0086 75.887 33.1134 76.865C32.2147 77.839 31.1029 78.3221 29.7708 78.3221C28.4352 78.3221 27.334 77.839 26.4637 76.865C25.5899 75.8909 25.153 74.6656 25.153 73.181V44.9187C25.153 43.2299 24.6379 41.7728 23.6149 40.5435C22.5883 39.3142 21.3166 38.7015 19.8034 38.7015C18.2902 38.7015 17.0789 38.2302 16.166 37.2837C15.2602 36.3372 14.8055 35.0686 14.8055 33.4819C14.8055 31.9462 15.2424 30.7091 16.1234 29.7586C17.0043 28.8121 18.1374 28.3408 19.5299 28.3408C23.789 28.3408 27.3447 29.9275 30.19 33.1009C33.0388 36.2743 34.4632 40.2175 34.4632 44.9266V49.3804C37.6105 48.2021 40.1325 46.1284 42.0365 43.1592C43.9334 40.19 44.8818 36.8634 44.8818 33.1755C44.8818 28.3133 43.4005 24.2444 40.4345 20.9689C37.4684 17.6934 33.7883 16.0517 29.3943 16.0517C24.947 16.0517 21.2562 17.6776 18.315 20.9296C15.3738 24.1816 13.9032 28.2662 13.9032 33.1755C13.9032 38.5523 15.7823 42.955 19.5299 46.3876C20.7341 47.4598 21.3344 48.7677 21.3344 50.3033C21.3344 51.7369 20.8584 52.9937 19.91 54.0659C18.9615 55.142 17.8391 55.6761 16.5425 55.6761C15.523 55.6761 14.5284 55.2402 13.5587 54.3683C7.53773 48.8816 4.52903 41.8082 4.52903 33.1441C4.52903 25.403 6.92676 18.8755 11.7151 13.5695C16.507 8.26345 22.4001 5.61238 29.3943 5.61238C36.385 5.61238 42.2781 8.26345 47.07 13.5695C51.8618 18.8755 54.256 25.3952 54.256 33.1323C54.2525 39.7344 52.4124 45.555 48.7288 50.5743ZM89.4652 43.8897C89.4652 48.6066 88.0408 52.5577 85.1919 55.739C82.3466 58.9202 78.7909 60.5109 74.5283 60.5109C70.2231 60.5109 66.646 58.932 63.8007 55.7704C60.9519 52.6127 59.5274 48.6381 59.5274 43.8622V26.5891C59.5274 25.0495 59.9537 23.7888 60.8098 22.8109C61.6659 21.8369 62.7883 21.3459 64.1808 21.3459C65.5697 21.3459 66.7029 21.8329 67.5838 22.8148C68.4647 23.7927 68.9017 25.0535 68.9017 26.597V43.8897C68.9017 45.6414 69.4451 47.1221 70.5321 48.3278C71.6191 49.5375 72.9511 50.1423 74.5247 50.1423C76.1019 50.1423 77.4198 49.5375 78.4855 48.3317C79.5511 47.126 80.0839 45.6492 80.0839 43.9054V26.5027C80.0839 24.9631 80.5208 23.7181 81.4018 22.7677C82.2827 21.8172 83.4159 21.3459 84.8048 21.3459C86.1972 21.3459 87.3162 21.8172 88.1758 22.7677C89.0319 23.7181 89.4581 24.9631 89.4581 26.4988V43.8897H89.4652ZM104.26 55.3659C104.26 56.9015 103.82 58.1426 102.942 59.0891C102.061 60.0357 100.925 60.5069 99.5357 60.5069C98.1468 60.5069 97.0243 60.0357 96.1682 59.0891C95.3086 58.1426 94.8823 56.9015 94.8823 55.3659V26.5656C94.8823 25.0299 95.3086 23.7928 96.1682 22.8423C97.0243 21.8958 98.1468 21.4245 99.5357 21.4245C102.683 21.4245 104.26 23.1408 104.26 26.5695V55.3659ZM103.599 15.8553C102.466 17.1121 101.109 17.7366 99.5357 17.7366C97.9585 17.7366 96.6051 17.1121 95.472 15.8553C94.3388 14.6024 93.7705 13.106 93.7705 11.3622C93.7705 9.62235 94.3388 8.12598 95.472 6.86918C96.6051 5.61631 97.9585 4.98791 99.5357 4.98791C101.109 4.98791 102.466 5.61631 103.599 6.86918C104.733 8.12598 105.301 9.62235 105.301 11.3622C105.301 13.1021 104.733 14.5985 103.599 15.8553ZM134.127 37.1305C132.411 39.3888 129.008 43.7287 123.918 50.1423H133.363C134.756 50.1423 135.874 50.6293 136.734 51.5994C137.59 52.5734 138.016 53.8263 138.016 55.3659C138.016 56.8505 137.576 58.0798 136.699 59.0498C135.818 60.0239 134.706 60.5069 133.363 60.5069H113.918C110.537 60.5069 108.849 59.3562 108.849 57.0508C108.849 54.439 110.977 50.3426 115.236 44.7616L125.516 31.7852H116.21C114.867 31.7852 113.755 31.2825 112.878 30.277C111.997 29.2716 111.556 28.0187 111.556 26.5224C111.556 24.9789 111.982 23.726 112.842 22.7716C113.698 21.8172 114.821 21.342 116.21 21.342H135.516C138.851 21.342 140.517 22.4731 140.517 24.7314C140.517 27.3511 138.386 31.4828 134.127 37.1305ZM161.518 74.0254C160.406 75.2547 159.042 75.8713 157.418 75.8713C155.795 75.8713 154.435 75.2547 153.319 74.0254C152.211 72.7961 151.653 71.2879 151.653 69.493C151.653 67.7532 152.222 66.2686 153.355 65.0393C154.488 63.81 155.841 63.1973 157.418 63.1973C158.992 63.1973 160.349 63.8139 161.482 65.0393C162.615 66.2686 163.184 67.7532 163.184 69.493C163.187 71.2879 162.633 72.7961 161.518 74.0254ZM174.888 55.0085C171.485 58.7789 167.258 60.6641 162.214 60.6641H156.726C155.337 60.6641 154.214 60.1927 153.358 59.2462C152.502 58.2997 152.076 57.0586 152.076 55.523C152.076 53.9834 152.502 52.7305 153.358 51.7565C154.214 50.7864 155.337 50.2994 156.726 50.2994H162.214C164.526 50.2994 166.508 49.3921 168.153 47.5737C169.794 45.7592 170.618 43.5677 170.618 41.0069C170.618 38.4501 169.794 36.2704 168.153 34.4795C166.508 32.6885 164.53 31.7891 162.214 31.7891C159.898 31.7891 157.93 32.6846 156.31 34.4795C154.69 36.2704 153.877 38.4501 153.877 41.0069C153.877 42.5426 153.436 43.7994 152.559 44.7695C151.678 45.7435 150.541 46.2305 149.152 46.2305C147.764 46.2305 146.641 45.7435 145.785 44.7656C144.925 43.7915 144.499 42.5308 144.499 40.9912C144.499 35.3946 146.19 30.7208 149.572 26.9701C152.95 23.2233 157.166 21.3459 162.214 21.3459C167.258 21.3459 171.485 23.2193 174.888 26.9622C178.295 30.7051 179.996 35.3749 179.996 40.9677C179.996 46.5604 178.295 51.2381 174.888 55.0085ZM202.012 74.0254C200.901 75.2547 199.537 75.8713 197.913 75.8713C196.294 75.8713 194.929 75.2547 193.814 74.0254C192.706 72.7961 192.148 71.2879 192.148 69.493C192.148 67.7532 192.716 66.2686 193.85 65.0393C194.983 63.81 196.336 63.1973 197.913 63.1973C199.487 63.1973 200.844 63.8139 201.977 65.0393C203.11 66.2686 203.678 67.7532 203.678 69.493C203.678 71.2879 203.124 72.7961 202.012 74.0254ZM215.379 55.0085C211.976 58.7789 207.749 60.6641 202.705 60.6641H197.217C195.828 60.6641 194.706 60.1927 193.85 59.2462C192.994 58.2997 192.567 57.0586 192.567 55.523C192.567 53.9834 192.994 52.7305 193.85 51.7565C194.706 50.7864 195.828 50.2994 197.217 50.2994H202.705C205.018 50.2994 207 49.3921 208.644 47.5737C210.286 45.7592 211.11 43.5677 211.11 41.0069C211.11 38.4501 210.286 36.2704 208.644 34.4795C207 32.6885 205.021 31.7891 202.705 31.7891C200.389 31.7891 198.421 32.6846 196.801 34.4795C195.178 36.2704 194.368 38.4501 194.368 41.0069C194.368 42.5426 193.928 43.7994 193.047 44.7695C192.166 45.7435 191.033 46.2305 189.644 46.2305C188.255 46.2305 187.132 45.7435 186.276 44.7656C185.417 43.7915 184.99 42.5308 184.99 40.9912C184.99 35.3946 186.681 30.7208 190.063 26.9701C193.441 23.2233 197.658 21.3459 202.705 21.3459C207.749 21.3459 211.976 23.2193 215.379 26.9622C218.786 30.7051 220.487 35.3749 220.487 40.9677C220.487 46.5604 218.786 51.2381 215.379 55.0085Z" fill="url(#paint0_linear_3_5197)"/>
<defs>
<linearGradient id="paint0_linear_3_5197" x1="112.505" y1="91.242" x2="112.505" y2="2.36321" gradientUnits="userSpaceOnUse">
<stop stop-color="#030037"/>
<stop offset="1" stop-color="#7B1382"/>
</linearGradient>
</defs>
</svg>
