<svg xmlns="http://www.w3.org/2000/svg" width="24" height="24" viewBox="0 0 24 24">
  <g id="brush" transform="translate(-234 -190)">
    <path id="Vector" d="M15.54,1.93A33.727,33.727,0,0,1,6.91,13.58L4.94,15.16a3.588,3.588,0,0,1-.78.45,3.728,3.728,0,0,0-.04-.57,3.916,3.916,0,0,0-1.16-2.29A4.084,4.084,0,0,0,.6,11.56a4.007,4.007,0,0,0-.6-.01,2.614,2.614,0,0,1,.49-.84L2.05,8.74A33.629,33.629,0,0,1,13.7.1a1.4,1.4,0,0,1,1.52.31A1.358,1.358,0,0,1,15.54,1.93Z" transform="translate(240.27 192.01)" fill="none" stroke="#707070" stroke-linecap="round" stroke-linejoin="round" stroke-width="1.5"/>

  </g>
</svg>
